<svg width="689" height="658" viewBox="0 0 689 658" fill="none" xmlns="http://www.w3.org/2000/svg">
<path d="M457.521 248.057H467.636C468.386 248.057 469.136 247.984 469.87 247.838C470.61 247.687 471.328 247.474 472.021 247.182C472.719 246.896 473.38 246.542 474.005 246.125C474.63 245.703 475.214 245.229 475.745 244.698C476.276 244.167 476.75 243.583 477.172 242.958C477.589 242.333 477.943 241.672 478.229 240.979C478.516 240.281 478.735 239.562 478.88 238.823C479.031 238.088 479.104 237.338 479.104 236.588C479.104 235.833 479.031 235.088 478.88 234.349C478.735 233.609 478.516 232.896 478.229 232.198C477.943 231.505 477.589 230.844 477.172 230.213C476.75 229.588 476.276 229.01 475.745 228.479C475.214 227.948 474.63 227.469 474.005 227.052C473.38 226.635 472.719 226.281 472.021 225.989C471.328 225.703 470.61 225.484 469.87 225.338C469.136 225.193 468.386 225.12 467.636 225.12H457.521C456.766 225.12 456.021 225.193 455.281 225.338C454.542 225.484 453.823 225.703 453.13 225.989C452.432 226.281 451.771 226.635 451.146 227.052C450.521 227.469 449.943 227.948 449.406 228.479C448.875 229.01 448.401 229.588 447.985 230.213C447.563 230.844 447.208 231.505 446.922 232.198C446.636 232.896 446.417 233.609 446.271 234.349C446.125 235.088 446.052 235.833 446.052 236.588C446.052 237.338 446.125 238.088 446.271 238.823C446.417 239.562 446.636 240.281 446.922 240.979C447.208 241.672 447.563 242.333 447.985 242.958C448.401 243.583 448.875 244.167 449.406 244.698C449.943 245.229 450.521 245.703 451.146 246.125C451.771 246.542 452.432 246.896 453.13 247.182C453.823 247.474 454.542 247.687 455.281 247.838C456.021 247.984 456.766 248.057 457.521 248.057Z" fill="#42526E"/>
<path d="M501.891 284.037C502.12 283.464 502.235 283 502.464 282.427C508.443 264.958 511.464 246.99 511.526 228.526C511.526 223.469 511.297 218.422 510.839 213.386C510.38 208.349 509.693 203.344 508.776 198.375C507.86 193.401 506.719 188.479 505.354 183.609C503.99 178.74 502.401 173.948 500.599 169.224C498.792 164.5 496.776 159.865 494.552 155.328C492.323 150.787 489.891 146.359 487.261 142.042C484.625 137.724 481.802 133.537 478.787 129.474C475.771 125.417 472.578 121.505 469.203 117.734C468.464 116.474 467.505 115.406 466.339 114.526C464.281 112.323 462.167 110.182 459.99 108.094C457.818 106.01 455.589 103.984 453.307 102.016C451.026 100.052 448.688 98.1511 446.302 96.3074C443.917 94.4688 441.485 92.698 439 90.9897C436.521 89.2813 433.995 87.6407 431.422 86.073C428.854 84.5001 426.24 83.0001 423.589 81.573C420.938 80.1407 418.25 78.7865 415.526 77.5001C412.797 76.2136 410.042 75.0053 407.25 73.8699C404.459 72.7345 401.641 71.6772 398.792 70.698C395.943 69.7136 393.073 68.8074 390.177 67.9792C387.276 67.1563 384.36 66.4063 381.422 65.7397C378.485 65.0678 375.531 64.4792 372.563 63.9688C369.594 63.4584 366.615 63.0313 363.62 62.6824C360.63 62.3386 357.63 62.0678 354.62 61.8855C351.615 61.698 348.604 61.5938 345.594 61.573C342.578 61.547 339.568 61.6042 336.563 61.7449C333.552 61.8855 330.547 62.1095 327.552 62.4115C324.552 62.7136 321.568 63.099 318.589 63.5626C315.615 64.0261 312.651 64.5678 309.703 65.1928C306.755 65.8178 303.828 66.5209 300.917 67.3074C298.011 68.0886 295.125 68.948 292.261 69.8855C289.401 70.8282 286.563 71.8438 283.755 72.9376C280.948 74.0261 278.172 75.1928 275.427 76.4376C272.682 77.6824 269.974 78.9949 267.302 80.3855C264.63 81.7761 261.995 83.2345 259.401 84.7657C256.807 86.297 254.255 87.9011 251.75 89.5678C249.24 91.2397 246.781 92.974 244.365 94.7761C241.953 96.5782 239.589 98.448 237.276 100.38C234.964 102.307 232.708 104.302 230.5 106.354C228.297 108.406 226.151 110.516 224.057 112.688C221.969 114.854 219.938 117.078 217.969 119.359C215.995 121.635 214.089 123.969 212.245 126.349C210.401 128.734 208.625 131.162 206.912 133.641C205.198 136.12 203.552 138.641 201.979 141.208C200.401 143.776 198.896 146.385 197.458 149.037C196.026 151.682 194.662 154.37 193.375 157.094C192.083 159.813 190.87 162.568 189.729 165.359C188.589 168.146 187.521 170.964 186.537 173.807C185.547 176.656 184.636 179.526 183.802 182.422C182.969 185.318 182.214 188.234 181.542 191.167C180.865 194.104 180.271 197.057 179.755 200.026C179.24 202.995 178.807 205.974 178.453 208.964C178.099 211.958 177.823 214.953 177.63 217.964C177.438 220.969 177.328 223.979 177.302 226.99C177.271 230.005 177.323 233.016 177.458 236.021C177.594 239.031 177.807 242.037 178.104 245.037C178.401 248.031 178.776 251.021 179.235 254C179.693 256.974 180.229 259.938 180.849 262.886C181.469 265.833 182.167 268.766 182.943 271.677C183.719 274.589 184.573 277.474 185.511 280.339C186.443 283.203 187.453 286.042 188.537 288.849C189.625 291.662 190.787 294.438 192.026 297.188C193.261 299.932 194.573 302.646 195.953 305.318C197.339 307.995 198.792 310.63 200.318 313.229C201.844 315.828 203.443 318.38 205.104 320.891C206.771 323.401 208.5 325.865 210.302 328.287C212.099 330.703 213.958 333.068 215.886 335.386C217.813 337.703 219.797 339.964 221.849 342.172C223.896 344.38 226 346.537 228.167 348.63C230.333 350.724 232.552 352.761 234.828 354.734C237.104 356.708 239.427 358.62 241.807 360.469C244.188 362.318 246.615 364.104 249.089 365.823C251.563 367.537 254.083 369.188 256.646 370.771C259.208 372.349 261.813 373.859 264.464 375.302C267.11 376.745 269.792 378.109 272.511 379.406C275.229 380.703 277.985 381.922 280.771 383.068C283.552 384.214 286.37 385.287 289.214 386.276C292.057 387.271 294.927 388.188 297.818 389.026C300.714 389.865 303.625 390.625 306.563 391.307C309.495 391.99 312.448 392.589 315.417 393.109C318.38 393.63 321.36 394.073 324.349 394.432C327.344 394.792 330.339 395.073 333.349 395.271C336.354 395.469 339.365 395.583 342.375 395.62C345.386 395.656 348.396 395.609 351.406 395.484C354.417 395.354 357.422 395.146 360.422 394.854C363.422 394.563 366.406 394.193 369.386 393.74C372.365 393.292 375.328 392.755 378.281 392.146C381.229 391.531 384.162 390.839 387.073 390.068C389.985 389.297 392.875 388.448 395.74 387.521C398.604 386.594 401.448 385.594 404.255 384.511C407.068 383.427 409.849 382.271 412.599 381.042C415.349 379.813 418.063 378.505 420.74 377.125C423.422 375.75 426.063 374.302 428.662 372.776C431.261 371.255 433.818 369.667 436.334 368.011C438.849 366.349 441.318 364.62 443.735 362.828C446.156 361.037 448.526 359.177 450.849 357.261C453.167 355.339 455.438 353.354 457.651 351.313C459.865 349.266 462.021 347.162 464.12 345.005C466.219 342.844 468.255 340.625 470.235 338.354C472.214 336.083 474.13 333.761 475.985 331.386C477.839 329.016 479.63 326.589 481.354 324.12C483.073 321.646 484.729 319.13 486.318 316.573C487.901 314.011 489.417 311.406 490.865 308.766C492.313 306.12 493.682 303.443 494.985 300.724C496.287 298.005 497.511 295.255 498.662 292.474C499.818 289.688 500.891 286.875 501.891 284.037ZM333.526 315.229C332.625 315.229 331.724 315.182 330.823 315.094C329.927 315 329.037 314.865 328.146 314.688C327.261 314.511 326.386 314.292 325.526 314.026C324.662 313.761 323.813 313.458 322.979 313.109C322.146 312.761 321.328 312.375 320.531 311.948C319.735 311.521 318.964 311.052 318.214 310.552C317.464 310.047 316.74 309.505 316.042 308.932C315.344 308.359 314.677 307.75 314.042 307.109C313.406 306.469 312.797 305.802 312.229 305.099C311.656 304.401 311.12 303.677 310.62 302.922C310.12 302.172 309.656 301.396 309.235 300.599C308.807 299.802 308.427 298.984 308.078 298.151C307.735 297.313 307.432 296.464 307.172 295.599C306.912 294.734 306.698 293.859 306.521 292.974C306.349 292.083 306.219 291.193 306.13 290.292C306.042 289.396 306 288.495 306.005 287.589C306.005 286.688 306.052 285.787 306.141 284.886C306.235 283.99 306.365 283.094 306.542 282.208C306.724 281.323 306.943 280.448 307.208 279.583C307.474 278.724 307.776 277.875 308.125 277.037C308.474 276.203 308.86 275.391 309.287 274.594C309.714 273.797 310.182 273.026 310.682 272.276C311.188 271.526 311.724 270.802 312.302 270.104C312.875 269.406 313.485 268.74 314.12 268.104C314.761 267.464 315.432 266.859 316.13 266.292C316.834 265.719 317.557 265.182 318.307 264.682C319.063 264.182 319.839 263.719 320.636 263.297C321.432 262.87 322.25 262.484 323.084 262.141C323.917 261.797 324.771 261.495 325.636 261.234C326.5 260.974 327.375 260.761 328.261 260.583C329.146 260.412 330.042 260.276 330.938 260.193C331.839 260.104 332.74 260.063 333.641 260.063C334.547 260.068 335.448 260.115 336.344 260.203C337.245 260.292 338.136 260.427 339.021 260.604C339.906 260.787 340.781 261.005 341.646 261.271C342.511 261.531 343.36 261.839 344.193 262.188C345.026 262.531 345.844 262.922 346.641 263.349C347.432 263.776 348.209 264.24 348.959 264.745C349.709 265.25 350.432 265.787 351.13 266.365C351.823 266.938 352.495 267.542 353.13 268.182C353.766 268.823 354.37 269.495 354.943 270.193C355.516 270.891 356.052 271.62 356.552 272.37C357.052 273.125 357.516 273.896 357.938 274.698C358.365 275.495 358.745 276.307 359.089 277.146C359.432 277.979 359.735 278.828 359.995 279.698C360.255 280.563 360.474 281.438 360.651 282.323C360.823 283.208 360.953 284.104 361.042 285C361.13 285.901 361.172 286.802 361.167 287.703C361.167 288.609 361.12 289.511 361.026 290.406C360.938 291.307 360.802 292.198 360.625 293.083C360.443 293.969 360.224 294.844 359.959 295.708C359.693 296.568 359.391 297.417 359.042 298.25C358.693 299.083 358.307 299.901 357.875 300.698C357.448 301.49 356.985 302.266 356.479 303.016C355.979 303.766 355.438 304.484 354.865 305.182C354.292 305.88 353.682 306.547 353.042 307.188C352.401 307.823 351.735 308.427 351.031 309C350.334 309.568 349.61 310.104 348.854 310.604C348.104 311.104 347.328 311.568 346.531 311.995C345.735 312.417 344.922 312.802 344.084 313.146C343.25 313.49 342.401 313.792 341.537 314.052C340.672 314.313 339.797 314.531 338.906 314.708C338.021 314.88 337.13 315.016 336.229 315.099C335.334 315.188 334.432 315.229 333.526 315.229ZM488.589 228.526C488.584 241.781 486.75 254.781 483.084 267.521H379.865C378.886 265.276 377.755 263.12 376.469 261.042C375.177 258.964 373.745 256.99 372.172 255.12C370.594 253.25 368.891 251.505 367.063 249.886C365.235 248.261 363.297 246.781 361.255 245.443C359.209 244.099 357.078 242.917 354.86 241.886C352.646 240.854 350.365 239.99 348.021 239.292C345.682 238.589 343.302 238.063 340.88 237.708C338.464 237.359 336.031 237.182 333.584 237.182C331.141 237.182 328.709 237.359 326.292 237.708C323.87 238.063 321.49 238.589 319.146 239.292C316.807 239.99 314.526 240.854 312.307 241.886C310.094 242.917 307.964 244.099 305.917 245.443C303.875 246.781 301.938 248.261 300.11 249.886C298.276 251.505 296.578 253.25 295 255.12C293.427 256.99 291.995 258.964 290.703 261.042C289.417 263.12 288.281 265.276 287.307 267.521H260.703C263.292 263.011 266.172 258.688 269.333 254.557C272.495 250.427 275.912 246.521 279.589 242.839C283.266 239.156 287.167 235.734 291.297 232.568C295.422 229.401 299.74 226.521 304.25 223.922C308.755 221.328 313.417 219.037 318.224 217.052C323.037 215.068 327.953 213.412 332.979 212.073C338.011 210.74 343.104 209.74 348.266 209.078C353.422 208.412 358.604 208.094 363.807 208.109H486.985C487.99 214.88 488.521 221.682 488.589 228.526ZM481.938 185.172H406.469C409.412 180.151 412.698 175.359 416.318 170.807C419.943 166.25 423.87 161.974 428.099 157.974C432.328 153.979 436.823 150.302 441.573 146.943C446.328 143.583 451.297 140.573 456.474 137.922C462.162 144.927 467.146 152.406 471.427 160.349C475.709 168.292 479.214 176.568 481.938 185.172Z" fill="#42526E"/>
<mask id="mask0_372_6340" style="mask-type:luminance" maskUnits="userSpaceOnUse" x="0" y="0" width="689" height="658">
<path d="M0.354004 0.729004H689V657.729H0.354004V0.729004Z" fill="white"/>
</mask>
<g mask="url(#mask0_372_6340)">
<path d="M594.333 469.833C593.844 468.932 593.25 468.109 592.542 467.37C591.833 466.63 591.042 466 590.161 465.474C589.286 464.948 588.354 464.552 587.364 464.276C586.38 464.005 585.375 463.87 584.354 463.864H464.161C523.568 395.052 584.354 308.12 584.354 240.338C584.354 236.411 584.255 232.489 584.062 228.568C583.87 224.646 583.583 220.734 583.198 216.828C582.812 212.922 582.333 209.026 581.755 205.14C581.182 201.26 580.51 197.39 579.745 193.542C578.979 189.693 578.12 185.859 577.167 182.052C576.208 178.245 575.161 174.463 574.026 170.708C572.885 166.948 571.656 163.224 570.333 159.526C569.01 155.833 567.594 152.172 566.094 148.542C564.594 144.917 563 141.328 561.323 137.781C559.646 134.229 557.88 130.724 556.031 127.265C554.177 123.802 552.245 120.385 550.224 117.021C548.208 113.651 546.109 110.338 543.927 107.073C541.745 103.807 539.484 100.599 537.146 97.4478C534.807 94.2915 532.396 91.1978 529.906 88.1665C527.417 85.13 524.849 82.1561 522.213 79.2498C519.578 76.3384 516.87 73.4998 514.094 70.7238C511.318 67.9478 508.479 65.2394 505.568 62.604C502.661 59.9686 499.687 57.4061 496.656 54.9165C493.62 52.4217 490.526 50.0103 487.375 47.6717C484.219 45.3332 481.01 43.0728 477.745 40.8905C474.484 38.7082 471.167 36.6092 467.802 34.5936C464.432 32.5728 461.015 30.6405 457.557 28.7915C454.094 26.9373 450.588 25.1769 447.042 23.4946C443.489 21.8175 439.901 20.229 436.276 18.7238C432.651 17.2238 428.989 15.8123 425.292 14.4894C421.594 13.1665 417.87 11.9321 414.114 10.7967C410.354 9.65609 406.573 8.60921 402.765 7.65609C398.958 6.70296 395.13 5.83838 391.276 5.07275C387.427 4.30713 383.562 3.64046 379.677 3.06234C375.797 2.48421 371.901 2.00504 367.995 1.61963C364.083 1.23421 360.172 0.947755 356.25 0.755046C352.328 0.562338 348.406 0.463379 344.479 0.463379C340.557 0.463379 336.63 0.562338 332.713 0.755046C328.791 0.947755 324.875 1.23421 320.969 1.61963C317.062 2.00504 313.166 2.48421 309.286 3.06234C305.401 3.64046 301.536 4.30713 297.682 5.07275C293.833 5.83838 290.005 6.70296 286.198 7.65609C282.39 8.60921 278.604 9.65609 274.849 10.7967C271.094 11.9321 267.364 13.1665 263.672 14.4894C259.974 15.8123 256.312 17.2238 252.687 18.7238C249.057 20.229 245.469 21.8175 241.922 23.4946C238.375 25.1769 234.87 26.9373 231.406 28.7915C227.943 30.6405 224.531 32.5728 221.161 34.5936C217.797 36.6092 214.479 38.7082 211.213 40.8905C207.953 43.0728 204.745 45.3332 201.588 47.6717C198.437 50.0103 195.344 52.4217 192.307 54.9165C189.271 57.4061 186.302 59.9686 183.39 62.604C180.484 65.2394 177.64 67.9478 174.864 70.7238C172.088 73.4998 169.385 76.3384 166.75 79.2498C164.109 82.1561 161.547 85.13 159.057 88.1665C156.568 91.1978 154.151 94.2915 151.812 97.4478C149.474 100.599 147.213 103.807 145.036 107.073C142.854 110.338 140.755 113.651 138.734 117.021C136.719 120.385 134.781 123.802 132.932 127.265C131.083 130.724 129.318 134.229 127.64 137.781C125.958 141.328 124.37 144.917 122.87 148.542C121.364 152.172 119.953 155.833 118.63 159.526C117.307 163.224 116.078 166.948 114.937 170.708C113.797 174.463 112.75 178.245 111.797 182.052C110.844 185.859 109.984 189.693 109.219 193.542C108.453 197.39 107.781 201.26 107.203 205.14C106.63 209.026 106.151 212.922 105.765 216.828C105.38 220.734 105.088 224.646 104.896 228.568C104.703 232.489 104.609 236.411 104.609 240.338C104.609 308.12 165.281 395.052 224.687 463.864H104.495C103.469 463.87 102.469 464.005 101.479 464.276C100.495 464.552 99.5623 464.948 98.6821 465.474C97.8071 466 97.0155 466.63 96.3071 467.37C95.5988 468.109 94.9998 468.932 94.5155 469.833L1.7342 640.489C1.49461 640.922 1.28628 641.375 1.10399 641.833C0.926905 642.297 0.775863 642.771 0.656072 643.25C0.541488 643.734 0.452948 644.219 0.395656 644.713C0.343572 645.208 0.31753 645.703 0.327947 646.198C0.333155 646.693 0.374822 647.187 0.447739 647.677C0.520655 648.172 0.624823 648.656 0.760239 649.13C0.900864 649.609 1.06232 650.078 1.26024 650.531C1.45816 650.989 1.68211 651.427 1.93732 651.854C2.18732 652.281 2.46857 652.687 2.77586 653.078C3.08316 653.469 3.41128 653.838 3.77066 654.187C4.12482 654.531 4.49982 654.854 4.89566 655.156C5.29149 655.453 5.70295 655.724 6.13524 655.969C6.56753 656.213 7.01545 656.432 7.47378 656.62C7.93211 656.802 8.40607 656.963 8.88524 657.088C9.36441 657.213 9.84878 657.307 10.3436 657.37C10.8332 657.432 11.3279 657.463 11.8227 657.463H677.021C677.521 657.463 678.01 657.432 678.505 657.37C678.995 657.307 679.484 657.213 679.963 657.088C680.443 656.963 680.911 656.802 681.375 656.62C681.833 656.432 682.276 656.213 682.708 655.969C683.14 655.724 683.557 655.453 683.953 655.156C684.349 654.854 684.724 654.531 685.078 654.187C685.432 653.838 685.765 653.469 686.073 653.078C686.375 652.687 686.656 652.281 686.911 651.854C687.167 651.427 687.39 650.989 687.588 650.531C687.781 650.073 687.948 649.609 688.083 649.13C688.219 648.656 688.323 648.172 688.396 647.677C688.469 647.187 688.51 646.693 688.521 646.198C688.531 645.703 688.505 645.208 688.453 644.713C688.396 644.219 688.307 643.734 688.187 643.25C688.073 642.771 687.922 642.297 687.739 641.833C687.562 641.375 687.354 640.922 687.114 640.489L594.333 469.833ZM127.547 240.338C127.547 236.786 127.635 233.239 127.807 229.693C127.984 226.146 128.245 222.609 128.594 219.073C128.937 215.542 129.375 212.021 129.896 208.505C130.416 204.995 131.021 201.5 131.713 198.015C132.406 194.536 133.187 191.073 134.047 187.625C134.911 184.182 135.859 180.76 136.885 177.364C137.916 173.969 139.031 170.599 140.229 167.255C141.422 163.911 142.703 160.599 144.057 157.323C145.416 154.042 146.854 150.797 148.375 147.588C149.89 144.375 151.489 141.208 153.161 138.078C154.833 134.943 156.583 131.854 158.411 128.812C160.234 125.765 162.135 122.765 164.104 119.818C166.078 116.864 168.125 113.963 170.239 111.109C172.354 108.26 174.536 105.458 176.786 102.719C179.041 99.9738 181.359 97.2863 183.745 94.6561C186.125 92.0207 188.573 89.453 191.083 86.9425C193.594 84.4321 196.166 81.9842 198.797 79.5988C201.427 77.2134 204.114 74.8957 206.859 72.6457C209.604 70.3957 212.401 68.2082 215.255 66.0936C218.104 63.979 221.005 61.9373 223.958 59.9634C226.911 57.9894 229.911 56.0936 232.953 54.2655C236 52.4425 239.088 50.6925 242.219 49.0207C245.349 47.3436 248.521 45.7498 251.729 44.2342C254.937 42.7134 258.182 41.2759 261.463 39.9165C264.745 38.5571 268.057 37.2811 271.396 36.0832C274.739 34.8905 278.109 33.7759 281.51 32.7446C284.906 31.7134 288.328 30.7655 291.771 29.9061C295.213 29.0415 298.677 28.2655 302.161 27.5728C305.64 26.88 309.14 26.2707 312.651 25.7498C316.161 25.229 319.682 24.7967 323.219 24.4478C326.75 24.0988 330.291 23.8384 333.838 23.6665C337.38 23.4894 340.932 23.4061 344.479 23.4061C348.031 23.4061 351.578 23.4894 355.125 23.6665C358.672 23.8384 362.213 24.0988 365.745 24.4478C369.276 24.7967 372.802 25.229 376.312 25.7498C379.823 26.2707 383.323 26.88 386.802 27.5728C390.286 28.2655 393.75 29.0415 397.193 29.9061C400.635 30.7655 404.057 31.7134 407.453 32.7446C410.849 33.7759 414.219 34.8905 417.562 36.0832C420.906 37.2811 424.219 38.5571 427.5 39.9165C430.776 41.2759 434.021 42.7134 437.234 44.2342C440.443 45.7498 443.614 47.3436 446.745 49.0207C449.875 50.6925 452.963 52.4425 456.005 54.2655C459.052 56.0936 462.052 57.9894 465.005 59.9634C467.953 61.9373 470.859 63.979 473.708 66.0936C476.562 68.2082 479.359 70.3957 482.104 72.6457C484.849 74.8957 487.536 77.2134 490.167 79.5988C492.797 81.9842 495.364 84.4321 497.875 86.9425C500.385 89.453 502.833 92.0207 505.219 94.6561C507.604 97.2863 509.922 99.9738 512.172 102.719C514.427 105.458 516.609 108.26 518.724 111.109C520.838 113.963 522.885 116.864 524.854 119.818C526.828 122.765 528.729 125.765 530.552 128.812C532.375 131.854 534.125 134.943 535.802 138.078C537.474 141.208 539.068 144.375 540.588 147.588C542.104 150.797 543.542 154.042 544.901 157.323C546.26 160.599 547.536 163.911 548.734 167.255C549.932 170.599 551.042 173.969 552.073 177.364C553.104 180.76 554.052 184.182 554.911 187.625C555.776 191.073 556.552 194.536 557.245 198.015C557.937 201.5 558.547 204.995 559.068 208.505C559.588 212.021 560.021 215.542 560.37 219.073C560.719 222.609 560.979 226.146 561.156 229.693C561.328 233.239 561.417 236.786 561.417 240.338C561.417 347.229 383.76 518 344.422 554.588C305.083 518 127.547 347.344 127.547 240.338ZM31.0936 634.526L111.375 486.807H244.989C291.666 538.073 332.838 575.114 336.739 578.672C337.271 579.13 337.833 579.536 338.437 579.896C339.036 580.25 339.666 580.552 340.323 580.797C340.979 581.042 341.651 581.229 342.338 581.349C343.031 581.474 343.724 581.536 344.422 581.536C345.125 581.536 345.818 581.474 346.505 581.349C347.198 581.229 347.87 581.042 348.526 580.797C349.182 580.552 349.807 580.25 350.411 579.896C351.015 579.536 351.578 579.13 352.109 578.672C356.005 575.114 397.182 538.073 443.859 486.807H577.474L657.755 634.526H31.0936Z" fill="#42526E"/>
</g>
<mask id="mask1_372_6340" style="mask-type:luminance" maskUnits="userSpaceOnUse" x="252" y="146" width="17" height="17">
<path d="M252.151 146.662H268.422V162.932H252.151V146.662Z" fill="white"/>
</mask>
<g mask="url(#mask1_372_6340)">
<mask id="mask2_372_6340" style="mask-type:luminance" maskUnits="userSpaceOnUse" x="252" y="146" width="17" height="17">
<path d="M260.286 146.662C255.797 146.662 252.151 150.302 252.151 154.797C252.151 159.292 255.797 162.932 260.286 162.932C264.781 162.932 268.422 159.292 268.422 154.797C268.422 150.302 264.781 146.662 260.286 146.662Z" fill="white"/>
</mask>
<g mask="url(#mask2_372_6340)">
<path d="M252.151 146.662H268.422V162.932H252.151V146.662Z" fill="#42526E"/>
</g>
</g>
</svg>
