<svg width="992" height="553" viewBox="0 0 992 553" fill="none" xmlns="http://www.w3.org/2000/svg">
<rect width="992" height="553" fill="white"/>
<rect x="38" y="426" width="103" height="91" fill="#D9D9D9"/>
<path d="M50.3287 482.216C49.5007 482.216 48.8407 481.97 48.3487 481.478C47.8687 480.986 47.6287 480.266 47.6287 479.318C47.6287 478.214 47.9407 477.392 48.5647 476.852C49.2007 476.312 50.0287 476.042 51.0487 476.042H53.9647V475.844C53.9647 475.208 53.7907 474.716 53.4427 474.368C53.0947 474.02 52.5247 473.846 51.7327 473.846C51.3487 473.846 51.0067 473.894 50.7067 473.99C50.4067 474.086 50.1367 474.212 49.8967 474.368C49.6687 474.524 49.4647 474.698 49.2847 474.89C49.1167 475.07 48.9667 475.256 48.8347 475.448L47.1247 473.972C47.3527 473.636 47.6167 473.336 47.9167 473.072C48.2167 472.808 48.5587 472.586 48.9427 472.406C49.3387 472.214 49.7827 472.07 50.2747 471.974C50.7787 471.866 51.3487 471.812 51.9847 471.812C53.5087 471.812 54.6607 472.148 55.4407 472.82C56.2327 473.492 56.6287 474.47 56.6287 475.754V482H53.9647V477.554H51.4447C50.9287 477.554 50.5327 477.65 50.2567 477.842C49.9807 478.022 49.8187 478.262 49.7707 478.562C50.0227 478.466 50.2867 478.418 50.5627 478.418C51.0787 478.418 51.5167 478.586 51.8767 478.922C52.2487 479.246 52.4347 479.696 52.4347 480.272C52.4347 480.872 52.2427 481.346 51.8587 481.694C51.4747 482.042 50.9647 482.216 50.3287 482.216ZM50.3827 481.118C50.5987 481.118 50.7787 481.046 50.9227 480.902C51.0667 480.746 51.1387 480.548 51.1387 480.308C51.1387 480.068 51.0667 479.876 50.9227 479.732C50.7787 479.576 50.5987 479.498 50.3827 479.498C50.1667 479.498 49.9867 479.576 49.8427 479.732C49.6987 479.876 49.6267 480.068 49.6267 480.308C49.6267 480.548 49.6987 480.746 49.8427 480.902C49.9867 481.046 50.1667 481.118 50.3827 481.118ZM63.2497 482V475.34C63.2497 474.884 63.1237 474.524 62.8717 474.26C62.6317 473.984 62.2417 473.846 61.7017 473.846C61.1857 473.846 60.7717 473.96 60.4597 474.188C60.1477 474.416 59.8897 474.68 59.6857 474.98L58.1017 473.612C58.4857 473.048 58.9657 472.61 59.5417 472.298C60.1297 471.974 60.9157 471.812 61.8997 471.812C63.2197 471.812 64.2157 472.106 64.8877 472.694C65.5717 473.282 65.9137 474.14 65.9137 475.268V482H63.2497ZM77.3864 482.216C76.8104 482.216 76.3184 482.084 75.9104 481.82C75.5144 481.544 75.2444 481.166 75.1004 480.686L72.4364 482H69.8804V476.114C69.2684 476.054 68.7644 475.838 68.3684 475.466C67.9844 475.094 67.7924 474.596 67.7924 473.972C67.7924 473.3 68.0144 472.772 68.4584 472.388C68.9144 472.004 69.4844 471.812 70.1684 471.812C70.8524 471.812 71.4164 472.016 71.8604 472.424C72.3164 472.82 72.5444 473.372 72.5444 474.08V479.93H72.6524L75.5504 478.508V472.028H78.2144V477.05C78.2144 477.17 78.2024 477.296 78.1784 477.428C78.1664 477.56 78.1184 477.692 78.0344 477.824C78.5504 477.944 78.9644 478.196 79.2764 478.58C79.6004 478.952 79.7624 479.42 79.7624 479.984C79.7624 480.668 79.5404 481.214 79.0964 481.622C78.6524 482.018 78.0824 482.216 77.3864 482.216ZM77.3864 480.938C77.6744 480.938 77.8964 480.86 78.0524 480.704C78.2084 480.548 78.2864 480.356 78.2864 480.128V479.84C78.2864 479.612 78.2084 479.42 78.0524 479.264C77.8964 479.108 77.6744 479.03 77.3864 479.03C77.0984 479.03 76.8764 479.108 76.7204 479.264C76.5644 479.42 76.4864 479.612 76.4864 479.84V480.128C76.4864 480.356 76.5644 480.548 76.7204 480.704C76.8764 480.86 77.0984 480.938 77.3864 480.938ZM70.0964 474.854C70.3364 474.854 70.5344 474.776 70.6904 474.62C70.8464 474.464 70.9244 474.248 70.9244 473.972C70.9244 473.696 70.8464 473.48 70.6904 473.324C70.5344 473.168 70.3364 473.09 70.0964 473.09C69.8564 473.09 69.6584 473.168 69.5024 473.324C69.3464 473.48 69.2684 473.696 69.2684 473.972C69.2684 474.248 69.3464 474.464 69.5024 474.62C69.6584 474.776 69.8564 474.854 70.0964 474.854ZM86.8411 482.216C86.3731 482.216 85.9411 482.156 85.5451 482.036C85.1491 481.928 84.8131 481.766 84.5371 481.55C84.2611 481.334 84.0451 481.076 83.8891 480.776C83.7331 480.476 83.6551 480.134 83.6551 479.75V479.462C82.9951 479.438 82.4491 479.234 82.0171 478.85C81.5971 478.466 81.3871 477.95 81.3871 477.302C81.3871 476.642 81.6151 476.12 82.0711 475.736C82.5271 475.34 83.0971 475.142 83.7811 475.142C84.5011 475.142 85.0771 475.346 85.5091 475.754C85.9531 476.15 86.1751 476.702 86.1751 477.41V479.678C86.1751 479.894 86.2291 480.056 86.3371 480.164C86.4571 480.26 86.6011 480.308 86.7691 480.308C86.9371 480.308 87.0751 480.26 87.1831 480.164C87.3031 480.056 87.3631 479.894 87.3631 479.678V475.952C87.3631 475.268 87.1411 474.746 86.6971 474.386C86.2651 474.026 85.6711 473.846 84.9151 473.846C84.2431 473.846 83.6671 473.972 83.1871 474.224C82.7191 474.476 82.3291 474.806 82.0171 475.214L80.3791 473.756C80.8711 473.168 81.5011 472.7 82.2691 472.352C83.0371 471.992 84.0211 471.812 85.2211 471.812C86.8291 471.812 88.0291 472.16 88.8211 472.856C89.6251 473.54 90.0271 474.47 90.0271 475.646V479.75C90.0271 480.134 89.9491 480.476 89.7931 480.776C89.6371 481.076 89.4211 481.334 89.1451 481.55C88.8691 481.766 88.5331 481.928 88.1371 482.036C87.7411 482.156 87.3091 482.216 86.8411 482.216ZM83.7091 478.184C83.9491 478.184 84.1471 478.106 84.3031 477.95C84.4711 477.794 84.5551 477.578 84.5551 477.302C84.5551 477.026 84.4711 476.81 84.3031 476.654C84.1471 476.498 83.9491 476.42 83.7091 476.42C83.4691 476.42 83.2651 476.498 83.0971 476.654C82.9411 476.81 82.8631 477.026 82.8631 477.302C82.8631 477.578 82.9411 477.794 83.0971 477.95C83.2651 478.106 83.4691 478.184 83.7091 478.184ZM97.2962 482.216C95.8802 482.216 94.7942 481.952 94.0382 481.424C93.2942 480.896 92.9222 480.086 92.9222 478.994V477.68C92.9222 476.912 93.1442 476.294 93.5882 475.826C94.0322 475.346 94.6322 475.106 95.3882 475.106C96.0602 475.106 96.6122 475.298 97.0442 475.682C97.4882 476.066 97.7102 476.594 97.7102 477.266C97.7102 477.902 97.5122 478.412 97.1162 478.796C96.7202 479.168 96.2162 479.378 95.6042 479.426C95.7002 479.93 96.0782 480.182 96.7382 480.182H97.8542C98.2382 480.182 98.5262 480.092 98.7182 479.912C98.9102 479.732 99.0062 479.486 99.0062 479.174V476.078C99.0062 475.382 98.7842 474.836 98.3402 474.44C97.8962 474.044 97.2902 473.846 96.5222 473.846C96.1142 473.846 95.7542 473.888 95.4422 473.972C95.1422 474.056 94.8722 474.17 94.6322 474.314C94.4042 474.446 94.2062 474.596 94.0382 474.764C93.8702 474.932 93.7202 475.1 93.5882 475.268L92.0042 473.81C92.1962 473.546 92.4362 473.294 92.7242 473.054C93.0122 472.802 93.3542 472.586 93.7502 472.406C94.1462 472.226 94.6022 472.082 95.1182 471.974C95.6342 471.866 96.2162 471.812 96.8642 471.812C98.4362 471.812 99.6302 472.178 100.446 472.91C101.262 473.642 101.67 474.674 101.67 476.006V478.994C101.67 480.086 101.292 480.896 100.536 481.424C99.7922 481.952 98.7122 482.216 97.2962 482.216ZM95.4242 478.148C95.6642 478.148 95.8622 478.07 96.0182 477.914C96.1862 477.758 96.2702 477.542 96.2702 477.266C96.2702 476.99 96.1862 476.774 96.0182 476.618C95.8622 476.462 95.6642 476.384 95.4242 476.384C95.1842 476.384 94.9802 476.462 94.8122 476.618C94.6562 476.774 94.5782 476.99 94.5782 477.266C94.5782 477.542 94.6562 477.758 94.8122 477.914C94.9802 478.07 95.1842 478.148 95.4242 478.148ZM104.414 476.114C104.414 475.466 104.534 474.878 104.774 474.35C105.014 473.822 105.356 473.372 105.8 473C106.256 472.616 106.802 472.322 107.438 472.118C108.086 471.914 108.806 471.812 109.598 471.812C110.39 471.812 111.104 471.914 111.74 472.118C112.388 472.322 112.934 472.616 113.378 473C113.834 473.372 114.182 473.822 114.422 474.35C114.662 474.878 114.782 475.466 114.782 476.114V482H112.118V476.294C112.118 475.514 111.896 474.914 111.452 474.494C111.008 474.062 110.39 473.846 109.598 473.846C108.806 473.846 108.188 474.062 107.744 474.494C107.3 474.914 107.078 475.514 107.078 476.294V480.38H107.6L108.194 479.696L108.716 479.246C108.356 479.102 108.068 478.88 107.852 478.58C107.636 478.268 107.528 477.902 107.528 477.482C107.528 476.906 107.72 476.444 108.104 476.096C108.5 475.736 108.998 475.556 109.598 475.556C110.198 475.556 110.69 475.736 111.074 476.096C111.47 476.444 111.668 476.906 111.668 477.482C111.668 477.758 111.614 478.058 111.506 478.382C111.398 478.694 111.206 479.006 110.93 479.318L108.59 482H104.414V476.114ZM109.598 478.274C109.838 478.274 110.018 478.202 110.138 478.058C110.27 477.914 110.336 477.722 110.336 477.482C110.336 477.242 110.27 477.05 110.138 476.906C110.018 476.762 109.838 476.69 109.598 476.69C109.358 476.69 109.172 476.762 109.04 476.906C108.92 477.05 108.86 477.242 108.86 477.482C108.86 477.722 108.92 477.914 109.04 478.058C109.172 478.202 109.358 478.274 109.598 478.274ZM121.867 469.436H127.969C129.013 469.436 129.823 469.73 130.399 470.318C130.987 470.906 131.281 471.686 131.281 472.658C131.281 473.138 131.215 473.546 131.083 473.882C130.963 474.218 130.795 474.494 130.579 474.71C130.375 474.926 130.129 475.088 129.841 475.196C129.565 475.292 129.265 475.346 128.941 475.358V475.466C129.241 475.466 129.553 475.52 129.877 475.628C130.213 475.736 130.519 475.91 130.795 476.15C131.071 476.378 131.299 476.678 131.479 477.05C131.671 477.422 131.767 477.878 131.767 478.418C131.767 478.91 131.683 479.378 131.515 479.822C131.359 480.254 131.137 480.632 130.849 480.956C130.561 481.28 130.219 481.538 129.823 481.73C129.427 481.91 128.995 482 128.527 482H121.867V469.436ZM124.603 479.696H127.753C128.113 479.696 128.395 479.6 128.599 479.408C128.815 479.204 128.923 478.922 128.923 478.562V477.95C128.923 477.59 128.815 477.314 128.599 477.122C128.395 476.918 128.113 476.816 127.753 476.816H124.603V479.696ZM124.603 474.584H127.321C127.681 474.584 127.963 474.482 128.167 474.278C128.371 474.074 128.473 473.792 128.473 473.432V472.892C128.473 472.532 128.371 472.25 128.167 472.046C127.963 471.842 127.681 471.74 127.321 471.74H124.603V474.584Z" fill="black"/>
<line x1="139.588" y1="375.406" x2="71.5879" y2="375.406" stroke="black" stroke-width="5"/>
<line x1="139.588" y1="325.406" x2="71.5879" y2="325.406" stroke="black" stroke-width="5"/>
<line x1="139.588" y1="275.406" x2="71.5879" y2="275.406" stroke="black" stroke-width="5"/>
<line x1="139.588" y1="225.406" x2="71.5879" y2="225.406" stroke="black" stroke-width="5"/>
<line x1="139.588" y1="175.406" x2="71.5879" y2="175.406" stroke="black" stroke-width="5"/>
<line x1="139.588" y1="125.406" x2="71.5879" y2="125.406" stroke="black" stroke-width="5"/>
<path d="M140.767 58.5835L140.767 126.006L71.3072 126.006L71.3072 279.514M140.767 31.7485L36.8064 31.7482L36.8064 279.395" stroke="black" stroke-width="5"/>
<line y1="-2.5" x2="68" y2="-2.5" transform="matrix(-1 -4.37115e-08 -4.37115e-08 1 139.588 177.906)" stroke="black" stroke-width="5"/>
<line y1="-2.5" x2="68" y2="-2.5" transform="matrix(-1 -4.37115e-08 -4.37115e-08 1 139.588 227.906)" stroke="black" stroke-width="5"/>
<line y1="-2.5" x2="68" y2="-2.5" transform="matrix(-1 -4.37115e-08 -4.37115e-08 1 139.588 277.906)" stroke="black" stroke-width="5"/>
<line y1="-2.5" x2="68" y2="-2.5" transform="matrix(-1 -4.37115e-08 -4.37115e-08 1 139.588 327.906)" stroke="black" stroke-width="5"/>
<line y1="-2.5" x2="68" y2="-2.5" transform="matrix(-1 -4.37115e-08 -4.37115e-08 1 139.588 377.906)" stroke="black" stroke-width="5"/>
<line y1="-2.5" x2="68" y2="-2.5" transform="matrix(-1 -4.37115e-08 -4.37115e-08 1 139.588 427.906)" stroke="black" stroke-width="5"/>
<path d="M36.8064 271.417L36.8064 519.064L140.767 519.064L140.767 425L71.3072 425L71.3072 271.299" stroke="black" stroke-width="5"/>
<path d="M332.242 199.915L265.461 199.915L265.461 182.162L434.461 182.162L434.461 199.915L366.742 199.915" stroke="black" stroke-width="5"/>
<line y1="-2.5" x2="68" y2="-2.5" transform="matrix(-1 -4.37115e-08 -4.37115e-08 1 435.982 203.415)" stroke="black" stroke-width="5"/>
<line y1="-2.5" x2="68" y2="-2.5" transform="matrix(-1 -4.37115e-08 -4.37115e-08 1 435.982 253.415)" stroke="black" stroke-width="5"/>
<line y1="-2.5" x2="68" y2="-2.5" transform="matrix(-1 -4.37115e-08 -4.37115e-08 1 435.982 303.415)" stroke="black" stroke-width="5"/>
<line y1="-2.5" x2="68" y2="-2.5" transform="matrix(-1 -4.37115e-08 -4.37115e-08 1 435.982 353.415)" stroke="black" stroke-width="5"/>
<path d="M331.813 197.397L331.813 350.898L264.094 350.898L264.093 368.65L433.093 368.651L433.093 350.898L366.313 350.898L366.313 197.397" stroke="black" stroke-width="5"/>
<line y1="-2.5" x2="68" y2="-2.5" transform="matrix(1 4.37115e-08 4.37115e-08 -1 262.57 347.397)" stroke="black" stroke-width="5"/>
<line y1="-2.5" x2="68" y2="-2.5" transform="matrix(1 4.37115e-08 4.37115e-08 -1 262.57 297.397)" stroke="black" stroke-width="5"/>
<line y1="-2.5" x2="68" y2="-2.5" transform="matrix(1 4.37115e-08 4.37115e-08 -1 262.57 247.397)" stroke="black" stroke-width="5"/>
<line y1="-2.5" x2="68" y2="-2.5" transform="matrix(1 4.37115e-08 4.37115e-08 -1 262.57 197.397)" stroke="black" stroke-width="5"/>
<line x1="494.981" y1="364.906" x2="494.981" y2="185.906" stroke="black" stroke-width="2" stroke-dasharray="10 10"/>
<line x1="202" y1="360" x2="202" y2="181" stroke="black" stroke-width="2" stroke-dasharray="10 10"/>
<path d="M625.652 199.914L558.871 199.914L558.871 182.161L727.871 182.161L727.871 199.914L660.152 199.914" stroke="black" stroke-width="5"/>
<line y1="-2.5" x2="68" y2="-2.5" transform="matrix(-1 -4.37115e-08 -4.37115e-08 1 729.393 203.414)" stroke="black" stroke-width="5"/>
<line y1="-2.5" x2="68" y2="-2.5" transform="matrix(-1 -4.37115e-08 -4.37115e-08 1 729.393 253.414)" stroke="black" stroke-width="5"/>
<line y1="-2.5" x2="68" y2="-2.5" transform="matrix(-1 -4.37115e-08 -4.37115e-08 1 729.393 303.414)" stroke="black" stroke-width="5"/>
<line y1="-2.5" x2="68" y2="-2.5" transform="matrix(-1 -4.37115e-08 -4.37115e-08 1 729.393 353.414)" stroke="black" stroke-width="5"/>
<path d="M625.224 197.397L625.224 350.898L557.505 350.898L557.505 368.65L726.505 368.651L726.505 350.898L659.724 350.898L659.724 197.397" stroke="black" stroke-width="5"/>
<line y1="-2.5" x2="68" y2="-2.5" transform="matrix(1 4.37115e-08 4.37115e-08 -1 555.981 347.397)" stroke="black" stroke-width="5"/>
<line y1="-2.5" x2="68" y2="-2.5" transform="matrix(1 4.37115e-08 4.37115e-08 -1 555.981 297.397)" stroke="black" stroke-width="5"/>
<line y1="-2.5" x2="68" y2="-2.5" transform="matrix(1 4.37115e-08 4.37115e-08 -1 555.981 247.397)" stroke="black" stroke-width="5"/>
<line y1="-2.5" x2="68" y2="-2.5" transform="matrix(1 4.37115e-08 4.37115e-08 -1 555.981 197.397)" stroke="black" stroke-width="5"/>
<line x1="788.393" y1="364.906" x2="788.393" y2="185.906" stroke="black" stroke-width="2" stroke-dasharray="10 10"/>
<line y1="-2.5" x2="68" y2="-2.5" transform="matrix(1 4.37115e-08 4.37115e-08 -1 852.375 372.906)" stroke="black" stroke-width="5"/>
<line y1="-2.5" x2="68" y2="-2.5" transform="matrix(1 4.37115e-08 4.37115e-08 -1 852.375 322.906)" stroke="black" stroke-width="5"/>
<line y1="-2.5" x2="68" y2="-2.5" transform="matrix(1 4.37115e-08 4.37115e-08 -1 852.375 272.906)" stroke="black" stroke-width="5"/>
<line y1="-2.5" x2="68" y2="-2.5" transform="matrix(1 4.37115e-08 4.37115e-08 -1 852.375 222.906)" stroke="black" stroke-width="5"/>
<line y1="-2.5" x2="68" y2="-2.5" transform="matrix(1 4.37115e-08 4.37115e-08 -1 852.375 172.906)" stroke="black" stroke-width="5"/>
<line y1="-2.5" x2="68" y2="-2.5" transform="matrix(1 4.37115e-08 4.37115e-08 -1 852.375 122.906)" stroke="black" stroke-width="5"/>
<path d="M851.196 58.5835L851.196 126.006L920.656 126.006L920.656 279.514M851.196 31.7485L955.157 31.7482L955.157 279.395" stroke="black" stroke-width="5"/>
<line x1="852.375" y1="175.406" x2="920.375" y2="175.406" stroke="black" stroke-width="5"/>
<line x1="852.375" y1="225.406" x2="920.375" y2="225.406" stroke="black" stroke-width="5"/>
<line x1="852.375" y1="275.406" x2="920.375" y2="275.406" stroke="black" stroke-width="5"/>
<line x1="852.375" y1="325.406" x2="920.375" y2="325.406" stroke="black" stroke-width="5"/>
<line x1="852.375" y1="375.406" x2="920.375" y2="375.406" stroke="black" stroke-width="5"/>
<line x1="852.375" y1="425.406" x2="920.375" y2="425.406" stroke="black" stroke-width="5"/>
<path d="M851.196 495L851.196 424.942L920.656 424.942L920.656 271.351M853 520L955.156 520L955.157 271.469" stroke="black" stroke-width="5"/>
<line x1="140" y1="59.5" x2="852" y2="59.5" stroke="black" stroke-width="5"/>
<path d="M265 522V492.5H329H852" stroke="black" stroke-width="5"/>
<path d="M140 32H219.468H854" stroke="black" stroke-width="5"/>
<path d="M262.5 520H330.5H853.5" stroke="black" stroke-width="5"/>
<line x1="203" y1="119" x2="789" y2="119" stroke="black" stroke-width="2" stroke-dasharray="10 10"/>
<line x1="203" y1="427" x2="789" y2="427" stroke="black" stroke-width="2" stroke-dasharray="10 10"/>
<path d="M293.796 230V227.822H297.18V219.398H297.018L294.462 222.746L292.734 221.396L295.74 217.436H299.88V227.822H302.544V230H293.796Z" fill="black"/>
<path d="M302.022 280H293.13V277.534L297 274.222C297.348 273.922 297.642 273.652 297.882 273.412C298.122 273.16 298.314 272.92 298.458 272.692C298.614 272.452 298.722 272.218 298.782 271.99C298.854 271.762 298.89 271.516 298.89 271.252V271C298.89 270.76 298.842 270.55 298.746 270.37C298.65 270.19 298.524 270.04 298.368 269.92C298.212 269.8 298.032 269.71 297.828 269.65C297.636 269.59 297.438 269.56 297.234 269.56C296.934 269.56 296.67 269.608 296.442 269.704C296.226 269.8 296.034 269.932 295.866 270.1C295.71 270.256 295.578 270.442 295.47 270.658C295.362 270.862 295.278 271.084 295.218 271.324L292.86 270.424C293.004 269.992 293.202 269.584 293.454 269.2C293.706 268.804 294.018 268.462 294.39 268.174C294.774 267.874 295.224 267.64 295.74 267.472C296.256 267.304 296.838 267.22 297.486 267.22C298.17 267.22 298.776 267.316 299.304 267.508C299.832 267.7 300.276 267.964 300.636 268.3C301.008 268.636 301.29 269.038 301.482 269.506C301.674 269.962 301.77 270.46 301.77 271C301.77 271.54 301.68 272.032 301.5 272.476C301.32 272.92 301.074 273.34 300.762 273.736C300.462 274.12 300.108 274.486 299.7 274.834C299.292 275.182 298.866 275.536 298.422 275.896L296.082 277.732H302.022V280Z" fill="black"/>
<path d="M296.82 326.404C297.492 326.404 297.978 326.278 298.278 326.026C298.59 325.762 298.746 325.438 298.746 325.054V324.928C298.746 324.472 298.596 324.106 298.296 323.83C298.008 323.554 297.594 323.416 297.054 323.416C296.55 323.416 296.076 323.548 295.632 323.812C295.188 324.064 294.81 324.43 294.498 324.91L292.806 323.326C293.046 323.014 293.304 322.732 293.58 322.48C293.856 322.216 294.168 321.994 294.516 321.814C294.864 321.622 295.254 321.478 295.686 321.382C296.118 321.274 296.604 321.22 297.144 321.22C297.816 321.22 298.422 321.298 298.962 321.454C299.514 321.61 299.982 321.838 300.366 322.138C300.762 322.426 301.062 322.774 301.266 323.182C301.482 323.59 301.59 324.046 301.59 324.55C301.59 324.946 301.524 325.306 301.392 325.63C301.272 325.954 301.098 326.236 300.87 326.476C300.654 326.716 300.402 326.914 300.114 327.07C299.826 327.214 299.52 327.316 299.196 327.376V327.484C299.568 327.556 299.91 327.676 300.222 327.844C300.546 328 300.822 328.204 301.05 328.456C301.29 328.708 301.476 329.008 301.608 329.356C301.74 329.692 301.806 330.076 301.806 330.508C301.806 331.072 301.692 331.582 301.464 332.038C301.236 332.494 300.912 332.884 300.492 333.208C300.072 333.532 299.568 333.784 298.98 333.964C298.392 334.132 297.744 334.216 297.036 334.216C296.4 334.216 295.836 334.15 295.344 334.018C294.852 333.886 294.42 333.712 294.048 333.496C293.688 333.268 293.37 333.01 293.094 332.722C292.83 332.434 292.596 332.128 292.392 331.804L294.39 330.256C294.666 330.772 295.002 331.198 295.398 331.534C295.806 331.858 296.352 332.02 297.036 332.02C297.648 332.02 298.122 331.87 298.458 331.57C298.806 331.258 298.98 330.838 298.98 330.31V330.202C298.98 329.686 298.782 329.302 298.386 329.05C298.002 328.786 297.468 328.654 296.784 328.654H295.65V326.404H296.82Z" fill="black"/>
<path d="M403.17 228V225.588H397.644V223.284L402.54 215.436H405.744V223.5H407.328V225.588H405.744V228H403.17ZM399.804 223.5H403.17V218.226H402.99L399.804 223.5Z" fill="black"/>
<path d="M406.5 269.794H400.794L400.524 273.772H400.668C400.788 273.472 400.92 273.202 401.064 272.962C401.22 272.71 401.4 272.5 401.604 272.332C401.808 272.152 402.054 272.014 402.342 271.918C402.63 271.822 402.972 271.774 403.368 271.774C403.908 271.774 404.412 271.864 404.88 272.044C405.348 272.224 405.756 272.488 406.104 272.836C406.452 273.172 406.728 273.592 406.932 274.096C407.136 274.588 407.238 275.146 407.238 275.77C407.238 276.406 407.13 277 406.914 277.552C406.71 278.092 406.398 278.56 405.978 278.956C405.57 279.352 405.066 279.664 404.466 279.892C403.866 280.108 403.182 280.216 402.414 280.216C401.802 280.216 401.262 280.15 400.794 280.018C400.326 279.886 399.912 279.712 399.552 279.496C399.192 279.268 398.88 279.01 398.616 278.722C398.352 278.434 398.124 278.128 397.932 277.804L399.894 276.256C400.17 276.748 400.5 277.168 400.884 277.516C401.268 277.852 401.784 278.02 402.432 278.02C403.08 278.02 403.566 277.834 403.89 277.462C404.226 277.09 404.394 276.598 404.394 275.986V275.842C404.394 275.266 404.226 274.81 403.89 274.474C403.554 274.138 403.092 273.97 402.504 273.97C402.012 273.97 401.604 274.072 401.28 274.276C400.968 274.468 400.728 274.66 400.56 274.852L398.346 274.546L398.814 267.436H406.5V269.794Z" fill="black"/>
<path d="M402.576 332.216C401.832 332.216 401.166 332.102 400.578 331.874C399.99 331.634 399.492 331.298 399.084 330.866C398.688 330.422 398.382 329.894 398.166 329.282C397.962 328.67 397.86 327.986 397.86 327.23C397.86 326.354 397.992 325.526 398.256 324.746C398.532 323.954 398.88 323.228 399.3 322.568C399.732 321.896 400.212 321.296 400.74 320.768C401.28 320.24 401.82 319.796 402.36 319.436H406.086C405.318 319.988 404.628 320.516 404.016 321.02C403.404 321.512 402.87 322.01 402.414 322.514C401.97 323.018 401.598 323.534 401.298 324.062C401.01 324.578 400.806 325.136 400.686 325.736L400.848 325.79C400.956 325.55 401.082 325.316 401.226 325.088C401.382 324.86 401.568 324.662 401.784 324.494C402.012 324.314 402.276 324.17 402.576 324.062C402.876 323.954 403.224 323.9 403.62 323.9C404.136 323.9 404.616 323.996 405.06 324.188C405.516 324.368 405.906 324.626 406.23 324.962C406.566 325.298 406.824 325.712 407.004 326.204C407.196 326.684 407.292 327.218 407.292 327.806C407.292 328.454 407.178 329.048 406.95 329.588C406.734 330.128 406.416 330.596 405.996 330.992C405.588 331.376 405.096 331.676 404.52 331.892C403.944 332.108 403.296 332.216 402.576 332.216ZM402.576 330.11C403.176 330.11 403.644 329.948 403.98 329.624C404.316 329.288 404.484 328.814 404.484 328.202V327.878C404.484 327.266 404.316 326.798 403.98 326.474C403.644 326.138 403.176 325.97 402.576 325.97C401.976 325.97 401.508 326.138 401.172 326.474C400.836 326.798 400.668 327.266 400.668 327.878V328.202C400.668 328.814 400.836 329.288 401.172 329.624C401.508 329.948 401.976 330.11 402.576 330.11Z" fill="black"/>
<path d="M104.796 155V152.822H108.18V144.398H108.018L105.462 147.746L103.734 146.396L106.74 142.436H110.88V152.822H113.544V155H104.796Z" fill="black"/>
<path d="M113.022 208H104.13V205.534L108 202.222C108.348 201.922 108.642 201.652 108.882 201.412C109.122 201.16 109.314 200.92 109.458 200.692C109.614 200.452 109.722 200.218 109.782 199.99C109.854 199.762 109.89 199.516 109.89 199.252V199C109.89 198.76 109.842 198.55 109.746 198.37C109.65 198.19 109.524 198.04 109.368 197.92C109.212 197.8 109.032 197.71 108.828 197.65C108.636 197.59 108.438 197.56 108.234 197.56C107.934 197.56 107.67 197.608 107.442 197.704C107.226 197.8 107.034 197.932 106.866 198.1C106.71 198.256 106.578 198.442 106.47 198.658C106.362 198.862 106.278 199.084 106.218 199.324L103.86 198.424C104.004 197.992 104.202 197.584 104.454 197.2C104.706 196.804 105.018 196.462 105.39 196.174C105.774 195.874 106.224 195.64 106.74 195.472C107.256 195.304 107.838 195.22 108.486 195.22C109.17 195.22 109.776 195.316 110.304 195.508C110.832 195.7 111.276 195.964 111.636 196.3C112.008 196.636 112.29 197.038 112.482 197.506C112.674 197.962 112.77 198.46 112.77 199C112.77 199.54 112.68 200.032 112.5 200.476C112.32 200.92 112.074 201.34 111.762 201.736C111.462 202.12 111.108 202.486 110.7 202.834C110.292 203.182 109.866 203.536 109.422 203.896L107.082 205.732H113.022V208Z" fill="black"/>
<path d="M107.82 250.404C108.492 250.404 108.978 250.278 109.278 250.026C109.59 249.762 109.746 249.438 109.746 249.054V248.928C109.746 248.472 109.596 248.106 109.296 247.83C109.008 247.554 108.594 247.416 108.054 247.416C107.55 247.416 107.076 247.548 106.632 247.812C106.188 248.064 105.81 248.43 105.498 248.91L103.806 247.326C104.046 247.014 104.304 246.732 104.58 246.48C104.856 246.216 105.168 245.994 105.516 245.814C105.864 245.622 106.254 245.478 106.686 245.382C107.118 245.274 107.604 245.22 108.144 245.22C108.816 245.22 109.422 245.298 109.962 245.454C110.514 245.61 110.982 245.838 111.366 246.138C111.762 246.426 112.062 246.774 112.266 247.182C112.482 247.59 112.59 248.046 112.59 248.55C112.59 248.946 112.524 249.306 112.392 249.63C112.272 249.954 112.098 250.236 111.87 250.476C111.654 250.716 111.402 250.914 111.114 251.07C110.826 251.214 110.52 251.316 110.196 251.376V251.484C110.568 251.556 110.91 251.676 111.222 251.844C111.546 252 111.822 252.204 112.05 252.456C112.29 252.708 112.476 253.008 112.608 253.356C112.74 253.692 112.806 254.076 112.806 254.508C112.806 255.072 112.692 255.582 112.464 256.038C112.236 256.494 111.912 256.884 111.492 257.208C111.072 257.532 110.568 257.784 109.98 257.964C109.392 258.132 108.744 258.216 108.036 258.216C107.4 258.216 106.836 258.15 106.344 258.018C105.852 257.886 105.42 257.712 105.048 257.496C104.688 257.268 104.37 257.01 104.094 256.722C103.83 256.434 103.596 256.128 103.392 255.804L105.39 254.256C105.666 254.772 106.002 255.198 106.398 255.534C106.806 255.858 107.352 256.02 108.036 256.02C108.648 256.02 109.122 255.87 109.458 255.57C109.806 255.258 109.98 254.838 109.98 254.31V254.202C109.98 253.686 109.782 253.302 109.386 253.05C109.002 252.786 108.468 252.654 107.784 252.654H106.65V250.404H107.82Z" fill="black"/>
<path d="M109.17 308V305.588H103.644V303.284L108.54 295.436H111.744V303.5H113.328V305.588H111.744V308H109.17ZM105.804 303.5H109.17V298.226H108.99L105.804 303.5Z" fill="black"/>
<path d="M112.5 350.794H106.794L106.524 354.772H106.668C106.788 354.472 106.92 354.202 107.064 353.962C107.22 353.71 107.4 353.5 107.604 353.332C107.808 353.152 108.054 353.014 108.342 352.918C108.63 352.822 108.972 352.774 109.368 352.774C109.908 352.774 110.412 352.864 110.88 353.044C111.348 353.224 111.756 353.488 112.104 353.836C112.452 354.172 112.728 354.592 112.932 355.096C113.136 355.588 113.238 356.146 113.238 356.77C113.238 357.406 113.13 358 112.914 358.552C112.71 359.092 112.398 359.56 111.978 359.956C111.57 360.352 111.066 360.664 110.466 360.892C109.866 361.108 109.182 361.216 108.414 361.216C107.802 361.216 107.262 361.15 106.794 361.018C106.326 360.886 105.912 360.712 105.552 360.496C105.192 360.268 104.88 360.01 104.616 359.722C104.352 359.434 104.124 359.128 103.932 358.804L105.894 357.256C106.17 357.748 106.5 358.168 106.884 358.516C107.268 358.852 107.784 359.02 108.432 359.02C109.08 359.02 109.566 358.834 109.89 358.462C110.226 358.09 110.394 357.598 110.394 356.986V356.842C110.394 356.266 110.226 355.81 109.89 355.474C109.554 355.138 109.092 354.97 108.504 354.97C108.012 354.97 107.604 355.072 107.28 355.276C106.968 355.468 106.728 355.66 106.56 355.852L104.346 355.546L104.814 348.436H112.5V350.794Z" fill="black"/>
<path d="M108.576 409.216C107.832 409.216 107.166 409.102 106.578 408.874C105.99 408.634 105.492 408.298 105.084 407.866C104.688 407.422 104.382 406.894 104.166 406.282C103.962 405.67 103.86 404.986 103.86 404.23C103.86 403.354 103.992 402.526 104.256 401.746C104.532 400.954 104.88 400.228 105.3 399.568C105.732 398.896 106.212 398.296 106.74 397.768C107.28 397.24 107.82 396.796 108.36 396.436H112.086C111.318 396.988 110.628 397.516 110.016 398.02C109.404 398.512 108.87 399.01 108.414 399.514C107.97 400.018 107.598 400.534 107.298 401.062C107.01 401.578 106.806 402.136 106.686 402.736L106.848 402.79C106.956 402.55 107.082 402.316 107.226 402.088C107.382 401.86 107.568 401.662 107.784 401.494C108.012 401.314 108.276 401.17 108.576 401.062C108.876 400.954 109.224 400.9 109.62 400.9C110.136 400.9 110.616 400.996 111.06 401.188C111.516 401.368 111.906 401.626 112.23 401.962C112.566 402.298 112.824 402.712 113.004 403.204C113.196 403.684 113.292 404.218 113.292 404.806C113.292 405.454 113.178 406.048 112.95 406.588C112.734 407.128 112.416 407.596 111.996 407.992C111.588 408.376 111.096 408.676 110.52 408.892C109.944 409.108 109.296 409.216 108.576 409.216ZM108.576 407.11C109.176 407.11 109.644 406.948 109.98 406.624C110.316 406.288 110.484 405.814 110.484 405.202V404.878C110.484 404.266 110.316 403.798 109.98 403.474C109.644 403.138 109.176 402.97 108.576 402.97C107.976 402.97 107.508 403.138 107.172 403.474C106.836 403.798 106.668 404.266 106.668 404.878V405.202C106.668 405.814 106.836 406.288 107.172 406.624C107.508 406.948 107.976 407.11 108.576 407.11Z" fill="black"/>
<path d="M881.796 155V152.822H885.18V144.398H885.018L882.462 147.746L880.734 146.396L883.74 142.436H887.88V152.822H890.544V155H881.796Z" fill="black"/>
<path d="M890.022 208H881.13V205.534L885 202.222C885.348 201.922 885.642 201.652 885.882 201.412C886.122 201.16 886.314 200.92 886.458 200.692C886.614 200.452 886.722 200.218 886.782 199.99C886.854 199.762 886.89 199.516 886.89 199.252V199C886.89 198.76 886.842 198.55 886.746 198.37C886.65 198.19 886.524 198.04 886.368 197.92C886.212 197.8 886.032 197.71 885.828 197.65C885.636 197.59 885.438 197.56 885.234 197.56C884.934 197.56 884.67 197.608 884.442 197.704C884.226 197.8 884.034 197.932 883.866 198.1C883.71 198.256 883.578 198.442 883.47 198.658C883.362 198.862 883.278 199.084 883.218 199.324L880.86 198.424C881.004 197.992 881.202 197.584 881.454 197.2C881.706 196.804 882.018 196.462 882.39 196.174C882.774 195.874 883.224 195.64 883.74 195.472C884.256 195.304 884.838 195.22 885.486 195.22C886.17 195.22 886.776 195.316 887.304 195.508C887.832 195.7 888.276 195.964 888.636 196.3C889.008 196.636 889.29 197.038 889.482 197.506C889.674 197.962 889.77 198.46 889.77 199C889.77 199.54 889.68 200.032 889.5 200.476C889.32 200.92 889.074 201.34 888.762 201.736C888.462 202.12 888.108 202.486 887.7 202.834C887.292 203.182 886.866 203.536 886.422 203.896L884.082 205.732H890.022V208Z" fill="black"/>
<path d="M884.82 250.404C885.492 250.404 885.978 250.278 886.278 250.026C886.59 249.762 886.746 249.438 886.746 249.054V248.928C886.746 248.472 886.596 248.106 886.296 247.83C886.008 247.554 885.594 247.416 885.054 247.416C884.55 247.416 884.076 247.548 883.632 247.812C883.188 248.064 882.81 248.43 882.498 248.91L880.806 247.326C881.046 247.014 881.304 246.732 881.58 246.48C881.856 246.216 882.168 245.994 882.516 245.814C882.864 245.622 883.254 245.478 883.686 245.382C884.118 245.274 884.604 245.22 885.144 245.22C885.816 245.22 886.422 245.298 886.962 245.454C887.514 245.61 887.982 245.838 888.366 246.138C888.762 246.426 889.062 246.774 889.266 247.182C889.482 247.59 889.59 248.046 889.59 248.55C889.59 248.946 889.524 249.306 889.392 249.63C889.272 249.954 889.098 250.236 888.87 250.476C888.654 250.716 888.402 250.914 888.114 251.07C887.826 251.214 887.52 251.316 887.196 251.376V251.484C887.568 251.556 887.91 251.676 888.222 251.844C888.546 252 888.822 252.204 889.05 252.456C889.29 252.708 889.476 253.008 889.608 253.356C889.74 253.692 889.806 254.076 889.806 254.508C889.806 255.072 889.692 255.582 889.464 256.038C889.236 256.494 888.912 256.884 888.492 257.208C888.072 257.532 887.568 257.784 886.98 257.964C886.392 258.132 885.744 258.216 885.036 258.216C884.4 258.216 883.836 258.15 883.344 258.018C882.852 257.886 882.42 257.712 882.048 257.496C881.688 257.268 881.37 257.01 881.094 256.722C880.83 256.434 880.596 256.128 880.392 255.804L882.39 254.256C882.666 254.772 883.002 255.198 883.398 255.534C883.806 255.858 884.352 256.02 885.036 256.02C885.648 256.02 886.122 255.87 886.458 255.57C886.806 255.258 886.98 254.838 886.98 254.31V254.202C886.98 253.686 886.782 253.302 886.386 253.05C886.002 252.786 885.468 252.654 884.784 252.654H883.65V250.404H884.82Z" fill="black"/>
<path d="M886.17 308V305.588H880.644V303.284L885.54 295.436H888.744V303.5H890.328V305.588H888.744V308H886.17ZM882.804 303.5H886.17V298.226H885.99L882.804 303.5Z" fill="black"/>
<path d="M889.5 350.794H883.794L883.524 354.772H883.668C883.788 354.472 883.92 354.202 884.064 353.962C884.22 353.71 884.4 353.5 884.604 353.332C884.808 353.152 885.054 353.014 885.342 352.918C885.63 352.822 885.972 352.774 886.368 352.774C886.908 352.774 887.412 352.864 887.88 353.044C888.348 353.224 888.756 353.488 889.104 353.836C889.452 354.172 889.728 354.592 889.932 355.096C890.136 355.588 890.238 356.146 890.238 356.77C890.238 357.406 890.13 358 889.914 358.552C889.71 359.092 889.398 359.56 888.978 359.956C888.57 360.352 888.066 360.664 887.466 360.892C886.866 361.108 886.182 361.216 885.414 361.216C884.802 361.216 884.262 361.15 883.794 361.018C883.326 360.886 882.912 360.712 882.552 360.496C882.192 360.268 881.88 360.01 881.616 359.722C881.352 359.434 881.124 359.128 880.932 358.804L882.894 357.256C883.17 357.748 883.5 358.168 883.884 358.516C884.268 358.852 884.784 359.02 885.432 359.02C886.08 359.02 886.566 358.834 886.89 358.462C887.226 358.09 887.394 357.598 887.394 356.986V356.842C887.394 356.266 887.226 355.81 886.89 355.474C886.554 355.138 886.092 354.97 885.504 354.97C885.012 354.97 884.604 355.072 884.28 355.276C883.968 355.468 883.728 355.66 883.56 355.852L881.346 355.546L881.814 348.436H889.5V350.794Z" fill="black"/>
<path d="M885.576 409.216C884.832 409.216 884.166 409.102 883.578 408.874C882.99 408.634 882.492 408.298 882.084 407.866C881.688 407.422 881.382 406.894 881.166 406.282C880.962 405.67 880.86 404.986 880.86 404.23C880.86 403.354 880.992 402.526 881.256 401.746C881.532 400.954 881.88 400.228 882.3 399.568C882.732 398.896 883.212 398.296 883.74 397.768C884.28 397.24 884.82 396.796 885.36 396.436H889.086C888.318 396.988 887.628 397.516 887.016 398.02C886.404 398.512 885.87 399.01 885.414 399.514C884.97 400.018 884.598 400.534 884.298 401.062C884.01 401.578 883.806 402.136 883.686 402.736L883.848 402.79C883.956 402.55 884.082 402.316 884.226 402.088C884.382 401.86 884.568 401.662 884.784 401.494C885.012 401.314 885.276 401.17 885.576 401.062C885.876 400.954 886.224 400.9 886.62 400.9C887.136 400.9 887.616 400.996 888.06 401.188C888.516 401.368 888.906 401.626 889.23 401.962C889.566 402.298 889.824 402.712 890.004 403.204C890.196 403.684 890.292 404.218 890.292 404.806C890.292 405.454 890.178 406.048 889.95 406.588C889.734 407.128 889.416 407.596 888.996 407.992C888.588 408.376 888.096 408.676 887.52 408.892C886.944 409.108 886.296 409.216 885.576 409.216ZM885.576 407.11C886.176 407.11 886.644 406.948 886.98 406.624C887.316 406.288 887.484 405.814 887.484 405.202V404.878C887.484 404.266 887.316 403.798 886.98 403.474C886.644 403.138 886.176 402.97 885.576 402.97C884.976 402.97 884.508 403.138 884.172 403.474C883.836 403.798 883.668 404.266 883.668 404.878V405.202C883.668 405.814 883.836 406.288 884.172 406.624C884.508 406.948 884.976 407.11 885.576 407.11Z" fill="black"/>
<path d="M586.796 226V223.822H590.18V215.398H590.018L587.462 218.746L585.734 217.396L588.74 213.436H592.88V223.822H595.544V226H586.796Z" fill="black"/>
<path d="M595.022 278H586.13V275.534L590 272.222C590.348 271.922 590.642 271.652 590.882 271.412C591.122 271.16 591.314 270.92 591.458 270.692C591.614 270.452 591.722 270.218 591.782 269.99C591.854 269.762 591.89 269.516 591.89 269.252V269C591.89 268.76 591.842 268.55 591.746 268.37C591.65 268.19 591.524 268.04 591.368 267.92C591.212 267.8 591.032 267.71 590.828 267.65C590.636 267.59 590.438 267.56 590.234 267.56C589.934 267.56 589.67 267.608 589.442 267.704C589.226 267.8 589.034 267.932 588.866 268.1C588.71 268.256 588.578 268.442 588.47 268.658C588.362 268.862 588.278 269.084 588.218 269.324L585.86 268.424C586.004 267.992 586.202 267.584 586.454 267.2C586.706 266.804 587.018 266.462 587.39 266.174C587.774 265.874 588.224 265.64 588.74 265.472C589.256 265.304 589.838 265.22 590.486 265.22C591.17 265.22 591.776 265.316 592.304 265.508C592.832 265.7 593.276 265.964 593.636 266.3C594.008 266.636 594.29 267.038 594.482 267.506C594.674 267.962 594.77 268.46 594.77 269C594.77 269.54 594.68 270.032 594.5 270.476C594.32 270.92 594.074 271.34 593.762 271.736C593.462 272.12 593.108 272.486 592.7 272.834C592.292 273.182 591.866 273.536 591.422 273.896L589.082 275.732H595.022V278Z" fill="black"/>
<path d="M589.82 322.404C590.492 322.404 590.978 322.278 591.278 322.026C591.59 321.762 591.746 321.438 591.746 321.054V320.928C591.746 320.472 591.596 320.106 591.296 319.83C591.008 319.554 590.594 319.416 590.054 319.416C589.55 319.416 589.076 319.548 588.632 319.812C588.188 320.064 587.81 320.43 587.498 320.91L585.806 319.326C586.046 319.014 586.304 318.732 586.58 318.48C586.856 318.216 587.168 317.994 587.516 317.814C587.864 317.622 588.254 317.478 588.686 317.382C589.118 317.274 589.604 317.22 590.144 317.22C590.816 317.22 591.422 317.298 591.962 317.454C592.514 317.61 592.982 317.838 593.366 318.138C593.762 318.426 594.062 318.774 594.266 319.182C594.482 319.59 594.59 320.046 594.59 320.55C594.59 320.946 594.524 321.306 594.392 321.63C594.272 321.954 594.098 322.236 593.87 322.476C593.654 322.716 593.402 322.914 593.114 323.07C592.826 323.214 592.52 323.316 592.196 323.376V323.484C592.568 323.556 592.91 323.676 593.222 323.844C593.546 324 593.822 324.204 594.05 324.456C594.29 324.708 594.476 325.008 594.608 325.356C594.74 325.692 594.806 326.076 594.806 326.508C594.806 327.072 594.692 327.582 594.464 328.038C594.236 328.494 593.912 328.884 593.492 329.208C593.072 329.532 592.568 329.784 591.98 329.964C591.392 330.132 590.744 330.216 590.036 330.216C589.4 330.216 588.836 330.15 588.344 330.018C587.852 329.886 587.42 329.712 587.048 329.496C586.688 329.268 586.37 329.01 586.094 328.722C585.83 328.434 585.596 328.128 585.392 327.804L587.39 326.256C587.666 326.772 588.002 327.198 588.398 327.534C588.806 327.858 589.352 328.02 590.036 328.02C590.648 328.02 591.122 327.87 591.458 327.57C591.806 327.258 591.98 326.838 591.98 326.31V326.202C591.98 325.686 591.782 325.302 591.386 325.05C591.002 324.786 590.468 324.654 589.784 324.654H588.65V322.404H589.82Z" fill="black"/>
<path d="M696.17 226V223.588H690.644V221.284L695.54 213.436H698.744V221.5H700.328V223.588H698.744V226H696.17ZM692.804 221.5H696.17V216.226H695.99L692.804 221.5Z" fill="black"/>
<path d="M699.5 267.794H693.794L693.524 271.772H693.668C693.788 271.472 693.92 271.202 694.064 270.962C694.22 270.71 694.4 270.5 694.604 270.332C694.808 270.152 695.054 270.014 695.342 269.918C695.63 269.822 695.972 269.774 696.368 269.774C696.908 269.774 697.412 269.864 697.88 270.044C698.348 270.224 698.756 270.488 699.104 270.836C699.452 271.172 699.728 271.592 699.932 272.096C700.136 272.588 700.238 273.146 700.238 273.77C700.238 274.406 700.13 275 699.914 275.552C699.71 276.092 699.398 276.56 698.978 276.956C698.57 277.352 698.066 277.664 697.466 277.892C696.866 278.108 696.182 278.216 695.414 278.216C694.802 278.216 694.262 278.15 693.794 278.018C693.326 277.886 692.912 277.712 692.552 277.496C692.192 277.268 691.88 277.01 691.616 276.722C691.352 276.434 691.124 276.128 690.932 275.804L692.894 274.256C693.17 274.748 693.5 275.168 693.884 275.516C694.268 275.852 694.784 276.02 695.432 276.02C696.08 276.02 696.566 275.834 696.89 275.462C697.226 275.09 697.394 274.598 697.394 273.986V273.842C697.394 273.266 697.226 272.81 696.89 272.474C696.554 272.138 696.092 271.97 695.504 271.97C695.012 271.97 694.604 272.072 694.28 272.276C693.968 272.468 693.728 272.66 693.56 272.852L691.346 272.546L691.814 265.436H699.5V267.794Z" fill="black"/>
<path d="M695.576 330.216C694.832 330.216 694.166 330.102 693.578 329.874C692.99 329.634 692.492 329.298 692.084 328.866C691.688 328.422 691.382 327.894 691.166 327.282C690.962 326.67 690.86 325.986 690.86 325.23C690.86 324.354 690.992 323.526 691.256 322.746C691.532 321.954 691.88 321.228 692.3 320.568C692.732 319.896 693.212 319.296 693.74 318.768C694.28 318.24 694.82 317.796 695.36 317.436H699.086C698.318 317.988 697.628 318.516 697.016 319.02C696.404 319.512 695.87 320.01 695.414 320.514C694.97 321.018 694.598 321.534 694.298 322.062C694.01 322.578 693.806 323.136 693.686 323.736L693.848 323.79C693.956 323.55 694.082 323.316 694.226 323.088C694.382 322.86 694.568 322.662 694.784 322.494C695.012 322.314 695.276 322.17 695.576 322.062C695.876 321.954 696.224 321.9 696.62 321.9C697.136 321.9 697.616 321.996 698.06 322.188C698.516 322.368 698.906 322.626 699.23 322.962C699.566 323.298 699.824 323.712 700.004 324.204C700.196 324.684 700.292 325.218 700.292 325.806C700.292 326.454 700.178 327.048 699.95 327.588C699.734 328.128 699.416 328.596 698.996 328.992C698.588 329.376 698.096 329.676 697.52 329.892C696.944 330.108 696.296 330.216 695.576 330.216ZM695.576 328.11C696.176 328.11 696.644 327.948 696.98 327.624C697.316 327.288 697.484 326.814 697.484 326.202V325.878C697.484 325.266 697.316 324.798 696.98 324.474C696.644 324.138 696.176 323.97 695.576 323.97C694.976 323.97 694.508 324.138 694.172 324.474C693.836 324.798 693.668 325.266 693.668 325.878V326.202C693.668 326.814 693.836 327.288 694.172 327.624C694.508 327.948 694.976 328.11 695.576 328.11Z" fill="black"/>
<path d="M56.4649 280L55.5649 277.012H51.3709L50.4709 280H47.6989L51.8389 267.436H55.2229L59.3089 280H56.4649ZM53.4949 269.92H53.4049L52.0189 274.69H54.8989L53.4949 269.92Z" fill="black"/>
<path d="M345.883 263.436H351.985C353.029 263.436 353.839 263.73 354.415 264.318C355.003 264.906 355.297 265.686 355.297 266.658C355.297 267.138 355.231 267.546 355.099 267.882C354.979 268.218 354.811 268.494 354.595 268.71C354.391 268.926 354.145 269.088 353.857 269.196C353.581 269.292 353.281 269.346 352.957 269.358V269.466C353.257 269.466 353.569 269.52 353.893 269.628C354.229 269.736 354.535 269.91 354.811 270.15C355.087 270.378 355.315 270.678 355.495 271.05C355.687 271.422 355.783 271.878 355.783 272.418C355.783 272.91 355.699 273.378 355.531 273.822C355.375 274.254 355.153 274.632 354.865 274.956C354.577 275.28 354.235 275.538 353.839 275.73C353.443 275.91 353.011 276 352.543 276H345.883V263.436ZM348.619 273.696H351.769C352.129 273.696 352.411 273.6 352.615 273.408C352.831 273.204 352.939 272.922 352.939 272.562V271.95C352.939 271.59 352.831 271.314 352.615 271.122C352.411 270.918 352.129 270.816 351.769 270.816H348.619V273.696ZM348.619 268.584H351.337C351.697 268.584 351.979 268.482 352.183 268.278C352.387 268.074 352.489 267.792 352.489 267.432V266.892C352.489 266.532 352.387 266.25 352.183 266.046C351.979 265.842 351.697 265.74 351.337 265.74H348.619V268.584Z" fill="black"/>
<path d="M643.6 276.216C642.748 276.216 641.98 276.084 641.296 275.82C640.612 275.544 640.03 275.142 639.55 274.614C639.07 274.074 638.698 273.408 638.434 272.616C638.17 271.812 638.038 270.876 638.038 269.808C638.038 268.752 638.17 267.816 638.434 267C638.698 266.172 639.07 265.482 639.55 264.93C640.03 264.366 640.612 263.94 641.296 263.652C641.98 263.364 642.748 263.22 643.6 263.22C644.764 263.22 645.724 263.46 646.48 263.94C647.236 264.408 647.842 265.152 648.298 266.172L645.94 267.396C645.772 266.868 645.508 266.448 645.148 266.136C644.8 265.812 644.284 265.65 643.6 265.65C642.796 265.65 642.148 265.914 641.656 266.442C641.176 266.958 640.936 267.714 640.936 268.71V270.726C640.936 271.722 641.176 272.484 641.656 273.012C642.148 273.528 642.796 273.786 643.6 273.786C644.272 273.786 644.806 273.606 645.202 273.246C645.61 272.874 645.91 272.43 646.102 271.914L648.334 273.21C647.866 274.17 647.248 274.914 646.48 275.442C645.724 275.958 644.764 276.216 643.6 276.216Z" fill="black"/>
<path d="M935.611 263.436H940.345C941.173 263.436 941.929 263.568 942.613 263.832C943.297 264.096 943.879 264.492 944.359 265.02C944.839 265.536 945.211 266.19 945.475 266.982C945.739 267.762 945.871 268.674 945.871 269.718C945.871 270.762 945.739 271.68 945.475 272.472C945.211 273.252 944.839 273.906 944.359 274.434C943.879 274.95 943.297 275.34 942.613 275.604C941.929 275.868 941.173 276 940.345 276H935.611V263.436ZM940.345 273.57C941.161 273.57 941.803 273.342 942.271 272.886C942.739 272.43 942.973 271.698 942.973 270.69V268.746C942.973 267.738 942.739 267.006 942.271 266.55C941.803 266.094 941.161 265.866 940.345 265.866H938.347V273.57H940.345Z" fill="black"/>
<rect x="146" y="469" width="57" height="51.9854" fill="#D9D9D9"/>
<path d="M164.306 502.216C163.622 502.216 163.052 502.018 162.596 501.622C162.152 501.214 161.93 500.656 161.93 499.948V492.028H164.594V497.914C165.206 497.974 165.704 498.196 166.088 498.58C166.484 498.952 166.682 499.444 166.682 500.056C166.682 500.728 166.454 501.256 165.998 501.64C165.554 502.024 164.99 502.216 164.306 502.216ZM164.378 500.938C164.618 500.938 164.816 500.86 164.972 500.704C165.128 500.548 165.206 500.332 165.206 500.056C165.206 499.78 165.128 499.564 164.972 499.408C164.816 499.252 164.618 499.174 164.378 499.174C164.138 499.174 163.94 499.252 163.784 499.408C163.628 499.564 163.55 499.78 163.55 500.056C163.55 500.332 163.628 500.548 163.784 500.704C163.94 500.86 164.138 500.938 164.378 500.938ZM173.222 502.216C171.938 502.216 170.924 501.958 170.18 501.442C169.436 500.914 169.064 500.206 169.064 499.318C169.064 499.066 169.088 498.832 169.136 498.616C169.196 498.388 169.286 498.166 169.406 497.95C169.526 497.734 169.676 497.512 169.856 497.284C170.048 497.056 170.276 496.816 170.54 496.564C170.732 496.372 170.9 496.198 171.044 496.042C171.188 495.886 171.302 495.736 171.386 495.592C171.482 495.436 171.554 495.28 171.602 495.124C171.65 494.968 171.674 494.788 171.674 494.584C171.674 494.2 171.536 493.858 171.26 493.558C170.996 493.258 170.564 493.108 169.964 493.108C169.748 493.108 169.562 493.126 169.406 493.162L169.424 493.252H169.604C170 493.252 170.33 493.372 170.594 493.612C170.87 493.852 171.008 494.2 171.008 494.656C171.008 495.16 170.834 495.574 170.486 495.898C170.15 496.222 169.712 496.384 169.172 496.384C168.632 496.384 168.182 496.21 167.822 495.862C167.462 495.514 167.282 495.034 167.282 494.422C167.282 493.642 167.564 493.012 168.128 492.532C168.704 492.052 169.484 491.812 170.468 491.812C171.488 491.812 172.298 492.046 172.898 492.514C173.498 492.982 173.798 493.648 173.798 494.512C173.798 494.932 173.726 495.346 173.582 495.754C173.438 496.162 173.162 496.594 172.754 497.05C172.346 497.506 172.07 497.86 171.926 498.112C171.794 498.364 171.728 498.592 171.728 498.796V498.958C171.728 499.306 171.848 499.6 172.088 499.84C172.34 500.068 172.718 500.182 173.222 500.182C173.726 500.182 174.128 500.032 174.428 499.732C174.74 499.42 174.896 499.036 174.896 498.58V492.028H177.56V498.562C177.56 499.138 177.452 499.654 177.236 500.11C177.032 500.554 176.738 500.938 176.354 501.262C175.97 501.574 175.508 501.814 174.968 501.982C174.44 502.138 173.858 502.216 173.222 502.216ZM169.172 495.286C169.388 495.286 169.562 495.22 169.694 495.088C169.838 494.956 169.91 494.77 169.91 494.53C169.91 494.29 169.838 494.104 169.694 493.972C169.562 493.84 169.388 493.774 169.172 493.774C168.956 493.774 168.776 493.84 168.632 493.972C168.5 494.104 168.434 494.29 168.434 494.53C168.434 494.77 168.5 494.956 168.632 495.088C168.776 495.22 168.956 495.286 169.172 495.286ZM172.731 489.49L173.811 488.86V488.842C173.403 488.734 173.085 488.548 172.857 488.284C172.629 488.008 172.515 487.666 172.515 487.258C172.515 486.682 172.713 486.226 173.109 485.89C173.493 485.542 174.027 485.368 174.711 485.368C175.395 485.368 175.935 485.542 176.331 485.89C176.715 486.226 176.907 486.682 176.907 487.258C176.907 487.606 176.817 487.912 176.637 488.176C176.445 488.428 176.163 488.62 175.791 488.752V488.896H177.969L178.761 486.52H180.939L179.985 488.644C179.829 488.98 179.679 489.256 179.535 489.472C179.391 489.688 179.229 489.862 179.049 489.994C178.869 490.114 178.665 490.198 178.437 490.246C178.197 490.294 177.915 490.318 177.591 490.318H172.731V489.49ZM174.711 488.068C174.951 488.068 175.137 487.996 175.269 487.852C175.389 487.708 175.449 487.516 175.449 487.276C175.449 487.036 175.389 486.844 175.269 486.7C175.137 486.556 174.951 486.484 174.711 486.484C174.471 486.484 174.291 486.556 174.171 486.7C174.039 486.844 173.973 487.036 173.973 487.276C173.973 487.516 174.039 487.708 174.171 487.852C174.291 487.996 174.471 488.068 174.711 488.068ZM184.399 502V495.34C184.399 494.884 184.273 494.524 184.021 494.26C183.781 493.984 183.391 493.846 182.851 493.846C182.335 493.846 181.921 493.96 181.609 494.188C181.297 494.416 181.039 494.68 180.835 494.98L179.251 493.612C179.635 493.048 180.115 492.61 180.691 492.298C181.279 491.974 182.065 491.812 183.049 491.812C184.369 491.812 185.365 492.106 186.037 492.694C186.721 493.282 187.063 494.14 187.063 495.268V502H184.399Z" fill="black"/>
<rect x="206" y="469" width="57" height="53" fill="#D9D9D9"/>
<path d="M222.144 502.216C220.728 502.216 219.642 501.952 218.886 501.424C218.142 500.896 217.77 500.086 217.77 498.994V497.68C217.77 496.912 217.992 496.294 218.436 495.826C218.88 495.346 219.48 495.106 220.236 495.106C220.908 495.106 221.46 495.298 221.892 495.682C222.336 496.066 222.558 496.594 222.558 497.266C222.558 497.902 222.36 498.412 221.964 498.796C221.568 499.168 221.064 499.378 220.452 499.426C220.548 499.93 220.926 500.182 221.586 500.182H222.702C223.086 500.182 223.374 500.092 223.566 499.912C223.758 499.732 223.854 499.486 223.854 499.174V496.078C223.854 495.382 223.632 494.836 223.188 494.44C222.744 494.044 222.138 493.846 221.37 493.846C220.962 493.846 220.602 493.888 220.29 493.972C219.99 494.056 219.72 494.17 219.48 494.314C219.252 494.446 219.054 494.596 218.886 494.764C218.718 494.932 218.568 495.1 218.436 495.268L216.852 493.81C217.044 493.546 217.284 493.294 217.572 493.054C217.86 492.802 218.202 492.586 218.598 492.406C218.994 492.226 219.45 492.082 219.966 491.974C220.482 491.866 221.064 491.812 221.712 491.812C223.284 491.812 224.478 492.178 225.294 492.91C226.11 493.642 226.518 494.674 226.518 496.006V498.994C226.518 500.086 226.14 500.896 225.384 501.424C224.64 501.952 223.56 502.216 222.144 502.216ZM220.272 498.148C220.512 498.148 220.71 498.07 220.866 497.914C221.034 497.758 221.118 497.542 221.118 497.266C221.118 496.99 221.034 496.774 220.866 496.618C220.71 496.462 220.512 496.384 220.272 496.384C220.032 496.384 219.828 496.462 219.66 496.618C219.504 496.774 219.426 496.99 219.426 497.266C219.426 497.542 219.504 497.758 219.66 497.914C219.828 498.07 220.032 498.148 220.272 498.148ZM233.658 502.216C232.242 502.216 231.156 501.952 230.4 501.424C229.656 500.896 229.284 500.086 229.284 498.994V497.68C229.284 496.912 229.506 496.294 229.95 495.826C230.394 495.346 230.994 495.106 231.75 495.106C232.422 495.106 232.974 495.298 233.406 495.682C233.85 496.066 234.072 496.594 234.072 497.266C234.072 497.902 233.874 498.412 233.478 498.796C233.082 499.168 232.578 499.378 231.966 499.426C232.062 499.93 232.44 500.182 233.1 500.182H234.216C234.6 500.182 234.888 500.092 235.08 499.912C235.272 499.732 235.368 499.486 235.368 499.174V496.078C235.368 495.382 235.146 494.836 234.702 494.44C234.258 494.044 233.652 493.846 232.884 493.846C232.476 493.846 232.116 493.888 231.804 493.972C231.504 494.056 231.234 494.17 230.994 494.314C230.766 494.446 230.568 494.596 230.4 494.764C230.232 494.932 230.082 495.1 229.95 495.268L228.366 493.81C228.558 493.546 228.798 493.294 229.086 493.054C229.374 492.802 229.716 492.586 230.112 492.406C230.508 492.226 230.964 492.082 231.48 491.974C231.996 491.866 232.578 491.812 233.226 491.812C234.798 491.812 235.992 492.178 236.808 492.91C237.624 493.642 238.032 494.674 238.032 496.006V498.994C238.032 500.086 237.654 500.896 236.898 501.424C236.154 501.952 235.074 502.216 233.658 502.216ZM231.786 498.148C232.026 498.148 232.224 498.07 232.38 497.914C232.548 497.758 232.632 497.542 232.632 497.266C232.632 496.99 232.548 496.774 232.38 496.618C232.224 496.462 232.026 496.384 231.786 496.384C231.546 496.384 231.342 496.462 231.174 496.618C231.018 496.774 230.94 496.99 230.94 497.266C230.94 497.542 231.018 497.758 231.174 497.914C231.342 498.07 231.546 498.148 231.786 498.148ZM241.711 496.762L240.127 496.114C240.187 495.454 240.355 494.86 240.631 494.332C240.919 493.804 241.291 493.354 241.747 492.982C242.215 492.61 242.761 492.322 243.385 492.118C244.009 491.914 244.693 491.812 245.437 491.812C246.205 491.812 246.895 491.914 247.507 492.118C248.131 492.31 248.659 492.592 249.091 492.964C249.523 493.324 249.853 493.768 250.081 494.296C250.309 494.812 250.423 495.388 250.423 496.024V502H247.759V496.366C247.759 495.994 247.705 495.652 247.597 495.34C247.501 495.016 247.345 494.734 247.129 494.494C246.925 494.254 246.661 494.068 246.337 493.936C246.025 493.792 245.653 493.72 245.221 493.72C244.609 493.72 244.069 493.858 243.601 494.134C243.133 494.41 242.797 494.752 242.593 495.16L243.259 495.412C243.691 495.58 243.985 495.772 244.141 495.988C244.297 496.204 244.375 496.528 244.375 496.96V502H241.711V496.762Z" fill="black"/>
</svg>
