<svg width="750" height="500" viewBox="0 0 750 500" fill="none" xmlns="http://www.w3.org/2000/svg">
<path d="M77.0098 142.81H128.72V205.6H142.02V170.05H207.77V226.34H216.47V94.25H273.61V130.51H302.9V175.61H311.77V147.25H363.71V231.91H378.91V163.08H426.42V110.81H458.72V81.03H496.09V213.08H508.65V157.98H570.2V236.85H578.72V172.47H641.14V114.47H672.99V337.29H77.0098V142.81Z" fill="#EBEBEB"/>
<path d="M92.0996 150.71H83.3496V162.71H92.0996V150.71Z" fill="white"/>
<path d="M107.27 150.71H98.5195V162.71H107.27V150.71Z" fill="white"/>
<path d="M122.43 150.71H113.68V162.71H122.43V150.71Z" fill="white"/>
<path d="M92.0996 168.77H83.3496V180.77H92.0996V168.77Z" fill="white"/>
<path d="M107.27 168.77H98.5195V180.77H107.27V168.77Z" fill="white"/>
<path d="M122.43 168.77H113.68V180.77H122.43V168.77Z" fill="white"/>
<path d="M92.0996 186.83H83.3496V198.83H92.0996V186.83Z" fill="white"/>
<path d="M107.27 186.83H98.5195V198.83H107.27V186.83Z" fill="white"/>
<path d="M122.43 186.83H113.68V198.83H122.43V186.83Z" fill="white"/>
<path d="M92.0996 204.89H83.3496V216.89H92.0996V204.89Z" fill="white"/>
<path d="M107.27 204.89H98.5195V216.89H107.27V204.89Z" fill="white"/>
<path d="M122.43 204.89H113.68V216.89H122.43V204.89Z" fill="white"/>
<path d="M394.96 171.66H386.21V181.67H394.96V171.66Z" fill="white"/>
<path d="M410.12 171.66H401.37V181.67H410.12V171.66Z" fill="white"/>
<path d="M425.279 171.66H416.529V181.67H425.279V171.66Z" fill="white"/>
<path d="M394.96 186.73H386.21V196.74H394.96V186.73Z" fill="white"/>
<path d="M410.12 186.73H401.37V196.74H410.12V186.73Z" fill="white"/>
<path d="M425.279 186.73H416.529V196.74H425.279V186.73Z" fill="white"/>
<path d="M394.96 201.8H386.21V211.81H394.96V201.8Z" fill="white"/>
<path d="M410.12 201.8H401.37V211.81H410.12V201.8Z" fill="white"/>
<path d="M425.279 201.8H416.529V211.81H425.279V201.8Z" fill="white"/>
<path d="M394.96 216.86H386.21V226.87H394.96V216.86Z" fill="white"/>
<path d="M410.12 216.86H401.37V226.87H410.12V216.86Z" fill="white"/>
<path d="M425.279 216.86H416.529V226.87H425.279V216.86Z" fill="white"/>
<path d="M394.96 232.31H386.21V242.32H394.96V232.31Z" fill="white"/>
<path d="M410.12 232.31H401.37V242.32H410.12V232.31Z" fill="white"/>
<path d="M425.279 232.31H416.529V242.32H425.279V232.31Z" fill="white"/>
<path d="M394.96 247.75H386.21V257.76H394.96V247.75Z" fill="white"/>
<path d="M410.12 247.75H401.37V257.76H410.12V247.75Z" fill="white"/>
<path d="M425.279 247.75H416.529V257.76H425.279V247.75Z" fill="white"/>
<path d="M394.96 263.19H386.21V273.2H394.96V263.19Z" fill="white"/>
<path d="M410.12 263.19H401.37V273.2H410.12V263.19Z" fill="white"/>
<path d="M425.279 263.19H416.529V273.2H425.279V263.19Z" fill="white"/>
<path d="M394.96 278.63H386.21V288.64H394.96V278.63Z" fill="white"/>
<path d="M410.12 278.63H401.37V288.64H410.12V278.63Z" fill="white"/>
<path d="M425.279 278.63H416.529V288.64H425.279V278.63Z" fill="white"/>
<path d="M199.85 177.75H149.49V185.26H199.85V177.75Z" fill="white"/>
<path d="M199.85 192.32H149.49V199.83H199.85V192.32Z" fill="white"/>
<path d="M199.85 206.89H149.49V214.4H199.85V206.89Z" fill="white"/>
<path d="M199.85 221.45H149.49V228.96H199.85V221.45Z" fill="white"/>
<path d="M199.85 236.02H149.49V243.53H199.85V236.02Z" fill="white"/>
<path d="M199.85 250.59H149.49V258.1H199.85V250.59Z" fill="white"/>
<path d="M199.85 265.16H149.49V272.67H199.85V265.16Z" fill="white"/>
<path d="M199.85 279.72H149.49V287.23H199.85V279.72Z" fill="white"/>
<path d="M562.39 164.98H516.09V172.49H562.39V164.98Z" fill="white"/>
<path d="M562.39 179.55H516.09V187.06H562.39V179.55Z" fill="white"/>
<path d="M562.39 194.11H516.09V201.62H562.39V194.11Z" fill="white"/>
<path d="M562.39 208.68H516.09V216.19H562.39V208.68Z" fill="white"/>
<path d="M562.39 223.25H516.09V230.76H562.39V223.25Z" fill="white"/>
<path d="M562.39 237.81H516.09V245.32H562.39V237.81Z" fill="white"/>
<path d="M562.39 252.38H516.09V259.89H562.39V252.38Z" fill="white"/>
<path d="M562.39 266.95H516.09V274.46H562.39V266.95Z" fill="white"/>
<path d="M562.39 280.79H516.09V288.3H562.39V280.79Z" fill="white"/>
<path d="M562.39 294.63H516.09V302.14H562.39V294.63Z" fill="white"/>
<path d="M562.39 308.47H516.09V315.98H562.39V308.47Z" fill="white"/>
<path d="M562.39 322.32H516.09V329.83H562.39V322.32Z" fill="white"/>
<path d="M637.26 182.57H588.35V190.08H637.26V182.57Z" fill="white"/>
<path d="M637.26 197.14H588.35V204.65H637.26V197.14Z" fill="white"/>
<path d="M637.26 211.71H588.35V219.22H637.26V211.71Z" fill="white"/>
<path d="M637.26 226.28H588.35V233.79H637.26V226.28Z" fill="white"/>
<path d="M637.26 240.84H588.35V248.35H637.26V240.84Z" fill="white"/>
<path d="M637.26 255.41H588.35V262.92H637.26V255.41Z" fill="white"/>
<path d="M637.26 269.98H588.35V277.49H637.26V269.98Z" fill="white"/>
<path d="M637.26 284.54H588.35V292.05H637.26V284.54Z" fill="white"/>
<path d="M637.26 297.58H588.35V305.09H637.26V297.58Z" fill="white"/>
<path d="M637.26 310.62H588.35V318.13H637.26V310.62Z" fill="white"/>
<path d="M637.26 323.66H588.35V331.17H637.26V323.66Z" fill="white"/>
<path d="M342.52 154.04H326.97V161.29H342.52V154.04Z" fill="white"/>
<path d="M342.52 168.11H326.97V175.36H342.52V168.11Z" fill="white"/>
<path d="M342.52 182.18H326.97V189.43H342.52V182.18Z" fill="white"/>
<path d="M342.52 196.25H326.97V203.5H342.52V196.25Z" fill="white"/>
<path d="M342.52 210.31H326.97V217.56H342.52V210.31Z" fill="white"/>
<path d="M342.52 224.38H326.97V231.63H342.52V224.38Z" fill="white"/>
<path d="M342.52 238.45H326.97V245.7H342.52V238.45Z" fill="white"/>
<path d="M342.52 252.52H326.97V259.77H342.52V252.52Z" fill="white"/>
<path d="M363.68 154.04H348.13V161.29H363.68V154.04Z" fill="white"/>
<path d="M363.68 168.11H348.13V175.36H363.68V168.11Z" fill="white"/>
<path d="M363.68 182.18H348.13V189.43H363.68V182.18Z" fill="white"/>
<path d="M363.68 196.25H348.13V203.5H363.68V196.25Z" fill="white"/>
<path d="M363.68 210.31H348.13V217.56H363.68V210.31Z" fill="white"/>
<path d="M363.68 224.38H348.13V231.63H363.68V224.38Z" fill="white"/>
<path d="M363.68 238.45H348.13V245.7H363.68V238.45Z" fill="white"/>
<path d="M363.68 252.52H348.13V259.77H363.68V252.52Z" fill="white"/>
<path d="M241.34 101.85H225.14V113.28H241.34V101.85Z" fill="white"/>
<path d="M265.49 101.85H249.29V113.28H265.49V101.85Z" fill="white"/>
<path d="M241.34 118.65H225.14V130.08H241.34V118.65Z" fill="white"/>
<path d="M265.49 118.65H249.29V130.08H265.49V118.65Z" fill="white"/>
<path d="M241.34 135.44H225.14V146.87H241.34V135.44Z" fill="white"/>
<path d="M265.49 135.44H249.29V146.87H265.49V135.44Z" fill="white"/>
<path d="M241.34 152.24H225.14V163.67H241.34V152.24Z" fill="white"/>
<path d="M265.49 152.24H249.29V163.67H265.49V152.24Z" fill="white"/>
<path d="M241.34 169.04H225.14V180.47H241.34V169.04Z" fill="white"/>
<path d="M265.49 169.04H249.29V180.47H265.49V169.04Z" fill="white"/>
<path d="M241.34 185.83H225.14V197.26H241.34V185.83Z" fill="white"/>
<path d="M265.49 185.83H249.29V197.26H265.49V185.83Z" fill="white"/>
<path d="M241.34 202.63H225.14V214.06H241.34V202.63Z" fill="white"/>
<path d="M265.49 202.63H249.29V214.06H265.49V202.63Z" fill="white"/>
<path d="M241.34 219.42H225.14V230.85H241.34V219.42Z" fill="white"/>
<path d="M265.49 219.42H249.29V230.85H265.49V219.42Z" fill="white"/>
<path d="M295.429 135.44H279.229V146.87H295.429V135.44Z" fill="white"/>
<path d="M295.429 152.24H279.229V163.67H295.429V152.24Z" fill="white"/>
<path d="M295.429 169.04H279.229V180.47H295.429V169.04Z" fill="white"/>
<path d="M295.429 185.83H279.229V197.26H295.429V185.83Z" fill="white"/>
<path d="M295.429 202.63H279.229V214.06H295.429V202.63Z" fill="white"/>
<path d="M295.429 219.42H279.229V230.85H295.429V219.42Z" fill="white"/>
<path d="M241.34 236.02H225.14V247.45H241.34V236.02Z" fill="white"/>
<path d="M265.49 236.02H249.29V247.45H265.49V236.02Z" fill="white"/>
<path d="M295.429 236.02H279.229V247.45H295.429V236.02Z" fill="white"/>
<path d="M241.34 252.62H225.14V264.05H241.34V252.62Z" fill="white"/>
<path d="M265.49 252.62H249.29V264.05H265.49V252.62Z" fill="white"/>
<path d="M295.429 252.62H279.229V264.05H295.429V252.62Z" fill="white"/>
<path d="M241.34 269.21H225.14V280.64H241.34V269.21Z" fill="white"/>
<path d="M265.49 269.21H249.29V280.64H265.49V269.21Z" fill="white"/>
<path d="M295.429 269.21H279.229V280.64H295.429V269.21Z" fill="white"/>
<path d="M241.34 285.81H225.14V297.24H241.34V285.81Z" fill="white"/>
<path d="M265.49 285.81H249.29V297.24H265.49V285.81Z" fill="white"/>
<path d="M295.429 285.81H279.229V297.24H295.429V285.81Z" fill="white"/>
<path d="M241.34 302.4H225.14V313.83H241.34V302.4Z" fill="white"/>
<path d="M265.49 302.4H249.29V313.83H265.49V302.4Z" fill="white"/>
<path d="M295.429 302.4H279.229V313.83H295.429V302.4Z" fill="white"/>
<path d="M441.77 118.17H433.02V128.18H441.77V118.17Z" fill="white"/>
<path d="M456.93 118.17H448.18V128.18H456.93V118.17Z" fill="white"/>
<path d="M441.77 133.24H433.02V143.25H441.77V133.24Z" fill="white"/>
<path d="M456.93 133.24H448.18V143.25H456.93V133.24Z" fill="white"/>
<path d="M441.77 148.31H433.02V158.32H441.77V148.31Z" fill="white"/>
<path d="M456.93 148.31H448.18V158.32H456.93V148.31Z" fill="white"/>
<path d="M441.77 163.38H433.02V173.39H441.77V163.38Z" fill="white"/>
<path d="M456.93 163.38H448.18V173.39H456.93V163.38Z" fill="white"/>
<path d="M441.77 178.82H433.02V188.83H441.77V178.82Z" fill="white"/>
<path d="M456.93 178.82H448.18V188.83H456.93V178.82Z" fill="white"/>
<path d="M441.77 194.26H433.02V204.27H441.77V194.26Z" fill="white"/>
<path d="M456.93 194.26H448.18V204.27H456.93V194.26Z" fill="white"/>
<path d="M441.77 209.7H433.02V219.71H441.77V209.7Z" fill="white"/>
<path d="M456.93 209.7H448.18V219.71H456.93V209.7Z" fill="white"/>
<path d="M441.77 225.14H433.02V235.15H441.77V225.14Z" fill="white"/>
<path d="M456.93 225.14H448.18V235.15H456.93V225.14Z" fill="white"/>
<path d="M441.77 240.75H433.02V250.76H441.77V240.75Z" fill="white"/>
<path d="M456.93 240.75H448.18V250.76H456.93V240.75Z" fill="white"/>
<path d="M441.77 256.36H433.02V266.37H441.77V256.36Z" fill="white"/>
<path d="M456.93 256.36H448.18V266.37H456.93V256.36Z" fill="white"/>
<path d="M441.77 271.96H433.02V281.97H441.77V271.96Z" fill="white"/>
<path d="M456.93 271.96H448.18V281.97H456.93V271.96Z" fill="white"/>
<path d="M441.77 287.57H433.02V297.58H441.77V287.57Z" fill="white"/>
<path d="M456.93 287.57H448.18V297.58H456.93V287.57Z" fill="white"/>
<path d="M655.37 119.8H646.62V131.6H655.37V119.8Z" fill="white"/>
<path d="M670.529 119.8H661.779V131.6H670.529V119.8Z" fill="white"/>
<path d="M655.37 137.55H646.62V149.35H655.37V137.55Z" fill="white"/>
<path d="M670.529 137.55H661.779V149.35H670.529V137.55Z" fill="white"/>
<path d="M655.37 155.31H646.62V167.11H655.37V155.31Z" fill="white"/>
<path d="M670.529 155.31H661.779V167.11H670.529V155.31Z" fill="white"/>
<path d="M655.37 173.06H646.62V184.86H655.37V173.06Z" fill="white"/>
<path d="M670.529 173.06H661.779V184.86H670.529V173.06Z" fill="white"/>
<path d="M655.37 191.25H646.62V203.05H655.37V191.25Z" fill="white"/>
<path d="M670.529 191.25H661.779V203.05H670.529V191.25Z" fill="white"/>
<path d="M655.37 209.44H646.62V221.24H655.37V209.44Z" fill="white"/>
<path d="M670.529 209.44H661.779V221.24H670.529V209.44Z" fill="white"/>
<path d="M655.37 227.63H646.62V239.43H655.37V227.63Z" fill="white"/>
<path d="M670.529 227.63H661.779V239.43H670.529V227.63Z" fill="white"/>
<path d="M655.37 245.83H646.62V257.63H655.37V245.83Z" fill="white"/>
<path d="M670.529 245.83H661.779V257.63H670.529V245.83Z" fill="white"/>
<path d="M655.37 264.21H646.62V276.01H655.37V264.21Z" fill="white"/>
<path d="M670.529 264.21H661.779V276.01H670.529V264.21Z" fill="white"/>
<path d="M655.37 282.6H646.62V294.4H655.37V282.6Z" fill="white"/>
<path d="M670.529 282.6H661.779V294.4H670.529V282.6Z" fill="white"/>
<path d="M655.37 300.98H646.62V312.78H655.37V300.98Z" fill="white"/>
<path d="M670.529 300.98H661.779V312.78H670.529V300.98Z" fill="white"/>
<path d="M655.37 319.37H646.62V331.17H655.37V319.37Z" fill="white"/>
<path d="M670.529 319.37H661.779V331.17H670.529V319.37Z" fill="white"/>
<path d="M474.189 118.17H465.439V128.18H474.189V118.17Z" fill="white"/>
<path d="M489.35 118.17H480.6V128.18H489.35V118.17Z" fill="white"/>
<path d="M474.189 102.72H465.439V112.73H474.189V102.72Z" fill="white"/>
<path d="M489.35 102.72H480.6V112.73H489.35V102.72Z" fill="white"/>
<path d="M474.189 87.27H465.439V97.28H474.189V87.27Z" fill="white"/>
<path d="M489.35 87.27H480.6V97.28H489.35V87.27Z" fill="white"/>
<path d="M474.189 133.24H465.439V143.25H474.189V133.24Z" fill="white"/>
<path d="M489.35 133.24H480.6V143.25H489.35V133.24Z" fill="white"/>
<path d="M474.189 148.31H465.439V158.32H474.189V148.31Z" fill="white"/>
<path d="M489.35 148.31H480.6V158.32H489.35V148.31Z" fill="white"/>
<path d="M474.189 163.38H465.439V173.39H474.189V163.38Z" fill="white"/>
<path d="M489.35 163.38H480.6V173.39H489.35V163.38Z" fill="white"/>
<path d="M474.189 178.82H465.439V188.83H474.189V178.82Z" fill="white"/>
<path d="M489.35 178.82H480.6V188.83H489.35V178.82Z" fill="white"/>
<path d="M474.189 194.26H465.439V204.27H474.189V194.26Z" fill="white"/>
<path d="M489.35 194.26H480.6V204.27H489.35V194.26Z" fill="white"/>
<path d="M474.189 209.7H465.439V219.71H474.189V209.7Z" fill="white"/>
<path d="M489.35 209.7H480.6V219.71H489.35V209.7Z" fill="white"/>
<path d="M474.189 225.14H465.439V235.15H474.189V225.14Z" fill="white"/>
<path d="M489.35 225.14H480.6V235.15H489.35V225.14Z" fill="white"/>
<path d="M474.189 240.75H465.439V250.76H474.189V240.75Z" fill="white"/>
<path d="M489.35 240.75H480.6V250.76H489.35V240.75Z" fill="white"/>
<path d="M474.189 256.36H465.439V266.37H474.189V256.36Z" fill="white"/>
<path d="M489.35 256.36H480.6V266.37H489.35V256.36Z" fill="white"/>
<path d="M474.189 271.96H465.439V281.97H474.189V271.96Z" fill="white"/>
<path d="M489.35 271.96H480.6V281.97H489.35V271.96Z" fill="white"/>
<path d="M474.189 287.57H465.439V297.58H474.189V287.57Z" fill="white"/>
<path d="M489.35 287.57H480.6V297.58H489.35V287.57Z" fill="white"/>
<path d="M183.78 132.27L96.1797 132.14C96.1797 132.14 100.54 126.47 105.34 125.77C105.34 125.77 114.72 97.9799 130.34 97.7699C144.88 97.6099 150.68 114.9 150.68 114.9C150.68 114.9 157.43 107.16 163.86 110.72C170.29 114.28 173.91 124.43 173.91 124.43C173.91 124.43 181.17 128.37 183.78 132.27Z" fill="#EBEBEB"/>
<path d="M558.08 100L668.87 100.17C668.87 100.17 668.87 93.09 653.62 91.68C653.62 91.68 639.73 60.68 618.45 64.85C605.2 67.37 598.4 85.55 598.4 85.55C598.4 85.55 588.4 71.22 580.4 73.98C572.4 76.74 567.6 91.98 567.6 91.98C567.6 91.98 559.34 96 558.08 100Z" fill="#EBEBEB"/>
<path d="M289.3 96.15L364.64 96.26C364.64 96.26 357.54 89.63 354.38 89.63C351.22 89.63 342 67.4 330.24 68.32C318.48 69.24 312.18 85.78 312.18 85.78C312.18 85.78 297.87 81.27 289.3 96.15Z" fill="#EBEBEB"/>
<path d="M499.75 140.26L564.17 140.36C564.17 140.36 560.97 136.18 557.44 135.66C557.44 135.66 550.61 115.2 539.11 115.04C528.42 114.89 524.11 127.59 524.11 127.59C524.11 127.59 519.17 121.88 514.44 124.48C509.71 127.08 507 134.54 507 134.54C507 134.54 501.68 137.4 499.75 140.26Z" fill="#EBEBEB"/>
<path d="M371 420.05C522.79 420.05 645.84 409.65 645.84 396.82C645.84 383.991 522.79 373.59 371 373.59C219.21 373.59 96.1602 383.991 96.1602 396.82C96.1602 409.65 219.21 420.05 371 420.05Z" fill="#EBEBEB"/>
<path d="M479.83 453.99C555.079 453.99 616.08 445.828 616.08 435.76C616.08 425.692 555.079 417.53 479.83 417.53C404.581 417.53 343.58 425.692 343.58 435.76C343.58 445.828 404.581 453.99 479.83 453.99Z" fill="#EBEBEB"/>
<path d="M47.5098 341.89L129.38 341.65L211.25 341.56L375 341.39L538.75 341.56L620.62 341.65L702.49 341.89L620.62 342.14L538.75 342.23L375 342.39L211.25 342.23L129.38 342.14L47.5098 341.89Z" fill="#263238"/>
<path d="M702.49 331.32H47.5098V341.9H702.49V331.32Z" fill="#C7C7C7"/>
<path d="M81.2099 331.32C81.8766 334.812 81.8766 338.398 81.2099 341.89C80.8504 340.154 80.6827 338.383 80.7099 336.61C80.6873 334.834 80.8549 333.061 81.2099 331.32Z" fill="#263238"/>
<path d="M120.38 331.32C120.735 333.061 120.902 334.834 120.88 336.61C120.907 338.383 120.739 340.154 120.38 341.89C120.025 340.153 119.858 338.383 119.88 336.61C119.862 334.834 120.03 333.061 120.38 331.32Z" fill="#263238"/>
<path d="M159.55 331.32C160.217 334.812 160.217 338.398 159.55 341.89C158.883 338.398 158.883 334.812 159.55 331.32Z" fill="#263238"/>
<path d="M198.73 331.32C199.383 334.813 199.383 338.397 198.73 341.89C198.063 338.398 198.063 334.812 198.73 331.32Z" fill="#263238"/>
<path d="M237.899 331.32C238.566 334.812 238.566 338.398 237.899 341.89C237.233 338.398 237.233 334.812 237.899 331.32Z" fill="#263238"/>
<path d="M277.07 331.32C277.42 333.061 277.588 334.834 277.57 336.61C277.592 338.383 277.425 340.153 277.07 341.89C276.711 340.154 276.543 338.383 276.57 336.61C276.553 334.834 276.72 333.061 277.07 331.32Z" fill="#263238"/>
<path d="M316.239 331.32C316.594 333.061 316.762 334.834 316.739 336.61C316.766 338.383 316.599 340.154 316.239 341.89C315.573 338.398 315.573 334.812 316.239 331.32Z" fill="#263238"/>
<path d="M355.41 331.32C356.077 334.812 356.077 338.398 355.41 341.89C354.743 338.398 354.743 334.812 355.41 331.32Z" fill="#263238"/>
<path d="M394.59 331.32C395.257 334.812 395.257 338.398 394.59 341.89C393.923 338.398 393.923 334.812 394.59 331.32Z" fill="#263238"/>
<path d="M433.76 331.32C434.426 334.812 434.426 338.398 433.76 341.89C433.4 340.154 433.233 338.383 433.26 336.61C433.237 334.834 433.405 333.061 433.76 331.32Z" fill="#263238"/>
<path d="M472.93 331.32C473.28 333.061 473.447 334.834 473.43 336.61C473.457 338.383 473.289 340.154 472.93 341.89C472.575 340.153 472.408 338.383 472.43 336.61C472.412 334.834 472.58 333.061 472.93 331.32Z" fill="#263238"/>
<path d="M512.1 331.32C512.766 334.812 512.766 338.398 512.1 341.89C511.433 338.398 511.433 334.812 512.1 331.32Z" fill="#263238"/>
<path d="M551.279 331.32C551.933 334.813 551.933 338.397 551.279 341.89C550.613 338.398 550.613 334.812 551.279 331.32Z" fill="#263238"/>
<path d="M590.45 331.32C591.117 334.812 591.117 338.398 590.45 341.89C589.784 338.398 589.784 334.812 590.45 331.32Z" fill="#263238"/>
<path d="M629.62 331.32C629.97 333.061 630.138 334.834 630.12 336.61C630.142 338.383 629.975 340.153 629.62 341.89C629.261 340.154 629.093 338.383 629.12 336.61C629.097 334.834 629.265 333.061 629.62 331.32Z" fill="#263238"/>
<path d="M668.79 331.32C669.145 333.061 669.313 334.834 669.29 336.61C669.317 338.383 669.15 340.154 668.79 341.89C668.123 338.398 668.123 334.812 668.79 331.32Z" fill="#263238"/>
<path d="M140 355.29H259C259 355.29 246 299.7 199.51 299.7C153.02 299.7 142 342.88 140 355.29Z" fill="#4993FF"/>
<path opacity="0.2" d="M140 355.29H259C259 355.29 246 299.7 199.51 299.7C153.02 299.7 142 342.88 140 355.29Z" fill="black"/>
<path d="M485.301 361.29H604.301C604.301 361.29 591.301 305.7 544.811 305.7C498.321 305.7 487.351 348.88 485.301 361.29Z" fill="#4993FF"/>
<path opacity="0.2" d="M485.301 361.29H604.301C604.301 361.29 591.301 305.7 544.811 305.7C498.321 305.7 487.351 348.88 485.301 361.29Z" fill="black"/>
<path d="M112.77 253.9C110.22 257.9 105.77 302.59 105.48 304.15C105.19 305.71 101.48 312.55 101.48 313.85C101.48 315.15 100.48 335.27 101.03 336.57C102.235 338.943 103.605 341.229 105.13 343.41C105.78 344.19 122.64 358.7 124.53 358.9C126.42 359.1 143.86 359.22 144.19 358.9C144.52 358.58 146.53 304.9 199.45 304.9C252.37 304.9 251.79 361.9 252.77 362.12C253.75 362.34 490.64 367.72 490.64 367.72C490.64 358.99 491.32 307.05 543.23 307.05C577.05 307.05 594.14 334.92 594.73 355.48C594.97 364.04 593.54 373.48 594.01 373.48C595.57 373.48 600.91 373.87 601.82 373.48C602.73 373.09 613.82 365.79 614.71 365.53C615.6 365.27 622 365.14 623.56 364.75C625.12 364.36 636.06 354.75 636.26 354.4C636.46 354.05 636.78 350.24 636.84 349.91C636.9 349.58 647.98 336.04 648.5 334.55C649.02 333.06 649.21 320.68 649.21 319.44C649.21 318.2 629.1 285.59 624.41 282.08C619.72 278.57 586.33 266.85 576.56 265.08C566.79 263.31 513.09 255.31 511.14 253.95C509.19 252.59 417.49 200 401.54 196.09C388.65 192.97 239.45 197.26 231.64 197.65C223.83 198.04 202.21 201.95 200.13 201.95C198.05 201.95 174.13 201.82 172.66 202.47C171.19 203.12 172.66 208.85 174.48 209.89C176.3 210.93 117.2 246.87 112.77 253.9Z" fill="#4993FF"/>
<path d="M116.191 250.51C116.751 251.03 126.081 251.26 127.061 250.87C128.041 250.48 186.801 211.39 186.841 210.25C186.841 209.68 175.841 209.83 174.481 209.89C173.121 209.95 115.111 249.53 116.191 250.51Z" fill="#455A64"/>
<path d="M181.631 249.89C184.181 257.41 492.811 271.47 494.501 267.83C495.751 265.13 468.141 242.96 455.251 235.73C442.361 228.5 405.451 207.61 387.251 205.46C369.051 203.31 332.251 203.46 300.151 204.1C268.311 204.68 230.821 205.46 217.541 211.1C205.931 216.1 179.611 243.91 181.631 249.89Z" fill="#263238"/>
<path d="M190.241 245.5C191.011 248.33 259.17 255.66 339.05 259.37C418.93 263.08 458.371 263.66 459.351 263.27C460.331 262.88 456.611 241.6 455.251 239.84C453.891 238.08 396.66 208.79 387.68 208C378.7 207.21 330.16 207.12 305.68 207.51C281.2 207.9 230.111 210.83 221.411 214.34C213.741 217.44 189.451 242.67 190.241 245.5Z" fill="#455A64"/>
<g opacity="0.1">
<path d="M296.001 207.76L250.251 253.51C242.091 252.79 234.541 252.07 227.761 251.38L270.151 209C279.191 208.42 288.201 208 296.001 207.76Z" fill="white"/>
<path d="M459.191 258.76L454.581 263.37C449.914 263.37 441.864 263.217 430.431 262.91L454.231 239.12C454.586 239.325 454.92 239.562 455.231 239.83C456.221 241.09 458.401 252.31 459.191 258.76Z" fill="white"/>
<path d="M330.1 207.32L281.45 256C277.55 255.73 273.72 255.45 269.99 255.16L317.73 207.41C321.65 207.35 325.82 207.32 330.1 207.32Z" fill="white"/>
<path d="M434.53 228.64L401.19 262L389.33 261.56L426.33 224.56C429.14 225.93 431.9 227.3 434.53 228.64Z" fill="white"/>
<path d="M262 209.46L220.85 250.63L217.71 250.28L258.27 209.72L262 209.46Z" fill="white"/>
<path d="M441.62 232.27L411.62 262.33L408.24 262.21L439.36 231.08L441.62 232.27Z" fill="white"/>
<path d="M398.45 211.62L350.2 259.87L346.84 259.73L396 210.61L398.45 211.62Z" fill="white"/>
<path d="M229.3 212.6L194.86 247C193.71 246.77 192.76 246.55 192.03 246.33L225.03 213.33C226.28 213.09 227.7 212.84 229.3 212.6Z" fill="white"/>
</g>
<path d="M233 212.08C233.32 212.08 233.47 212.5 233.19 213.25C231.59 217.68 219.1 242.77 215.98 248.63C215.784 248.945 215.526 249.217 215.221 249.43C214.917 249.644 214.573 249.793 214.21 249.87L236.21 252.22C235.824 252.065 235.505 251.781 235.306 251.416C235.107 251.051 235.041 250.628 235.12 250.22C235.34 248.83 243.51 219.34 246.12 212.09C246.412 211.419 246.933 210.873 247.59 210.55C248.03 210.55 243.84 210.61 239.86 211.02C236.32 211.4 233 212.08 233 212.08Z" fill="#263238"/>
<path d="M262 209.46C262 209.46 262.4 209.68 262.42 210.46C262.56 217.4 263.34 252.15 262.67 254.05C262.627 254.239 262.512 254.404 262.35 254.51L266.51 254.84C266.295 254.547 266.164 254.202 266.13 253.84C265.66 247.97 265.24 216.11 265.32 210.22C265.345 209.855 265.481 209.506 265.71 209.22L262 209.46Z" fill="#263238"/>
<path d="M330.43 208.75C330.92 210.29 331.73 255.66 331.73 257.12C331.73 258.58 330.06 258.93 330.06 258.93L355.85 260.13C355.85 260.13 354.18 259.66 353.85 258.88C353.52 258.1 345.45 209.18 345.5 208.54C345.55 207.9 346.82 207.3 346.82 207.3H328.82C329.173 207.42 329.498 207.61 329.775 207.859C330.052 208.108 330.275 208.412 330.43 208.75Z" fill="#263238"/>
<path d="M117.331 260.28C114.161 260.68 107.041 268.09 106.521 269.65C106.001 271.21 104.051 281.76 105.091 283.32C106.131 284.88 109.911 288.79 113.161 288.92C116.411 289.05 132.301 281.5 133.731 280.2C135.161 278.9 136.201 270.97 134.511 268.42C132.821 265.87 121.361 259.76 117.331 260.28Z" fill="white"/>
<path d="M133.73 280.2C132.3 281.5 116.41 289.05 113.16 288.92C110.68 288.82 107.89 286.52 106.25 284.74C108.098 286.077 110.329 286.779 112.61 286.74C114.36 286.58 129.24 280.18 131.15 278.43C133.06 276.68 133.15 270.09 132.89 268.9C132.63 267.71 123.03 261.52 123.03 261.52C127.78 263.35 133.37 266.69 134.51 268.41C136.2 271 135.16 278.89 133.73 280.2Z" fill="#EBEBEB"/>
<path d="M104.18 319.19C103.3 320.07 103 326.68 103.92 327.26C104.84 327.84 110.17 327.78 111.21 327.26C112.25 326.74 114.92 321.79 114.72 320.1C114.52 318.41 105.22 318.15 104.18 319.19Z" fill="white"/>
<path d="M579.45 282.6C582.26 287.15 602.89 295.2 610.6 296.47C615.46 297.27 632.28 298.33 633.26 297.47C634.24 296.61 626.13 285.36 621.93 282.62C617.73 279.88 596.74 272.86 590.39 273.15C584.04 273.44 576.62 278 579.45 282.6Z" fill="white"/>
<path d="M633.26 297.45C632.26 298.33 615.46 297.27 610.6 296.45C602.89 295.18 582.26 287.13 579.45 282.58C576.64 278.03 584.04 273.41 590.39 273.11C590.883 273.081 591.377 273.081 591.87 273.11C585.96 275.29 584.75 279.91 588.35 282.55C591.95 285.19 603.49 291.36 608.1 292.65C612.54 293.9 629.1 296.48 630.54 295.35C630.815 295.025 631.013 294.642 631.122 294.231C631.231 293.819 631.248 293.389 631.17 292.97C632.69 295.3 633.63 297.12 633.26 297.45Z" fill="#EBEBEB"/>
<g opacity="0.5">
<path d="M183.231 281.54C183.25 284.319 182.172 286.993 180.231 288.98C178.259 291.008 175.564 292.17 172.736 292.211C169.908 292.252 167.18 291.169 165.151 289.2C164.125 288.206 163.31 287.017 162.753 285.702C162.196 284.387 161.909 282.973 161.909 281.545C161.909 280.117 162.196 278.704 162.753 277.389C163.31 276.074 164.125 274.884 165.151 273.89C166.154 272.913 167.341 272.143 168.643 271.625C169.944 271.107 171.335 270.851 172.736 270.871C174.137 270.891 175.52 271.188 176.806 271.744C178.092 272.3 179.256 273.104 180.231 274.11C182.171 276.094 183.25 278.765 183.231 281.54ZM183.231 281.54C183.208 278.778 182.089 276.138 180.121 274.2C179.146 273.262 177.996 272.524 176.737 272.03C175.478 271.536 174.133 271.295 172.781 271.32C170.091 271.374 167.532 272.488 165.661 274.42C163.808 276.329 162.771 278.885 162.771 281.545C162.771 284.205 163.808 286.761 165.661 288.67C167.532 290.602 170.091 291.716 172.781 291.77C174.133 291.796 175.478 291.554 176.737 291.06C177.996 290.566 179.146 289.829 180.121 288.89C182.088 286.947 183.206 284.305 183.231 281.54Z" fill="black"/>
<path d="M140.001 313.27C138.941 310.91 138.001 308.53 137.001 306.13C136.001 303.73 135.161 301.33 134.241 298.92C133.321 296.51 132.491 294.08 131.671 291.64C130.851 289.2 130.031 286.75 129.311 284.27C130.381 286.63 131.311 289.01 132.311 291.4C133.311 293.79 134.151 296.21 135.081 298.62C136.011 301.03 136.831 303.46 137.651 305.9C138.471 308.34 139.261 310.79 140.001 313.27Z" fill="black"/>
<path d="M103.36 313.27C108.49 313.17 113.61 313.18 118.74 313.2L134.11 313.36L149.48 313.73C154.6 313.89 159.72 314.06 164.84 314.33C159.72 314.43 154.59 314.42 149.47 314.41L134.09 314.24L118.72 313.87C113.6 313.71 108.48 313.54 103.36 313.27Z" fill="black"/>
<path d="M345.341 263.4L347.101 275.89L347.861 282.15C347.981 283.2 348.091 284.24 348.171 285.3C348.251 286.36 348.171 287.4 348.171 288.46L348.001 313.68L347.801 326.3L347.691 332.6L347.641 335.76L347.401 338.9L346.401 351.48L345.341 364L345.981 351.41L346.701 338.83L346.881 335.68V332.53L346.941 326.23L347.071 313.64L347.501 288.44C347.501 287.39 347.591 286.33 347.501 285.3C347.411 284.27 347.351 283.21 347.251 282.17L346.621 275.9L345.341 263.4Z" fill="black"/>
<path d="M483.831 269.13L486.001 281.68L487.001 288L487.261 289.57C487.374 290.093 487.437 290.625 487.451 291.16C487.451 292.22 487.451 293.28 487.451 294.35C487.381 302.84 487.171 311.35 486.911 319.81C486.844 321.93 486.754 324.05 486.641 326.17C486.522 328.309 486.111 330.422 485.421 332.45C484.261 336.54 482.931 340.57 481.471 344.57C480.047 348.582 478.349 352.491 476.391 356.27L475.601 357.67C475.331 358.13 475.021 358.57 474.731 359.02C474.427 359.472 474.093 359.903 473.731 360.31L473.211 360.94C472.928 361.108 472.609 361.205 472.281 361.22C470.131 361.44 468.021 361.47 465.891 361.54C448.891 361.89 431.941 361.74 414.961 361.62C397.981 361.5 381.011 361.25 364.031 360.94C347.051 360.63 330.091 360.16 313.121 359.54C304.641 359.19 296.121 358.91 287.681 358.15C286.595 358.07 285.518 357.899 284.461 357.64C283.861 357.41 283.511 357.13 283.001 356.91C282.491 356.69 282.061 356.45 281.581 356.23C279.651 355.36 277.671 354.59 275.751 353.63C273.805 352.707 272.003 351.508 270.401 350.07C269.007 348.44 267.717 346.723 266.541 344.93C261.761 337.93 257.191 330.75 252.631 323.6C248.071 316.45 243.551 309.25 239.061 302.05C234.571 294.85 230.141 287.6 225.761 280.33L224.141 277.59L223.751 276.87L223.561 276.51C223.529 276.379 223.513 276.245 223.511 276.11L223.351 274.53C223.171 272.41 223.011 270.29 222.931 268.17C222.931 267.64 222.931 267.11 222.931 266.57C223 266.041 223.114 265.52 223.271 265.01C223.561 264.01 223.911 263.01 224.271 262.01C224.981 260.01 225.741 258.01 226.531 256.06C225.757 258.06 225.021 260.06 224.321 262.06C223.981 263.06 223.641 264.06 223.321 265.06C223.168 265.567 223.057 266.085 222.991 266.61C222.991 267.14 222.991 267.67 222.991 268.2C223.081 270.31 223.271 272.43 223.461 274.54L223.631 276.12C223.64 276.251 223.66 276.382 223.691 276.51L223.881 276.85C224.011 277.07 224.121 277.29 224.261 277.52L225.901 280.25C230.331 287.48 234.901 294.67 239.381 301.85C248.381 316.2 257.451 330.59 266.981 344.63C268.136 346.374 269.398 348.043 270.761 349.63C272.328 351.022 274.086 352.183 275.981 353.08C277.871 354.01 279.841 354.77 281.791 355.65C282.281 355.87 282.791 356.09 283.241 356.33C283.691 356.57 284.241 356.89 284.631 357.03C285.638 357.26 286.661 357.414 287.691 357.49C296.121 358.23 304.621 358.49 313.101 358.8C330.101 359.38 347.031 359.75 364.001 360.06C380.971 360.37 397.941 360.7 414.921 360.89C431.901 361.08 448.921 361.26 465.831 360.96C467.941 360.9 470.081 360.87 472.161 360.66C472.401 360.66 472.711 360.56 472.751 360.55L473.251 359.95C473.595 359.557 473.909 359.14 474.191 358.7C474.471 358.26 474.781 357.83 475.051 357.38L475.831 356.01C477.823 352.248 479.55 348.352 481.001 344.35C482.474 340.35 483.807 336.327 485.001 332.28C485.681 330.287 486.091 328.212 486.221 326.11L486.511 319.75C486.851 311.27 487.131 302.75 487.271 294.3C487.271 293.24 487.271 292.18 487.271 291.13C487.255 290.599 487.195 290.071 487.091 289.55L486.841 287.98L485.841 281.7L483.831 269.13Z" fill="black"/>
<path d="M593.07 290.71C590.865 292.565 588.526 294.253 586.07 295.76C583.64 297.33 581.16 298.81 578.7 300.32C576.24 301.83 573.7 303.23 571.19 304.63C568.68 306.03 566.13 307.4 563.54 308.69C565.95 307.09 568.4 305.56 570.85 304.04L578.25 299.56L585.71 295.19L589.45 293.01C590.702 292.317 591.911 291.549 593.07 290.71Z" fill="black"/>
<path d="M235.74 315.54L268.8 316.41L301.87 317.41L368 319.43L434.12 321.74L467.18 322.9L500.23 324.2L467.16 323.33L434.1 322.33L367.97 320.31L301.85 318L268.79 316.83L235.74 315.54Z" fill="black"/>
<path d="M233.79 268.15L232.49 268.22H232.17C232.1 268.22 232.09 268.28 232.05 268.38C231.995 268.584 231.955 268.791 231.93 269C231.849 269.848 231.832 270.7 231.88 271.55C231.891 271.972 231.928 272.393 231.99 272.81C232.015 272.998 232.062 273.183 232.13 273.36H232.23H232.47C233.31 273.44 234.18 273.46 235.03 273.49C238.47 273.6 241.92 273.71 245.36 273.77L250.52 273.92H253.1H254.2C254.256 273.818 254.303 273.711 254.34 273.6C254.392 273.406 254.432 273.209 254.46 273.01C254.572 272.175 254.609 271.332 254.57 270.49C254.559 270.072 254.522 269.654 254.46 269.24C254.434 269.075 254.387 268.914 254.32 268.76C254.169 268.686 254.007 268.639 253.84 268.62C252.17 268.33 250.43 268.23 248.72 268.06C250.451 268.012 252.184 268.059 253.91 268.2C254.169 268.204 254.422 268.28 254.64 268.42C254.799 268.631 254.903 268.879 254.94 269.14C255.033 269.575 255.096 270.016 255.13 270.46C255.205 271.339 255.205 272.222 255.13 273.1C255.107 273.329 255.071 273.556 255.02 273.78C254.973 274.095 254.805 274.379 254.55 274.57C254.477 274.623 254.39 274.651 254.3 274.65H254.1H253.75H250.51L245.33 274.58C241.89 274.45 238.44 274.35 235 274.1C234.13 274.02 233.28 273.97 232.4 273.84C232.27 273.833 232.142 273.806 232.02 273.76C231.943 273.747 231.868 273.72 231.8 273.68C231.726 273.62 231.671 273.54 231.64 273.45C231.552 273.226 231.498 272.99 231.48 272.75C231.434 272.312 231.417 271.871 231.43 271.43C231.443 270.558 231.527 269.689 231.68 268.83C231.721 268.612 231.782 268.398 231.86 268.19C231.879 268.133 231.906 268.079 231.94 268.03C231.964 267.998 231.996 267.972 232.033 267.954C232.069 267.937 232.11 267.929 232.15 267.93H232.47L233.79 268.15Z" fill="black"/>
<path d="M360.34 271.28L359.05 271.35H358.73C358.66 271.35 358.64 271.41 358.6 271.51C358.544 271.713 358.507 271.92 358.49 272.13C358.405 272.977 358.385 273.83 358.43 274.68C358.43 275.11 358.48 275.53 358.54 275.94C358.569 276.129 358.619 276.313 358.69 276.49H358.78H359.03C359.87 276.57 360.74 276.59 361.59 276.62C365.03 276.73 368.47 276.84 371.91 276.9L377.08 277.05H379.65H380.71C380.81 277.05 380.77 277.05 380.71 277.05C380.769 276.954 380.813 276.849 380.84 276.74C380.895 276.546 380.939 276.349 380.97 276.15C381.077 275.315 381.114 274.472 381.08 273.63C381.066 273.211 381.026 272.794 380.96 272.38C380.936 272.216 380.892 272.055 380.83 271.9C380.68 271.826 380.517 271.779 380.35 271.76C378.67 271.47 376.94 271.37 375.23 271.2C376.958 271.154 378.687 271.197 380.41 271.33C380.671 271.336 380.924 271.416 381.14 271.56C381.302 271.77 381.409 272.018 381.45 272.28C381.54 272.72 381.59 273.16 381.64 273.6C381.715 274.478 381.715 275.362 381.64 276.24C381.618 276.469 381.581 276.696 381.53 276.92C381.43 277.15 381.47 277.4 381.06 277.71C380.985 277.764 380.893 277.792 380.8 277.79H380.61H380.26H377.01L371.84 277.72C368.39 277.59 364.95 277.49 361.5 277.23C360.64 277.16 359.79 277.1 358.91 276.98C358.777 276.972 358.646 276.945 358.52 276.9C358.448 276.881 358.377 276.854 358.31 276.82C358.239 276.755 358.182 276.677 358.14 276.59C358.056 276.365 358.006 276.129 357.99 275.89C357.946 275.452 357.926 275.011 357.93 274.57C357.952 273.698 358.039 272.829 358.19 271.97C358.228 271.752 358.285 271.538 358.36 271.33C358.384 271.274 358.415 271.22 358.45 271.17C358.474 271.137 358.506 271.11 358.542 271.093C358.579 271.075 358.62 271.068 358.66 271.07H358.98L360.34 271.28Z" fill="black"/>
</g>
<path d="M233.236 392.699C252.454 373.481 252.454 342.323 233.236 323.106C214.018 303.888 182.86 303.888 163.642 323.106C144.425 342.323 144.425 373.481 163.642 392.699C182.86 411.917 214.018 411.917 233.236 392.699Z" fill="#263238"/>
<path d="M223.846 383.309C237.878 369.277 237.878 346.528 223.846 332.496C209.814 318.464 187.065 318.464 173.033 332.496C159.002 346.528 159.002 369.277 173.033 383.309C187.065 397.34 209.814 397.34 223.846 383.309Z" fill="#DBDBDB"/>
<path d="M198.441 391.04C216.738 391.04 231.571 376.207 231.571 357.91C231.571 339.613 216.738 324.78 198.441 324.78C180.143 324.78 165.311 339.613 165.311 357.91C165.311 376.207 180.143 391.04 198.441 391.04Z" fill="#A6A6A6"/>
<path d="M203.641 349.6H193.231C196.741 344.52 184.511 326.82 184.511 326.82L190.001 325C193.641 331.25 195.461 333.08 198.461 333.08C201.461 333.08 203.271 331.25 206.921 325L212.391 326.83C212.391 326.83 200.131 344.52 203.641 349.6Z" fill="#DBDBDB"/>
<path d="M192.36 350.23L189.15 360.13C185.41 355.22 164.79 361.39 164.79 361.39V355.62C171.86 354.09 174.16 352.92 175.09 350.07C176.02 347.22 174.83 344.93 170.02 339.52L173.45 334.89C173.45 334.89 186.45 352 192.36 350.23Z" fill="#DBDBDB"/>
<path d="M189.48 361.15L197.9 367.27C192.07 369.27 191.57 390.82 191.57 390.82L186.07 389.09C186.79 381.89 186.4 379.34 183.97 377.58C181.54 375.82 178.97 376.23 172.37 379.14L169 374.45C169 374.45 189.34 367.32 189.48 361.15Z" fill="#DBDBDB"/>
<path d="M199 367.27L207.42 361.15C207.56 367.32 227.87 374.45 227.87 374.45L224.52 379.15C217.9 376.23 215.35 375.82 212.93 377.58C210.51 379.34 210.11 381.89 210.83 389.09L205.33 390.82C205.33 390.82 204.8 369.31 199 367.27Z" fill="#DBDBDB"/>
<path d="M207.731 360.13L204.511 350.23C210.421 352 223.511 334.89 223.511 334.89L226.951 339.53C222.131 344.92 220.951 347.22 221.871 350.07C222.791 352.92 225.111 354.07 232.181 355.63L232.121 361.39C232.121 361.39 211.471 355.22 207.731 360.13Z" fill="#DBDBDB"/>
<path d="M198.44 367.29C203.753 367.29 208.06 362.983 208.06 357.67C208.06 352.357 203.753 348.05 198.44 348.05C193.127 348.05 188.82 352.357 188.82 357.67C188.82 362.983 193.127 367.29 198.44 367.29Z" fill="#DBDBDB"/>
<path d="M559.974 401.168C585.521 391.927 598.741 363.726 589.5 338.179C580.26 312.632 552.059 299.412 526.511 308.653C500.964 317.893 487.745 346.094 496.985 371.642C506.226 397.189 534.427 410.408 559.974 401.168Z" fill="#263238"/>
<path d="M577.541 367.102C582.606 347.916 571.16 328.256 551.973 323.19C532.787 318.124 513.127 329.571 508.062 348.757C502.996 367.944 514.443 387.604 533.629 392.669C552.815 397.735 572.475 386.288 577.541 367.102Z" fill="#DBDBDB"/>
<path d="M542.78 391.04C561.078 391.04 575.91 376.207 575.91 357.91C575.91 339.613 561.078 324.78 542.78 324.78C524.483 324.78 509.65 339.613 509.65 357.91C509.65 376.207 524.483 391.04 542.78 391.04Z" fill="#A6A6A6"/>
<path d="M548.001 349.6H537.571C541.091 344.52 528.851 326.82 528.851 326.82L534.321 324.99C537.961 331.24 539.781 333.07 542.781 333.07C545.781 333.07 547.591 331.24 551.251 324.99L556.711 326.82C556.711 326.82 544.471 344.52 548.001 349.6Z" fill="#DBDBDB"/>
<path d="M536.7 350.23L533.49 360.13C529.75 355.22 509.13 361.39 509.13 361.39L509.08 355.62C516.15 354.09 518.45 352.92 519.38 350.07C520.31 347.22 519.12 344.93 514.31 339.52L517.74 334.89C517.74 334.89 530.79 352 536.7 350.23Z" fill="#DBDBDB"/>
<path d="M533.82 361.15L542.24 367.27C536.42 369.27 535.91 390.82 535.91 390.82L530.41 389.09C531.14 381.89 530.74 379.34 528.32 377.58C525.9 375.82 523.32 376.23 516.72 379.14L513.37 374.45C513.37 374.45 533.68 367.32 533.82 361.15Z" fill="#DBDBDB"/>
<path d="M543.32 367.27L551.74 361.15C551.88 367.32 572.18 374.45 572.18 374.45L568.83 379.15C562.21 376.23 559.66 375.82 557.24 377.58C554.82 379.34 554.42 381.89 555.14 389.09L549.64 390.82C549.64 390.82 549.14 369.31 543.32 367.27Z" fill="#DBDBDB"/>
<path d="M552.071 360.13L548.851 350.23C554.761 352 567.851 334.89 567.851 334.89L571.281 339.53C566.461 344.92 565.281 347.22 566.211 350.07C567.141 352.92 569.441 354.07 576.511 355.63L576.451 361.39C576.451 361.39 555.811 355.22 552.071 360.13Z" fill="#DBDBDB"/>
<path d="M542.78 367.29C548.093 367.29 552.4 362.983 552.4 357.67C552.4 352.357 548.093 348.05 542.78 348.05C537.467 348.05 533.16 352.357 533.16 357.67C533.16 362.983 537.467 367.29 542.78 367.29Z" fill="#DBDBDB"/>
<path d="M448.05 244.91C446.26 246.71 446.42 262.75 447.72 264.05C449.02 265.35 466.86 266.53 468.29 256.57C469.72 246.61 450.85 242.11 448.05 244.91Z" fill="#4993FF"/>
<path d="M513.141 254.5H498.631C460.871 229.59 409.051 204.94 409.051 204.94L417.651 202.87C449.021 218.05 509.511 252.78 511.101 253.87C511.753 254.16 512.438 254.372 513.141 254.5Z" fill="#455A64"/>
<g opacity="0.5">
<path d="M140 325.76C143.026 320.762 146.727 316.205 151 312.22C155.272 308.195 160.037 304.728 165.18 301.9C175.551 296.265 187.198 293.397 199 293.57L203.4 293.77L205.6 293.88C206.33 293.96 207.06 294.08 207.79 294.18L212.15 294.8C213.59 295.1 215.01 295.48 216.44 295.8C222.16 297.214 227.612 299.551 232.58 302.72C237.515 305.909 241.922 309.85 245.64 314.4C249.261 318.993 252.357 323.978 254.87 329.26C252.171 324.1 248.93 319.242 245.2 314.77C241.446 310.349 237.026 306.541 232.1 303.48C222.24 297.33 210.53 294.83 199 294.72C193.209 294.629 187.429 295.25 181.79 296.57C176.154 297.911 170.711 299.961 165.59 302.67C160.452 305.378 155.675 308.721 151.37 312.62C147.019 316.481 143.196 320.9 140 325.76Z" fill="white"/>
<path d="M484.78 325.76C487.806 320.762 491.508 316.205 495.78 312.22C500.065 308.193 504.843 304.725 510 301.9C520.377 296.262 532.032 293.393 543.84 293.57L548.24 293.77L550.44 293.88C551.17 293.96 551.9 294.08 552.62 294.18L556.99 294.8C558.42 295.1 559.85 295.48 561.28 295.8C567.001 297.214 572.452 299.551 577.42 302.72C582.356 305.909 586.762 309.85 590.48 314.4C594.102 318.993 597.198 323.978 599.71 329.26C596.85 324.18 593.9 319.13 590.04 314.77C586.281 310.354 581.863 306.546 576.94 303.48C567.08 297.33 555.37 294.83 543.83 294.72C538.043 294.629 532.266 295.251 526.63 296.57C515.302 299.277 504.839 304.797 496.21 312.62C491.836 316.475 487.992 320.894 484.78 325.76Z" fill="white"/>
<path d="M147.1 244.09C154.77 238.09 162.55 232.22 170.38 226.43C178.21 220.64 186.13 214.95 194.28 209.56C195.28 208.91 196.34 208.25 197.41 207.64C197.94 207.32 198.48 207.02 199.05 206.74C199.624 206.46 200.223 206.236 200.84 206.07C203.2 205.38 205.56 204.78 207.92 204.19C212.66 203.02 217.4 201.9 222.19 200.97C226.997 200.047 231.875 199.545 236.77 199.47C241.65 199.37 246.52 199.38 251.39 199.61C246.52 199.61 241.65 199.75 236.8 200.05C231.95 200.231 227.125 200.833 222.38 201.85C217.64 202.92 212.89 204.01 208.19 205.22C205.83 205.83 203.47 206.44 201.19 207.14C200.63 207.29 200.087 207.498 199.57 207.76C199.05 208.03 198.52 208.32 198.01 208.63C197.01 209.24 195.95 209.89 194.93 210.55C186.78 215.83 178.93 221.55 170.93 227.16L147.1 244.09Z" fill="white"/>
</g>
<path opacity="0.1" d="M528.851 308.54C491.151 317.16 490.601 359.86 490.601 367.69C490.601 367.69 253.701 362.29 252.731 362.09C251.941 361.92 252.181 324.54 224.221 310.29C236.781 316.5 252.871 331.54 258.961 353.5C259.621 355.84 294.121 359.5 353.091 361.39C412.061 363.28 463.321 362.09 473.091 360.72C482.861 359.35 494.191 308.39 528.851 308.54Z" fill="black"/>
<path opacity="0.1" d="M648.46 334.49C647.94 335.99 636.86 349.49 636.81 349.85C636.76 350.21 636.42 353.95 636.22 354.35C636.02 354.75 625.08 364.35 623.52 364.69C621.96 365.03 615.58 365.21 614.68 365.47C613.78 365.73 602.68 373.02 601.78 373.41C600.88 373.8 595.53 373.41 593.97 373.41C593.5 373.41 594.97 364 594.69 355.41C594.26 340.49 585.15 321.71 567.25 312.54C576.96 314.61 593.16 327.87 599.7 341.54C606.24 355.21 604.56 356.22 606.09 357.87C607.62 359.52 612.69 356.19 615.03 355.6C617.37 355.01 625.03 354.82 627.93 354.24C630.83 353.66 631.33 348.38 633.34 347.24C635.35 346.1 645.56 337.94 648.46 334.49Z" fill="black"/>
<path d="M400.741 100.825C400.741 82.6052 381.601 71.0652 362.081 80.1952C357.664 82.2584 354.051 85.7205 351.801 90.0452C346.891 99.5552 349.061 110.415 353.511 119.435L368.711 157.945C369.191 159.172 370.03 160.226 371.118 160.969C372.206 161.712 373.493 162.109 374.811 162.109C376.128 162.109 377.415 161.712 378.504 160.969C379.592 160.226 380.431 159.172 380.911 157.945L395.801 119.235C400.961 107.435 400.741 100.825 400.741 100.825ZM382.441 116.725C369.321 124.355 356.021 110.255 363.211 96.3352C364.158 94.4996 365.603 92.9678 367.381 91.9152C380.511 84.2852 393.811 98.3852 386.611 112.305C385.667 114.144 384.221 115.677 382.441 116.725Z" fill="#0052CC"/>
<path d="M434.59 439.57C436.59 440.2 492.16 439.48 494.26 438.1C495.07 437.59 495.43 429.48 495.6 419.67V419.36C495.6 417.36 495.66 415.26 495.67 413.15C495.67 412.86 495.67 412.57 495.67 412.28L493 383.43L455.79 383.8L459.46 412.38L459.51 413.51L459.73 419.43V420.04C459.73 420.04 438.57 429.83 436.42 431.59C434.27 433.35 432.64 439 434.59 439.57Z" fill="#EDBCAE"/>
<path d="M434.59 439.57C436.59 440.2 492.16 439.48 494.26 438.1C495.07 437.59 495.43 429.48 495.6 419.67V419.36C495.6 417.36 495.66 415.26 495.67 413.15C495.67 412.86 495.67 412.57 495.67 412.28L459.43 412.38L459.48 413.51L459.7 419.43V420.04C459.7 420.04 438.54 429.83 436.39 431.59C434.24 433.35 432.64 439 434.59 439.57Z" fill="#EBEBEB"/>
<path d="M434.59 439.56C435.59 439.89 450.7 439.85 465.47 439.56C468.47 439.5 471.39 439.44 474.21 439.36C484.74 439.07 493.45 438.64 494.21 438.11C494.97 437.58 495.38 429.72 495.54 420.11C495.54 419.97 495.54 419.84 495.54 419.7C495.54 419.56 495.54 419.49 495.54 419.39L459.69 419.45V420.07C459.69 420.07 438.52 429.86 436.38 431.61C434.24 433.36 432.64 438.94 434.59 439.56Z" fill="#4993FF"/>
<path d="M435.19 437.4C444.57 437.05 482.4 436.52 491.69 436.88C491.77 436.88 491.77 436.93 491.69 436.94C482.41 437.49 444.57 437.72 435.2 437.56C435 437.55 435 437.41 435.19 437.4Z" fill="#263238"/>
<path d="M455.72 419.58C459.4 418.85 463.92 419.35 466.72 421.95C466.83 422.05 466.72 422.2 466.57 422.17C463.03 421.076 459.383 420.365 455.69 420.05C455.637 420.036 455.59 420.003 455.557 419.958C455.525 419.913 455.509 419.858 455.512 419.803C455.516 419.747 455.538 419.695 455.576 419.654C455.614 419.613 455.665 419.587 455.72 419.58Z" fill="#263238"/>
<path d="M453.08 421.22C456.76 420.49 461.28 420.99 464.13 423.58C464.24 423.69 464.13 423.84 463.98 423.8C460.439 422.709 456.792 422.001 453.1 421.69C453.045 421.681 452.995 421.654 452.958 421.613C452.921 421.571 452.9 421.518 452.898 421.463C452.895 421.408 452.912 421.353 452.945 421.309C452.979 421.265 453.026 421.233 453.08 421.22Z" fill="#263238"/>
<path d="M450.43 422.86C454.11 422.12 458.63 422.63 461.49 425.22C461.6 425.32 461.49 425.48 461.33 425.44C457.793 424.348 454.148 423.64 450.46 423.33C450.405 423.323 450.354 423.297 450.316 423.256C450.278 423.215 450.255 423.163 450.251 423.107C450.248 423.052 450.264 422.997 450.296 422.952C450.329 422.907 450.376 422.874 450.43 422.86Z" fill="#263238"/>
<path d="M465.47 439.55C468.47 439.49 471.39 439.43 474.21 439.35C484.74 439.06 493.45 438.63 494.21 438.1C494.97 437.57 495.38 429.71 495.54 420.1C495.54 419.96 495.54 419.83 495.54 419.69C495.54 419.55 495.54 419.48 495.54 419.38C490.65 422.8 473.34 434.32 465.47 439.55Z" fill="#263238"/>
<path d="M457.27 419.55H497.33C497.33 419.55 489.26 326 489.58 324.36C489.98 322.27 492.34 312.8 495.49 300.43L498.64 288.1C501.64 276.47 504.92 263.75 507.79 252.68C512.1 236.09 515.46 223.21 515.46 223.21H481.46C481.46 223.21 477.46 235.75 472.52 252.07C464.39 278.59 453.52 315.07 452.46 323.97C450.78 338.29 457.27 419.55 457.27 419.55Z" fill="#455A64"/>
<path d="M459 412.72C465.12 412.59 463.36 412.54 469.48 412.48C472.48 412.48 492.15 412.28 494.95 412.74C495.01 412.74 495.01 412.86 494.95 412.87C492.15 413.33 472.48 413.16 469.48 413.13C463.36 413.07 465.12 413.02 459 412.9C458.93 412.89 458.93 412.72 459 412.72Z" fill="#263238"/>
<path d="M482 318.65C483.31 312.86 485.27 307.18 487 301.5C490.473 289.947 493.967 278.404 497.48 266.87C499.233 261.103 500.993 255.337 502.76 249.57C503.66 246.66 504.55 243.75 505.47 240.85C506.39 237.95 507.37 235.19 508.18 232.32C508.5 231.15 508.68 231.79 508.26 233.32C507.42 236.32 506.58 239.32 505.71 242.32C503.99 248.22 502.253 254.12 500.5 260.02C497.033 271.753 493.533 283.48 490 295.2L484.69 312.82C483.801 315.618 483.08 318.467 482.53 321.35C482.054 324.366 481.936 327.427 482.18 330.47C482.56 336.6 483.27 342.72 483.84 348.84C484.41 354.96 484.97 361.09 485.54 367.22C486.66 379.407 487.777 391.6 488.89 403.8C489.03 405.34 489.17 406.89 489.29 408.44C489.29 408.95 488.54 408.91 488.49 408.44C487.17 396.38 486.16 384.28 485.02 372.21C483.88 360.14 482.77 348.21 481.65 336.16C481.37 333.16 481.05 330.16 481.04 327.09C481.04 324.25 481.363 321.418 482 318.65Z" fill="#263238"/>
<path d="M485.36 223.21C487.72 241.45 492.21 275.63 495.49 300.43C503.15 270.38 515.49 223.21 515.49 223.21H485.36Z" fill="#263238"/>
<path d="M477 440.1C478.94 440.74 534.56 440.22 536.67 438.85C537.48 438.35 537.87 430.24 538.07 420.43V420.12C538.07 418.12 538.15 416.02 538.16 413.91C538.16 413.62 538.16 413.33 538.16 413.04C538.29 398.88 537.27 384.18 537.27 384.18L500.91 384.42L502 413V414.13L502.21 420.05V420.65C502.21 420.65 481.01 430.38 478.85 432.12C476.69 433.86 475.08 439.47 477 440.1Z" fill="#EDBCAE"/>
<path d="M477 440.1C478.94 440.74 534.56 440.22 536.67 438.85C537.48 438.35 537.87 430.24 538.07 420.43V420.12C538.07 418.12 538.15 416.02 538.16 413.91C538.16 413.62 538.16 413.33 538.16 413.04L502 413V414.13L502.21 420.05V420.65C502.21 420.65 481.01 430.38 478.85 432.12C476.69 433.86 475.08 439.47 477 440.1Z" fill="#EBEBEB"/>
<path d="M477 440.1C478.94 440.74 534.56 440.22 536.67 438.85C537.48 438.35 537.87 430.24 538.07 420.43V420.12L502.19 420.06V420.66C502.19 420.66 480.99 430.39 478.83 432.13C476.67 433.87 475.08 439.47 477 440.1Z" fill="#4993FF"/>
<path d="M477.64 437.94C487.01 437.62 524.85 437.23 534.14 437.62C534.21 437.62 534.21 437.68 534.14 437.68C524.85 438.2 487.01 438.29 477.64 438.09C477.44 438.09 477.44 438 477.64 437.94Z" fill="#263238"/>
<path d="M498.22 420.2C501.91 419.47 506.42 420 509.22 422.6C509.33 422.7 509.22 422.85 509.06 422.82C505.525 421.711 501.881 420.986 498.19 420.66C498.129 420.656 498.072 420.628 498.032 420.582C497.992 420.536 497.971 420.476 497.975 420.415C497.979 420.354 498.007 420.297 498.053 420.257C498.099 420.216 498.159 420.196 498.22 420.2Z" fill="#263238"/>
<path d="M495.58 421.83C499.26 421.1 503.78 421.63 506.58 424.23C506.69 424.33 506.58 424.48 506.43 424.45C502.895 423.342 499.25 422.618 495.56 422.29C495.499 422.287 495.442 422.261 495.4 422.216C495.359 422.171 495.337 422.111 495.34 422.05C495.343 421.989 495.369 421.932 495.414 421.89C495.46 421.849 495.519 421.827 495.58 421.83Z" fill="#263238"/>
<path d="M492.93 423.45C496.61 422.73 501.13 423.26 503.93 425.86C504.04 425.96 503.93 426.11 503.78 426.08C500.274 424.978 496.66 424.254 493 423.92C492.942 423.92 492.886 423.9 492.843 423.862C492.799 423.825 492.77 423.773 492.761 423.715C492.753 423.658 492.765 423.6 492.796 423.551C492.827 423.502 492.875 423.467 492.93 423.45Z" fill="#263238"/>
<path d="M482.61 223.21C482.61 223.21 483.39 239.46 487.11 252.32C487.41 253.38 487.73 254.43 488.11 255.43C491.514 256.799 494.788 258.472 497.89 260.43C497.89 260.43 498.28 273.5 498.67 288.07C499.11 304.37 499.56 322.54 499.47 326.39C499.13 340.81 501.27 420.11 501.27 420.11L541.27 420.27C541.27 420.27 534.03 331.72 534.08 326.44C534.15 317.95 532.14 280.44 530.58 253.05C529.58 236.18 528.85 223.18 528.85 223.18L482.61 223.21Z" fill="#455A64"/>
<path d="M502.61 413C508.73 412.89 506.97 412.84 513.09 412.8C516.09 412.8 535.76 412.7 538.56 413.18C538.576 413.18 538.591 413.186 538.603 413.198C538.614 413.209 538.62 413.224 538.62 413.24C538.62 413.256 538.614 413.271 538.603 413.283C538.591 413.294 538.576 413.3 538.56 413.3C535.76 413.75 516.08 413.5 513.09 413.45C506.97 413.37 508.73 413.33 502.61 413.17C502.593 413.164 502.577 413.153 502.566 413.137C502.556 413.122 502.55 413.104 502.55 413.085C502.55 413.066 502.556 413.048 502.566 413.033C502.577 413.018 502.593 413.006 502.61 413Z" fill="#263238"/>
<path d="M525.5 229C526.24 251.34 527.02 273.68 528.02 296C529.02 318.32 530.37 340.81 532.25 363.16C533.25 375.65 534.25 393.22 535.63 405.68C535.63 405.76 535.51 405.79 535.5 405.68C532.58 383.52 530.96 356.11 529.5 333.81C528.04 311.51 527.1 289.17 526.34 266.81C525.91 254.17 525.58 241.54 525.2 228.9C525.22 228.82 525.49 228.84 525.5 229Z" fill="#263238"/>
<path d="M486.41 254.47C490.395 256.131 494.226 258.139 497.86 260.47C497.892 260.486 497.916 260.514 497.927 260.548C497.938 260.581 497.936 260.618 497.92 260.65C497.904 260.682 497.876 260.706 497.842 260.717C497.809 260.729 497.772 260.726 497.74 260.71C493.88 258.83 489.93 257.02 486.18 254.94C486.117 254.909 486.07 254.855 486.047 254.79C486.025 254.724 486.029 254.652 486.06 254.59C486.09 254.528 486.144 254.48 486.21 254.458C486.276 254.435 486.348 254.439 486.41 254.47Z" fill="#263238"/>
<path d="M484 236.5C484.32 238.22 484.73 239.92 485.1 241.62C485.47 243.32 485.71 244.86 486.1 246.44C486.453 247.959 487.23 249.346 488.34 250.44C488.97 251.02 489.66 251.54 490.34 252.07L491.47 252.93C491.42 252.7 491.38 252.47 491.34 252.24L491.01 250.29C490.76 248.84 490.53 247.39 490.31 245.94C489.88 243.09 489.48 240.21 488.88 237.39C488.88 237.366 488.89 237.343 488.907 237.326C488.924 237.31 488.946 237.3 488.97 237.3C488.994 237.3 489.017 237.31 489.034 237.326C489.051 237.343 489.06 237.366 489.06 237.39C489.77 240.18 490.55 242.95 491.17 245.77C491.47 247.15 492.55 253.97 492.6 254.46C492.65 254.95 492.69 255.46 492.71 255.96C492.78 256.468 492.78 256.982 492.71 257.49C492.71 257.61 492.53 257.59 492.48 257.49C492.277 257.013 492.132 256.512 492.05 256C491.919 255.516 491.812 255.025 491.73 254.53L491.64 253.98C490.97 253.57 490.35 253.03 489.72 252.58C489.09 252.13 488.35 251.58 487.72 251.07C486.536 250.07 485.682 248.735 485.27 247.24C484.853 245.632 484.585 243.988 484.47 242.33C484.25 240.4 484.09 238.45 483.82 236.51C483.82 236.43 484 236.38 484 236.5Z" fill="#263238"/>
<path d="M456.5 147L461.32 173.13C461.55 173.91 461.13 174.5 460.39 174.45L447.12 173.6C446.716 173.541 446.338 173.37 446.026 173.107C445.715 172.844 445.484 172.498 445.36 172.11L440.54 145.97C440.31 145.2 440.73 144.61 441.47 144.66L454.74 145.51C455.144 145.567 455.524 145.737 455.835 146.001C456.147 146.264 456.377 146.611 456.5 147Z" fill="#37474F"/>
<path d="M454.92 146.83L459.75 173C459.98 173.77 459.56 174.36 458.82 174.31L445.54 173.46C445.137 173.403 444.758 173.232 444.449 172.968C444.139 172.705 443.91 172.358 443.79 171.97L439 145.81C438.77 145.03 439.19 144.45 439.93 144.49L453.21 145.35C453.604 145.412 453.974 145.584 454.276 145.846C454.578 146.107 454.801 146.448 454.92 146.83Z" fill="#455A64"/>
<path d="M451.21 147.77C451.2 147.994 451.257 148.215 451.373 148.406C451.49 148.598 451.66 148.75 451.863 148.844C452.066 148.939 452.293 148.97 452.514 148.936C452.735 148.901 452.941 148.802 453.105 148.65C453.27 148.498 453.386 148.301 453.438 148.083C453.49 147.865 453.476 147.637 453.399 147.427C453.321 147.217 453.183 147.035 453.001 146.904C452.82 146.773 452.604 146.698 452.38 146.69C452.232 146.683 452.084 146.706 451.945 146.757C451.806 146.808 451.679 146.886 451.57 146.986C451.461 147.086 451.373 147.207 451.311 147.342C451.25 147.477 451.215 147.622 451.21 147.77Z" fill="#263238"/>
<path d="M496.78 188.64C488.38 204.23 470.35 224.08 463.37 223.78C460.05 223.64 454.07 224.11 449.92 220.05C440.87 211.2 433.8 194.83 432.69 185.62C432.29 182.35 448.46 176.19 450.64 178.96C455.75 185.45 461.43 197.96 462.4 197.96C465.98 197.88 480.6 187.02 490.81 179.37C503.2 170 500.13 182.43 496.78 188.64Z" fill="#EDBCAE"/>
<path d="M433.22 168.84C435.22 162.35 436.78 160.99 435.58 154.6C434.8 150.41 437.14 148.11 439.89 151.6C444.39 157.3 443.52 166.23 442.33 169.23L433.22 168.84Z" fill="#EDBCAE"/>
<path d="M433.3 188.49C433.3 188.49 430.87 179.15 432.35 172.02C433.35 167.09 436.81 156.6 451.04 151.76C454.42 150.61 460.04 151.37 455.21 155.25C451.78 158 448.77 158.71 447.06 160.68C447.06 160.68 454.11 162.49 455.13 165.92C456.012 168.919 456.681 171.977 457.13 175.07C456.581 175.281 456.02 175.458 455.45 175.6C455.45 175.6 456.31 178.84 453.7 183.22L433.3 188.49Z" fill="#EDBCAE"/>
<path d="M434.08 167.47C436.19 165.87 440.71 162.57 445.34 161.15C450.49 159.58 460.84 157.93 461.96 161.75C462.78 164.54 458.89 165.52 458.89 165.52C458.89 165.52 463.31 165.74 463.5 168.43C463.67 170.88 460.61 171.43 460.61 171.43C460.61 171.43 463.27 172.03 462.98 174.43C462.64 177.31 457.13 175.59 454.26 178.2C453.62 178.8 434.08 167.47 434.08 167.47Z" fill="#EDBCAE"/>
<path d="M446.1 166.87C450.094 165.116 454.527 164.618 458.81 165.44C458.92 165.44 458.95 165.56 458.81 165.56C454.524 165.496 450.246 165.953 446.07 166.92C446.07 166.92 446.07 166.88 446.1 166.87Z" fill="#263238"/>
<path d="M447.84 172C451.959 170.635 456.37 170.403 460.61 171.33C460.72 171.33 460.75 171.46 460.61 171.45C456.334 171.167 452.04 171.368 447.81 172.05C447.81 172.05 447.81 172 447.84 172Z" fill="#263238"/>
<path d="M432.17 192.29C432.17 192.29 443.71 218.53 451.06 221.9C458.41 225.27 462.94 224.9 465.76 224.59C466.838 224.389 467.861 223.959 468.76 223.33C476.63 218.33 491.24 199.95 497.34 189.49C501.91 181.64 501.85 174.29 495.46 176.31C493.288 177.095 491.26 178.234 489.46 179.68C477.46 188.68 463.55 197.16 462.93 196.79C462.31 196.42 456.27 185.58 456.27 185.58L432.17 192.29Z" fill="#4993FF"/>
<path d="M498.64 177.17C499.124 177.385 499.635 177.533 500.16 177.61C500.082 177.445 499.988 177.287 499.88 177.14C499.467 177.095 499.05 177.105 498.64 177.17Z" fill="white"/>
<path opacity="0.1" d="M468.8 223.33C476.67 218.33 491.28 199.95 497.38 189.49C501.95 181.64 501.89 174.29 495.5 176.31C492 182.48 476.46 209.5 468.8 223.33Z" fill="black"/>
<path d="M435.11 197.12C435.99 196.69 444.28 193.98 446.11 193.43C447.94 192.88 455.3 190.56 457.22 190.15C457.233 190.155 457.244 190.164 457.252 190.176C457.26 190.187 457.264 190.201 457.264 190.215C457.264 190.229 457.26 190.243 457.252 190.254C457.244 190.266 457.233 190.275 457.22 190.28C455.42 191.04 447.98 193.4 446.14 194C444.3 194.6 436.06 197.1 435.14 197.25C435.06 197.26 435.05 197.15 435.11 197.12Z" fill="#263238"/>
<path d="M475 243.08C475.8 244.08 532.22 247.6 532.53 247.26C533.38 246.36 520.21 184.37 508.15 173.41C505.56 171.06 497.66 172.9 495.48 174.63C494.11 175.72 490.56 183.17 488.07 189.38C483.11 201.82 474.29 242.2 475 243.08Z" fill="#263238"/>
<path d="M496.93 172.24C494.51 173.64 491.82 181.97 496.77 183.71C501.72 185.45 507.37 177.97 508.36 175.45C509.35 172.93 502.14 169.23 496.93 172.24Z" fill="#4993FF"/>
<path d="M497.27 182.59C500.38 183.36 505.77 178.65 507.93 174.82C508.07 174.55 507.7 171.76 507.4 168.35C507.23 166.28 507.08 163.97 507.1 161.85L493.79 164.94C494.521 167.597 494.921 170.335 494.98 173.09C494.978 173.38 494.944 173.668 494.88 173.95C494.884 174 494.884 174.05 494.88 174.1C494.58 175.75 494.27 181.84 497.27 182.59Z" fill="#EDBCAE"/>
<path d="M506.47 162C506.03 164.65 503.92 174.1 496.23 174.2C495.772 174.203 495.314 174.172 494.86 174.11C494.853 174.06 494.853 174.01 494.86 173.96C494.92 173.677 494.953 173.389 494.96 173.1C494.888 170.344 494.481 167.608 493.75 164.95L506.47 162Z" fill="#263238"/>
<path d="M507.77 145.32C509.52 149.92 507.94 163.67 504.77 166.92C500.22 171.63 492.31 172.58 488.19 167C484.19 161.6 486.57 143.72 490.12 140.72C495.38 136.3 505.19 138.51 507.77 145.32Z" fill="#EDBCAE"/>
<path d="M496.27 153.61C497.77 153.67 497.56 156.67 496.17 156.61C494.78 156.55 495 153.57 496.27 153.61Z" fill="#263238"/>
<path d="M489.37 153.12C487.88 152.91 487.56 155.9 488.93 156.12C490.3 156.34 490.62 153.31 489.37 153.12Z" fill="#263238"/>
<path d="M497.55 152.33C497.15 152.19 496.8 152.01 496.42 151.84C495.996 151.72 495.623 151.464 495.36 151.11C495.299 150.984 495.28 150.842 495.307 150.705C495.334 150.568 495.405 150.443 495.51 150.35C495.753 150.21 496.029 150.136 496.31 150.136C496.591 150.136 496.867 150.21 497.11 150.35C497.653 150.547 498.102 150.939 498.37 151.45C498.411 151.567 498.419 151.693 498.393 151.814C498.368 151.935 498.31 152.047 498.225 152.137C498.141 152.228 498.034 152.294 497.915 152.328C497.796 152.362 497.67 152.362 497.55 152.33Z" fill="#263238"/>
<path d="M488.29 152.2C488.697 152.147 489.101 152.074 489.5 151.98C489.94 151.956 490.361 151.792 490.7 151.51C490.786 151.398 490.833 151.261 490.833 151.12C490.833 150.979 490.786 150.842 490.7 150.73C490.503 150.532 490.256 150.391 489.985 150.32C489.714 150.25 489.429 150.253 489.16 150.33C488.587 150.397 488.059 150.675 487.68 151.11C487.599 151.215 487.551 151.342 487.542 151.475C487.532 151.607 487.562 151.74 487.627 151.856C487.692 151.972 487.789 152.066 487.907 152.127C488.025 152.188 488.158 152.214 488.29 152.2Z" fill="#263238"/>
<path d="M496.28 163.24C496.04 163.44 495.8 163.72 495.46 163.73C495.11 163.697 494.77 163.595 494.46 163.43C494.58 163.622 494.749 163.777 494.949 163.881C495.15 163.985 495.375 164.033 495.6 164.02C495.793 163.983 495.97 163.891 496.111 163.754C496.251 163.617 496.348 163.442 496.39 163.25C496.39 163.23 496.32 163.21 496.28 163.24Z" fill="#263238"/>
<path d="M495.5 160.39C495.237 160.74 494.906 161.032 494.526 161.249C494.145 161.466 493.725 161.602 493.29 161.65C492.912 161.7 492.528 161.7 492.15 161.65H491.93L491.73 161.6C491.681 161.589 491.637 161.56 491.606 161.52C491.575 161.48 491.559 161.431 491.56 161.38C491.555 161.35 491.555 161.32 491.56 161.29V161.21C491.56 160.49 491.74 159.41 491.74 159.41C491.47 159.52 490.09 160.03 490.14 159.66C490.45 156.437 491.086 153.254 492.04 150.16C492.046 150.142 492.058 150.127 492.073 150.116C492.088 150.105 492.106 150.1 492.125 150.1C492.144 150.1 492.162 150.105 492.177 150.116C492.192 150.127 492.204 150.142 492.21 150.16C491.94 153.16 491.15 156.05 490.83 159.04C491.319 158.845 491.835 158.727 492.36 158.69C492.46 158.69 492.04 160.78 492.05 161.1C492.632 161.201 493.229 161.184 493.804 161.05C494.38 160.916 494.922 160.668 495.4 160.32C495.49 160.25 495.56 160.32 495.5 160.39Z" fill="#263238"/>
<path d="M492.69 161.46C493.087 161.961 493.607 162.351 494.2 162.59C494.526 162.692 494.875 162.692 495.2 162.59C495.93 162.39 495.94 161.71 495.8 161.13C495.718 160.824 495.601 160.529 495.45 160.25C494.683 160.937 493.716 161.361 492.69 161.46Z" fill="#263238"/>
<path d="M494.2 162.59C494.526 162.692 494.875 162.692 495.2 162.59C495.93 162.39 495.94 161.71 495.8 161.13C495.408 161.157 495.036 161.316 494.745 161.581C494.455 161.846 494.263 162.202 494.2 162.59Z" fill="#F392B9"/>
<path d="M504.71 156.19C504.71 156.19 507.57 151.65 509.62 152.65C511.67 153.65 509.62 160.14 507.35 161.12C507.064 161.267 506.752 161.354 506.431 161.377C506.111 161.4 505.789 161.358 505.486 161.254C505.182 161.149 504.903 160.984 504.664 160.769C504.426 160.553 504.234 160.292 504.1 160L504.71 156.19Z" fill="#EDBCAE"/>
<path d="M508.999 154.5C508.999 154.5 508.999 154.5 508.999 154.56C508.264 154.97 507.623 155.53 507.118 156.203C506.614 156.877 506.256 157.649 506.069 158.47C506.155 158.302 506.276 158.154 506.424 158.037C506.572 157.92 506.743 157.837 506.927 157.792C507.11 157.748 507.301 157.743 507.486 157.779C507.671 157.815 507.846 157.89 507.999 158C507.999 158 507.999 158.1 507.999 158.09C507.707 158.011 507.397 158.024 507.113 158.128C506.828 158.232 506.582 158.421 506.409 158.67C506.124 159.089 505.886 159.539 505.699 160.01C505.629 160.17 505.359 160.1 505.409 159.93C505.269 157.82 506.759 154.81 508.999 154.5Z" fill="#263238"/>
<path d="M488.52 146.72C493.01 149.57 498.84 144.81 498.84 144.81C499.251 145.764 499.961 146.558 500.863 147.072C501.765 147.586 502.81 147.793 503.84 147.66C503.84 147.66 504.96 155.05 506.92 154.97C509.92 154.85 510.46 144.69 509.45 142.74C509.054 142.118 508.533 141.586 507.92 141.176C507.307 140.766 506.616 140.488 505.89 140.36C505.569 139.166 504.808 138.137 503.76 137.48C501.67 136 494.76 138.34 494.76 138.34C494.324 137.416 493.676 136.607 492.87 135.98C492.677 135.823 492.455 135.707 492.216 135.638C491.977 135.569 491.726 135.55 491.479 135.581C491.233 135.611 490.995 135.692 490.78 135.817C490.565 135.943 490.378 136.11 490.23 136.31C490.623 136.847 490.89 137.465 491.01 138.12C491.44 140.28 489.66 140.34 489.61 138.37C489.565 137.631 489.785 136.901 490.23 136.31C489.31 135.06 487.86 134.69 487.02 135.41C485.4 136.72 484.78 144.35 488.52 146.72Z" fill="#263238"/>
<path d="M513.32 178.42C530.22 196.01 554.86 240.55 557.9 246.94C559.97 251.28 537.3 262.71 536.34 259.55C535.11 255.55 515.34 205.66 510.12 186.85C507.22 176.48 509.83 174.78 513.32 178.42Z" fill="#EDBCAE"/>
<path d="M535.27 256.57C536.06 258.73 538.75 267.91 540.64 269.05C542.53 270.19 552.4 269.95 557.38 269.95C562.36 269.95 563.38 268.56 563.26 266.84C563.14 265.12 552.729 264.84 552.729 264.84C552.729 264.84 566.68 268.84 570.19 269.5C573.7 270.16 581.79 272.19 582.96 269.28C583.48 267.97 581.27 266.64 581.27 266.64C581.27 266.64 584.66 267.64 585.2 265.94C585.82 264.02 583.12 262.94 583.12 262.94C583.12 262.94 585.239 263.36 585.289 261.8C585.399 258.3 572.13 256.58 572.13 256.58C572.13 256.58 582.289 261.53 582.609 258.68C583.069 254.68 562.24 250.4 560.07 248.68C558.653 247.485 557.475 246.033 556.599 244.4L535.27 256.57Z" fill="#EDBCAE"/>
<path d="M563.18 267.71C563.215 267.467 563.19 267.219 563.108 266.987C563.026 266.756 562.89 266.547 562.71 266.38C562.349 266.051 561.937 265.784 561.49 265.59C560.569 265.198 559.615 264.89 558.64 264.67C556.64 264.17 554.64 263.82 552.64 263.3C554.711 263.27 556.777 263.501 558.79 263.99C559.817 264.224 560.807 264.601 561.73 265.11C562.206 265.374 562.622 265.735 562.95 266.17C563.119 266.385 563.229 266.639 563.269 266.91C563.309 267.18 563.279 267.455 563.18 267.71Z" fill="#263238"/>
<path d="M581.27 266.6C579.83 266.25 578.42 265.84 577.01 265.44C575.6 265.04 574.19 264.59 572.78 264.17L568.58 262.85C567.18 262.41 565.78 261.98 564.36 261.56C565.831 261.715 567.288 261.975 568.72 262.34C570.16 262.66 571.58 263.08 572.99 263.5C574.4 263.92 575.8 264.4 577.17 264.93C578.54 265.46 579.93 266 581.27 266.6Z" fill="#263238"/>
<path d="M567.729 258.07C569.075 258.158 570.412 258.345 571.729 258.63C573.059 258.894 574.375 259.228 575.669 259.63C576.966 260.032 578.238 260.51 579.479 261.06C580.726 261.592 581.933 262.214 583.09 262.92C581.81 262.47 580.56 261.98 579.28 261.56C578 261.14 576.74 260.69 575.46 260.3C574.18 259.91 572.889 259.52 571.599 259.14C570.309 258.76 568.999 258.43 567.729 258.07Z" fill="#263238"/>
<path d="M569.78 254.74C574.17 255.132 578.397 256.595 582.09 259C580.02 258.26 578.02 257.49 575.97 256.8C573.92 256.11 571.87 255.41 569.78 254.74Z" fill="#263238"/>
<path d="M510.33 191.73C514.33 208.97 533.5 256.13 533.5 256.13L550.72 247.83L559.4 243.64C559.4 243.64 529.83 197.44 517.75 182.33C516.81 181.17 515.96 180.17 515.18 179.33C507.69 171.33 507.23 178.43 510.33 191.73Z" fill="#4993FF"/>
<path d="M532.07 251C542.2 245.11 553.74 240.47 555.69 239.52C555.78 239.52 555.84 239.63 555.75 239.67C553.75 240.51 541.17 247.24 532.13 251.16C532 251.2 532 251 532.07 251Z" fill="#263238"/>
</svg>
