<svg width="750" height="500" viewBox="0 0 750 500" fill="none" xmlns="http://www.w3.org/2000/svg">
<path d="M87.9995 181.84C87.9995 181.84 145.88 102.49 264.43 84.7601C382.98 67.0301 515.53 173.44 568.74 213.58C621.95 253.72 724.84 289.58 734.9 353.58C744.96 417.58 711.78 448.91 711.78 448.91H41.2895C41.2895 448.91 17.9995 341.46 44.0895 271.45C70.1795 201.44 87.9995 181.84 87.9995 181.84Z" fill="#4993FF"/>
<path opacity="0.7" d="M87.9995 181.84C87.9995 181.84 145.88 102.49 264.43 84.7601C382.98 67.0301 515.53 173.44 568.74 213.58C621.95 253.72 724.84 289.58 734.9 353.58C744.96 417.58 711.78 448.91 711.78 448.91H41.2895C41.2895 448.91 17.9995 341.46 44.0895 271.45C70.1795 201.44 87.9995 181.84 87.9995 181.84Z" fill="#E9F2FF"/>
<path d="M100.16 261.34V258.28C101.213 258.24 102 258.067 102.52 257.76C103.053 257.44 103.32 256.907 103.32 256.16V255.88C103.32 255.373 103.167 254.987 102.86 254.72C102.567 254.453 102.18 254.32 101.7 254.32C101.18 254.32 100.747 254.48 100.4 254.8C100.067 255.12 99.84 255.527 99.72 256.02L97.28 255C97.4 254.6 97.5733 254.213 97.8 253.84C98.0267 253.453 98.32 253.113 98.68 252.82C99.0533 252.513 99.4933 252.267 100 252.08C100.52 251.893 101.12 251.8 101.8 251.8C102.493 251.8 103.127 251.9 103.7 252.1C104.273 252.3 104.767 252.58 105.18 252.94C105.593 253.3 105.907 253.733 106.12 254.24C106.347 254.747 106.46 255.307 106.46 255.92C106.46 256.48 106.367 256.987 106.18 257.44C105.993 257.893 105.74 258.293 105.42 258.64C105.1 258.973 104.727 259.247 104.3 259.46C103.873 259.673 103.427 259.82 102.96 259.9V261.34H100.16ZM101.6 266.24C100.96 266.24 100.5 266.093 100.22 265.8C99.9533 265.507 99.82 265.147 99.82 264.72V264.24C99.82 263.813 99.9533 263.453 100.22 263.16C100.5 262.867 100.96 262.72 101.6 262.72C102.24 262.72 102.693 262.867 102.96 263.16C103.24 263.453 103.38 263.813 103.38 264.24V264.72C103.38 265.147 103.24 265.507 102.96 265.8C102.693 266.093 102.24 266.24 101.6 266.24Z" fill="#263238"/>
<path d="M711.37 43.6299H591.74V448.93H711.37V43.6299Z" fill="#FAFAFA" stroke="#263238" stroke-linecap="round" stroke-linejoin="round"/>
<path d="M711.37 292.63H591.74V448.93H711.37V292.63Z" fill="#4993FF" stroke="#263238" stroke-linecap="round" stroke-linejoin="round"/>
<path d="M658.65 395.56L594.61 331.52V351.92L658.65 415.96V395.56Z" fill="#263238"/>
<path d="M709.15 446.06L693.17 430.08V446.06H709.15Z" fill="#263238"/>
<path d="M658.65 446.06V434.58L594.61 370.54V390.94L649.73 446.06H658.65Z" fill="#263238"/>
<path d="M658.65 356.54L597.57 295.46H594.61V312.9L658.65 376.94V356.54Z" fill="#263238"/>
<path d="M693.17 391.06V411.46L711.37 429.66V409.26L693.17 391.06Z" fill="#263238"/>
<path d="M631.11 446.06L594.61 409.56V429.95L610.71 446.06H631.11Z" fill="#263238"/>
<path d="M658.65 317.52L636.59 295.46H616.19L658.65 337.92V317.52Z" fill="#263238"/>
<path d="M693.17 352.04V372.44L711.37 390.64V370.24L693.17 352.04Z" fill="#263238"/>
<path d="M711.37 43.6299H662.88V448.93H711.37V43.6299Z" fill="#E9F2FF" stroke="#263238" stroke-linecap="round" stroke-linejoin="round"/>
<path d="M711.37 292.63H662.88V448.93H711.37V292.63Z" fill="#4993FF" stroke="#263238" stroke-linecap="round" stroke-linejoin="round"/>
<path d="M666.15 363.23V383.63L709.68 340.1V319.7L666.15 363.23Z" fill="#263238"/>
<path d="M666.15 441.26V448.93H678.89L709.68 418.14V397.74L666.15 441.26Z" fill="#263238"/>
<path d="M695.4 294.96L666.15 324.21V344.61L709.68 301.08V294.96H695.4Z" fill="#263238"/>
<path d="M666.15 402.25V422.64L709.68 379.12V358.72L666.15 402.25Z" fill="#263238"/>
<path d="M709.68 436.75L697.51 448.93H709.68V436.75Z" fill="#263238"/>
<path d="M346.4 78.1599V43.6299" stroke="#263238" stroke-linecap="round" stroke-linejoin="round"/>
<path d="M321.94 78.1599V43.6299" stroke="black" stroke-miterlimit="10"/>
<path d="M297.48 78.1599V43.6299" stroke="black" stroke-miterlimit="10"/>
<path d="M433.46 78.1599V43.6299" stroke="#263238" stroke-linecap="round" stroke-linejoin="round"/>
<path d="M409 78.1599V43.6299" stroke="black" stroke-miterlimit="10"/>
<path d="M384.54 78.1599V43.6299" stroke="black" stroke-miterlimit="10"/>
<path d="M520.53 78.1599V43.6299" stroke="#263238" stroke-linecap="round" stroke-linejoin="round"/>
<path d="M496.06 78.1599V43.6299" stroke="black" stroke-miterlimit="10"/>
<path d="M471.6 78.1599V43.6299" stroke="black" stroke-miterlimit="10"/>
<path d="M607.59 78.1599V43.6299" stroke="#263238" stroke-linecap="round" stroke-linejoin="round"/>
<path d="M583.12 78.1599V43.6299" stroke="black" stroke-miterlimit="10"/>
<path d="M558.66 78.1599V43.6299" stroke="black" stroke-miterlimit="10"/>
<path d="M625.09 78.96H552.71V91.9H625.09V78.96Z" fill="#263238" stroke="#263238" stroke-linecap="round" stroke-linejoin="round"/>
<path d="M625.09 83.3999H552.71V91.8999H625.09V83.3999Z" fill="#E9F2FF" stroke="#263238" stroke-linecap="round" stroke-linejoin="round"/>
<path d="M625.09 83.3999H575.08V91.8999H625.09V83.3999Z" fill="#E9F2FF" stroke="#263238" stroke-linecap="round" stroke-linejoin="round"/>
<path d="M534.8 78.96H462.42V91.9H534.8V78.96Z" fill="#263238" stroke="#263238" stroke-linecap="round" stroke-linejoin="round"/>
<path d="M534.8 83.3999H462.42V91.8999H534.8V83.3999Z" fill="#E9F2FF" stroke="#263238" stroke-linecap="round" stroke-linejoin="round"/>
<path d="M534.8 83.3999H484.79V91.8999H534.8V83.3999Z" fill="#E9F2FF" stroke="#263238" stroke-linecap="round" stroke-linejoin="round"/>
<path d="M444.52 78.96H372.14V91.9H444.52V78.96Z" fill="#263238" stroke="#263238" stroke-linecap="round" stroke-linejoin="round"/>
<path d="M444.52 83.3999H372.14V91.8999H444.52V83.3999Z" fill="#E9F2FF" stroke="#263238" stroke-linecap="round" stroke-linejoin="round"/>
<path d="M444.52 83.3999H394.51V91.8999H444.52V83.3999Z" fill="#E9F2FF" stroke="#263238" stroke-linecap="round" stroke-linejoin="round"/>
<path d="M354.23 78.96H281.85V91.9H354.23V78.96Z" fill="#263238" stroke="#263238" stroke-linecap="round" stroke-linejoin="round"/>
<path d="M354.23 83.3999H281.85V91.8999H354.23V83.3999Z" fill="#E9F2FF" stroke="#263238" stroke-linecap="round" stroke-linejoin="round"/>
<path d="M354.23 83.3999H304.22V91.8999H354.23V83.3999Z" fill="#E9F2FF" stroke="#263238" stroke-linecap="round" stroke-linejoin="round"/>
<path d="M624.14 64.49H280.21V70.25H624.14V64.49Z" fill="#263238" stroke="#263238" stroke-linecap="round" stroke-linejoin="round"/>
<path d="M600.341 399.1H591.571L591.441 399.29C590.69 399.166 589.931 399.103 589.171 399.1C578.481 399.1 569.811 410.25 569.811 424.01C569.811 437.77 578.481 448.93 589.171 448.93C589.931 448.922 590.69 448.859 591.441 448.74L591.571 448.93H600.341C611.031 448.93 619.701 437.77 619.701 424.01C619.701 410.25 611.001 399.1 600.341 399.1Z" fill="#263238" stroke="#263238" stroke-linecap="round" stroke-linejoin="round"/>
<path d="M420.69 399.1H411.92L411.79 399.29C411.04 399.166 410.281 399.103 409.52 399.1C398.83 399.1 390.16 410.25 390.16 424.01C390.16 437.77 398.83 448.93 409.52 448.93C410.28 448.922 411.039 448.859 411.79 448.74L411.92 448.93H420.69C431.38 448.93 440.05 437.77 440.05 424.01C440.05 410.25 431.38 399.1 420.69 399.1Z" fill="#263238" stroke="#263238" stroke-linecap="round" stroke-linejoin="round"/>
<path d="M683.801 399.83H679.591L675.821 373.4C675.597 371.843 674.82 370.419 673.632 369.389C672.443 368.358 670.924 367.791 669.351 367.79H645.761L607.461 327.14C605.406 324.959 602.927 323.222 600.175 322.037C597.423 320.852 594.457 320.244 591.461 320.25H490.001C487.811 320.249 485.644 320.692 483.629 321.551C481.615 322.41 479.796 323.669 478.281 325.25L303.881 398.87V430H565.311L630.931 429.53L679.591 426.34V426.12H683.591C684.015 426.12 684.422 425.951 684.722 425.651C685.022 425.351 685.191 424.944 685.191 424.52V401.22C685.191 400.851 685.044 400.498 684.784 400.237C684.523 399.976 684.169 399.83 683.801 399.83Z" fill="#DEDCDC" stroke="#263238" stroke-linecap="round" stroke-linejoin="round"/>
<path d="M609.521 425.18V429.64L630.93 429.49L679.591 426.3V426.08H683.591C683.888 426.079 684.179 425.994 684.43 425.834C684.681 425.675 684.883 425.448 685.01 425.18H609.521Z" fill="#263238" stroke="#263238" stroke-linecap="round" stroke-linejoin="round"/>
<path d="M630.931 429.49C631.333 429.448 631.704 429.256 631.97 428.951C632.236 428.647 632.377 428.253 632.364 427.849C632.351 427.445 632.186 427.06 631.902 426.773C631.617 426.486 631.235 426.317 630.831 426.3H606.221L515.221 320.3H490.001C487.811 320.299 485.644 320.742 483.629 321.601C481.615 322.46 479.796 323.719 478.281 325.3L303.881 398.92V430H565.311L630.931 429.49Z" fill="#263238" stroke="#263238" stroke-linecap="round" stroke-linejoin="round"/>
<path d="M344.57 399.1H335.8L330.05 407.54C326.89 412.452 325.21 418.169 325.21 424.01C325.21 429.851 326.89 435.568 330.05 440.48L335.8 448.93H344.57C355.27 448.93 363.94 437.77 363.94 424.01C363.94 410.25 355.27 399.1 344.57 399.1Z" fill="#263238" stroke="#263238" stroke-linecap="round" stroke-linejoin="round"/>
<path d="M333.411 448.92C344.103 448.92 352.771 437.768 352.771 424.01C352.771 410.253 344.103 399.1 333.411 399.1C322.719 399.1 314.051 410.253 314.051 424.01C314.051 437.768 322.719 448.92 333.411 448.92Z" fill="white" stroke="#263238" stroke-linecap="round" stroke-linejoin="round"/>
<path d="M333.41 443.88C341.943 443.88 348.86 434.984 348.86 424.01C348.86 413.036 341.943 404.14 333.41 404.14C324.877 404.14 317.96 413.036 317.96 424.01C317.96 434.984 324.877 443.88 333.41 443.88Z" fill="#E9F2FF" stroke="#263238" stroke-linecap="round" stroke-linejoin="round"/>
<path d="M336.68 424C336.68 426.32 335.21 428.2 333.41 428.2C331.61 428.2 330.15 426.32 330.15 424C330.15 421.68 331.61 419.8 333.41 419.8C335.21 419.8 336.68 421.69 336.68 424Z" fill="#E9F2FF" stroke="#263238" stroke-linecap="round" stroke-linejoin="round"/>
<path d="M540 399.1H531.22L525.47 407.54C522.31 412.452 520.63 418.169 520.63 424.01C520.63 429.851 522.31 435.568 525.47 440.48L531.22 448.93H540C550.69 448.93 559.36 437.77 559.36 424.01C559.36 410.25 550.69 399.1 540 399.1Z" fill="#263238" stroke="#263238" stroke-linecap="round" stroke-linejoin="round"/>
<path d="M528.831 448.92C539.523 448.92 548.191 437.768 548.191 424.01C548.191 410.253 539.523 399.1 528.831 399.1C518.138 399.1 509.471 410.253 509.471 424.01C509.471 437.768 518.138 448.92 528.831 448.92Z" fill="white" stroke="#263238" stroke-linecap="round" stroke-linejoin="round"/>
<path d="M528.831 443.88C537.364 443.88 544.281 434.984 544.281 424.01C544.281 413.036 537.364 404.14 528.831 404.14C520.298 404.14 513.381 413.036 513.381 424.01C513.381 434.984 520.298 443.88 528.831 443.88Z" fill="#E9F2FF" stroke="#263238" stroke-linecap="round" stroke-linejoin="round"/>
<path d="M532.1 424C532.1 426.32 530.64 428.2 528.83 428.2C527.02 428.2 525.57 426.32 525.57 424C525.57 421.68 527.03 419.8 528.83 419.8C530.63 419.8 532.1 421.69 532.1 424Z" fill="#E9F2FF" stroke="#263238" stroke-linecap="round" stroke-linejoin="round"/>
<path d="M607.46 327.14C607.14 326.81 606.8 326.5 606.46 326.19H527.36V365.27H643.36L607.46 327.14Z" fill="#263238" stroke="#263238" stroke-linecap="round" stroke-linejoin="round"/>
<path d="M616.55 399.83H611.94L607.36 367.83H578.11L539.81 327.18C537.753 325.003 535.273 323.269 532.521 322.084C529.77 320.899 526.806 320.289 523.81 320.29H430.63C428.441 320.289 426.273 320.732 424.259 321.591C422.245 322.45 420.425 323.709 418.91 325.29L359.37 365L304.29 388.77L295.67 400.35C293.549 403.196 292.403 406.65 292.4 410.2V430H309.78V423.43C309.78 407.36 321.46 394.34 335.87 394.34C348.71 394.34 356.69 404.75 358.69 418.89L360.26 430H505.43V423.43C505.43 407.36 512.02 394.34 529.73 394.34C545.52 394.34 551.17 404.75 553.63 418.89L555.48 429.53L611.94 426.34V426.12H616.55V399.83Z" fill="#DEDCDC" stroke="#263238" stroke-linecap="round" stroke-linejoin="round"/>
<path d="M419.41 331.1L368.29 365H463.83V326.65H430C428.027 326.648 426.074 327.041 424.255 327.805C422.437 328.569 420.789 329.689 419.41 331.1Z" fill="#263238" stroke="#263238" stroke-linecap="round" stroke-linejoin="round"/>
<path d="M408.31 365L438.61 326.61H430C428.028 326.608 426.074 327.001 424.256 327.765C422.437 328.529 420.79 329.65 419.41 331.06L401.52 343L384.11 365H408.31Z" fill="#E9F2FF" stroke="#263238" stroke-linecap="round" stroke-linejoin="round"/>
<path d="M463.83 365.04V337.47L442.07 365.04H463.83Z" fill="#E9F2FF" stroke="#263238" stroke-linecap="round" stroke-linejoin="round"/>
<path d="M536.62 332.9L558.35 355.13C559.076 355.867 559.591 356.786 559.84 357.79C560.057 358.65 560.073 359.548 559.89 360.416C559.706 361.284 559.327 362.098 558.781 362.798C558.236 363.497 557.538 364.062 556.74 364.451C555.943 364.839 555.067 365.041 554.18 365.04H470.23V326.65H521.76C524.529 326.649 527.269 327.202 529.821 328.275C532.373 329.348 534.685 330.921 536.62 332.9Z" fill="#263238" stroke="#263238" stroke-linecap="round" stroke-linejoin="round"/>
<path d="M516.261 326.65H507.821L477.521 365.04H485.961L516.261 326.65Z" fill="#E9F2FF" stroke="#263238" stroke-linecap="round" stroke-linejoin="round"/>
<path d="M470.23 329.36V360.03L496.57 326.65H472.37L470.23 329.36Z" fill="#E9F2FF" stroke="#263238" stroke-linecap="round" stroke-linejoin="round"/>
<path d="M607.36 367.79H669.36C670.933 367.791 672.453 368.358 673.641 369.389C674.83 370.419 675.607 371.843 675.83 373.4L679.6 399.83H611.94L607.36 367.79Z" fill="#DEDCDC" stroke="#263238" stroke-linecap="round" stroke-linejoin="round"/>
<path d="M666.211 382.24H636.811V394.31H666.211V382.24Z" fill="#E9F2FF" stroke="#263238" stroke-linecap="round" stroke-linejoin="round"/>
<path d="M682.821 404.77H556.851" stroke="#263238" stroke-width="2" stroke-linecap="round" stroke-linejoin="round"/>
<path d="M500.561 404.77H360.971" stroke="#263238" stroke-width="2" stroke-linecap="round" stroke-linejoin="round"/>
<path d="M314.621 404.77H298.641" stroke="#263238" stroke-width="2" stroke-linecap="round" stroke-linejoin="round"/>
<path d="M631.731 382.43H604.001C602.715 382.429 601.454 382.787 600.361 383.464C599.267 384.14 598.384 385.109 597.811 386.26L593.161 395.55C592.957 395.974 592.863 396.443 592.889 396.913C592.915 397.383 593.059 397.839 593.309 398.239C593.558 398.638 593.905 398.968 594.316 399.197C594.727 399.426 595.19 399.548 595.661 399.55H631.771L631.731 382.43Z" fill="#B2B2B2" stroke="#263238" stroke-linecap="round" stroke-linejoin="round"/>
<path d="M631.731 382.43H609.351L611.801 399.59H631.731V382.43Z" fill="#263238" stroke="#263238" stroke-linecap="round" stroke-linejoin="round"/>
<path d="M677.001 382.43H670.221L670.141 399.59H679.451L677.001 382.43Z" fill="#263238" stroke="#263238" stroke-linecap="round" stroke-linejoin="round"/>
<path d="M374.52 357.04H360.69C359.586 357.04 358.69 357.935 358.69 359.04V370.13C358.69 371.235 359.586 372.13 360.69 372.13H374.52C375.625 372.13 376.52 371.235 376.52 370.13V359.04C376.52 357.935 375.625 357.04 374.52 357.04Z" fill="#263238" stroke="#263238" stroke-linecap="round" stroke-linejoin="round"/>
<path d="M461.54 372.13H444.4V378.99H461.54V372.13Z" fill="#263238" stroke="#263238" stroke-linecap="round" stroke-linejoin="round"/>
<path d="M465.66 369.39V421.5" stroke="#263238" stroke-linecap="round" stroke-linejoin="round"/>
<path d="M349.771 392.7C349.771 392.7 362.331 399.79 363.941 424.01H497.201" stroke="#263238" stroke-linecap="round" stroke-linejoin="round"/>
<path d="M560.281 403C560.281 403 553.721 385.85 531.741 385.85C516.421 385.85 509.091 393.9 505.431 400.25" stroke="#263238" stroke-linecap="round" stroke-linejoin="round"/>
<path d="M401.85 399.1H393.08L392.95 399.29C392.203 399.166 391.447 399.103 390.69 399.1C379.99 399.1 371.33 410.25 371.33 424.01C371.33 437.77 379.99 448.93 390.69 448.93C391.447 448.923 392.203 448.859 392.95 448.74L393.08 448.93H401.85C412.54 448.93 421.21 437.77 421.21 424.01C421.21 410.25 412.54 399.1 401.85 399.1Z" fill="#263238" stroke="#263238" stroke-linecap="round" stroke-linejoin="round"/>
<path d="M222.2 399.1H213.43L213.3 399.29C212.553 399.166 211.797 399.103 211.04 399.1C200.34 399.1 191.68 410.25 191.68 424.01C191.68 437.77 200.34 448.93 211.04 448.93C211.797 448.923 212.552 448.859 213.3 448.74L213.43 448.93H222.2C232.89 448.93 241.56 437.77 241.56 424.01C241.56 410.25 232.89 399.1 222.2 399.1Z" fill="#263238" stroke="#263238" stroke-linecap="round" stroke-linejoin="round"/>
<path d="M485.31 399.83H481.1L477.33 373.4C477.108 371.844 476.333 370.42 475.146 369.39C473.96 368.359 472.441 367.791 470.87 367.79H447.28L409 327.14C406.942 324.963 404.462 323.229 401.711 322.044C398.959 320.859 395.995 320.249 393 320.25H291.47C289.28 320.248 287.112 320.69 285.097 321.549C283.083 322.409 281.264 323.668 279.75 325.25L105.35 398.87V430H366.82L432.45 429.53L481.1 426.34V426.12H485.1C485.522 426.117 485.927 425.948 486.225 425.648C486.522 425.348 486.69 424.943 486.69 424.52V401.22C486.69 400.853 486.545 400.501 486.286 400.241C486.027 399.98 485.677 399.833 485.31 399.83Z" fill="#E9F2FF" stroke="#263238" stroke-linecap="round" stroke-linejoin="round"/>
<path d="M411 425.18V429.64L432.42 429.49L481.07 426.3V426.08H485.07C485.366 426.077 485.655 425.991 485.904 425.832C486.153 425.673 486.353 425.447 486.48 425.18H411Z" fill="#263238" stroke="#263238" stroke-linecap="round" stroke-linejoin="round"/>
<path d="M432.45 429.49C432.852 429.447 433.223 429.254 433.489 428.948C433.754 428.643 433.894 428.248 433.88 427.844C433.866 427.439 433.699 427.055 433.414 426.769C433.128 426.482 432.744 426.315 432.34 426.3H407.74L316.74 320.3H291.47C289.28 320.298 287.112 320.74 285.097 321.599C283.083 322.459 281.264 323.718 279.75 325.3L105.35 398.92V430H366.82L432.45 429.49Z" fill="#263238" stroke="#263238" stroke-linecap="round" stroke-linejoin="round"/>
<path d="M146.09 399.1H137.32L131.57 407.54C128.41 412.452 126.729 418.169 126.729 424.01C126.729 429.851 128.41 435.568 131.57 440.48L137.32 448.93H146.09C156.78 448.93 165.45 437.77 165.45 424.01C165.45 410.25 156.78 399.1 146.09 399.1Z" fill="#263238" stroke="#263238" stroke-linecap="round" stroke-linejoin="round"/>
<path d="M134.93 448.92C145.623 448.92 154.29 437.768 154.29 424.01C154.29 410.253 145.623 399.1 134.93 399.1C124.238 399.1 115.57 410.253 115.57 424.01C115.57 437.768 124.238 448.92 134.93 448.92Z" fill="#636363" stroke="#263238" stroke-linecap="round" stroke-linejoin="round"/>
<path d="M134.929 443.88C143.462 443.88 150.379 434.984 150.379 424.01C150.379 413.036 143.462 404.14 134.929 404.14C126.397 404.14 119.479 413.036 119.479 424.01C119.479 434.984 126.397 443.88 134.929 443.88Z" fill="#E9F2FF" stroke="#263238" stroke-linecap="round" stroke-linejoin="round"/>
<path d="M138.19 424C138.19 426.32 136.73 428.2 134.93 428.2C133.13 428.2 131.66 426.32 131.66 424C131.66 421.68 133.12 419.8 134.93 419.8C136.74 419.8 138.19 421.69 138.19 424Z" fill="#E9F2FF" stroke="#263238" stroke-linecap="round" stroke-linejoin="round"/>
<path d="M341.51 399.1H332.74L327 407.54C323.84 412.452 322.159 418.169 322.159 424.01C322.159 429.851 323.84 435.568 327 440.48L332.75 448.93H341.52C352.21 448.93 360.88 437.77 360.88 424.01C360.88 410.25 352.2 399.1 341.51 399.1Z" fill="#263238" stroke="#263238" stroke-linecap="round" stroke-linejoin="round"/>
<path d="M349.71 424C349.71 437.76 341.04 448.92 330.35 448.92C319.66 448.92 311 437.77 311 424C311 410.23 319.66 399.09 330.36 399.09C341.06 399.09 349.71 410.25 349.71 424Z" fill="#636363" stroke="#263238" stroke-linecap="round" stroke-linejoin="round"/>
<path d="M345.79 424C345.79 435 338.88 443.88 330.35 443.88C321.82 443.88 314.9 435 314.9 424C314.9 413 321.82 404.13 330.35 404.13C338.88 404.13 345.79 413 345.79 424Z" fill="#E9F2FF" stroke="#263238" stroke-linecap="round" stroke-linejoin="round"/>
<path d="M333.61 424C333.61 426.32 332.15 428.2 330.35 428.2C328.55 428.2 327.08 426.32 327.08 424C327.08 421.68 328.55 419.8 330.35 419.8C332.15 419.8 333.61 421.69 333.61 424Z" fill="#E9F2FF" stroke="#263238" stroke-linecap="round" stroke-linejoin="round"/>
<path d="M409 327.14C408.68 326.81 408.34 326.5 408 326.19H328.9V365.27H444.9L409 327.14Z" fill="#263238" stroke="#263238" stroke-linecap="round" stroke-linejoin="round"/>
<path d="M418.06 399.83H413.45L408.88 367.83H379.62L341.32 327.18C339.265 324.999 336.786 323.262 334.034 322.077C331.282 320.892 328.316 320.284 325.32 320.29H232.12C229.929 320.289 227.76 320.731 225.744 321.591C223.728 322.45 221.907 323.708 220.39 325.29L160.89 365L105.81 388.77L97.1899 400.35C95.0688 403.196 93.922 406.65 93.9199 410.2V430H111.29V423.43C111.29 407.36 122.97 394.34 137.38 394.34C150.22 394.34 158.2 404.75 160.2 418.89L161.78 430H306.94V423.43C306.94 407.36 313.53 394.34 331.25 394.34C347.04 394.34 352.68 404.75 355.14 418.89L357 429.49L413.45 426.3V426.08H418.06V399.83Z" fill="#E9F2FF" stroke="#263238" stroke-linecap="round" stroke-linejoin="round"/>
<path d="M220.92 331.1L169.8 365H265.34V326.65H231.51C229.537 326.65 227.585 327.043 225.766 327.807C223.948 328.571 222.3 329.691 220.92 331.1Z" fill="#263238" stroke="#263238" stroke-linecap="round" stroke-linejoin="round"/>
<path d="M209.82 365L240.12 326.61H231.51C229.538 326.61 227.585 327.003 225.766 327.767C223.948 328.531 222.3 329.651 220.92 331.06L203 343L185.62 365H209.82Z" fill="#E9F2FF" stroke="#263238" stroke-linecap="round" stroke-linejoin="round"/>
<path d="M265.34 365.04V337.47L243.58 365.04H265.34Z" fill="#E9F2FF" stroke="#263238" stroke-linecap="round" stroke-linejoin="round"/>
<path d="M338.14 332.9L359.87 355.13C360.593 355.87 361.107 356.787 361.36 357.79C361.574 358.651 361.59 359.549 361.405 360.417C361.22 361.285 360.84 362.099 360.293 362.798C359.747 363.496 359.048 364.062 358.251 364.45C357.453 364.839 356.577 365.04 355.69 365.04H271.74V326.65H323.27C326.04 326.649 328.783 327.201 331.336 328.274C333.89 329.347 336.203 330.92 338.14 332.9Z" fill="#263238" stroke="#263238" stroke-linecap="round" stroke-linejoin="round"/>
<path d="M317.78 326.65H309.34L279.04 365.04H287.48L317.78 326.65Z" fill="#E9F2FF" stroke="#263238" stroke-linecap="round" stroke-linejoin="round"/>
<path d="M271.74 329.36V360.03L298.08 326.65H273.88L271.74 329.36Z" fill="#E9F2FF" stroke="#263238" stroke-linecap="round" stroke-linejoin="round"/>
<path d="M408.88 367.79H470.88C472.452 367.791 473.97 368.359 475.157 369.39C476.343 370.42 477.118 371.844 477.34 373.4L481.11 399.83H413.45L408.88 367.79Z" fill="#E9F2FF" stroke="#263238" stroke-linecap="round" stroke-linejoin="round"/>
<path d="M467.72 382.24H438.32V394.31H467.72V382.24Z" fill="#E9F2FF" stroke="#263238" stroke-linecap="round" stroke-linejoin="round"/>
<path d="M484.34 404.77H358.37" stroke="#263238" stroke-width="2" stroke-linecap="round" stroke-linejoin="round"/>
<path d="M302.079 404.77H162.479" stroke="#263238" stroke-width="2" stroke-linecap="round" stroke-linejoin="round"/>
<path d="M116.14 404.77H100.16" stroke="#263238" stroke-width="2" stroke-linecap="round" stroke-linejoin="round"/>
<path d="M433.25 382.43H405.47C404.184 382.429 402.924 382.787 401.83 383.464C400.737 384.14 399.854 385.109 399.28 386.26L394.64 395.55C394.436 395.974 394.343 396.443 394.368 396.913C394.394 397.383 394.539 397.839 394.788 398.239C395.038 398.638 395.384 398.968 395.796 399.197C396.207 399.426 396.669 399.548 397.14 399.55H433.25V382.43Z" fill="#B2B2B2" stroke="#263238" stroke-linecap="round" stroke-linejoin="round"/>
<path d="M433.25 382.43H410.86L413.31 399.59H433.25V382.43Z" fill="#263238" stroke="#263238" stroke-linecap="round" stroke-linejoin="round"/>
<path d="M478.52 382.43H471.74L471.65 399.59H480.96L478.52 382.43Z" fill="#263238" stroke="#263238" stroke-linecap="round" stroke-linejoin="round"/>
<path d="M176.03 357.04H162.2C161.096 357.04 160.2 357.935 160.2 359.04V370.13C160.2 371.235 161.096 372.13 162.2 372.13H176.03C177.135 372.13 178.03 371.235 178.03 370.13V359.04C178.03 357.935 177.135 357.04 176.03 357.04Z" fill="#263238" stroke="#263238" stroke-linecap="round" stroke-linejoin="round"/>
<path d="M263.05 372.13H245.91V378.99H263.05V372.13Z" fill="#263238" stroke="#263238" stroke-linecap="round" stroke-linejoin="round"/>
<path d="M267.17 369.39V421.5" stroke="#263238" stroke-linecap="round" stroke-linejoin="round"/>
<path d="M151.29 392.7C151.29 392.7 163.84 399.79 165.45 424.01H298.71" stroke="#263238" stroke-linecap="round" stroke-linejoin="round"/>
<path d="M361.799 403C361.799 403 355.229 385.85 333.249 385.85C317.929 385.85 310.609 393.9 306.939 400.25" stroke="#263238" stroke-linecap="round" stroke-linejoin="round"/>
<path d="M90.3793 271.64C90.3793 271.64 86.7993 266.64 82.7193 266.79C78.6393 266.94 71.5093 271 71.2793 274.18C71.0493 277.36 76.6893 285.71 76.6893 285.71L75.0793 291.87L88.7293 297.3L89.7293 292.3C89.7293 292.3 94.5193 292.11 94.4893 291.41C94.4593 290.71 94.7493 284.29 94.7493 284.29C94.9723 284.205 95.176 284.076 95.348 283.911C95.52 283.746 95.6568 283.548 95.7502 283.328C95.8436 283.109 95.8916 282.872 95.8915 282.634C95.8913 282.395 95.843 282.159 95.7493 281.94C95.0011 280.32 94.0465 278.804 92.9093 277.43C92.9404 276.338 92.7298 275.253 92.2924 274.252C91.855 273.251 91.2017 272.359 90.3793 271.64Z" fill="#FFD9CE" stroke="#263238" stroke-linecap="round" stroke-linejoin="round"/>
<path d="M92.5601 279C92.7601 279.54 92.7501 280.05 92.5601 280.14C92.3701 280.23 91.9901 279.85 91.7901 279.31C91.5901 278.77 91.6101 278.31 91.7901 278.17C91.9701 278.03 92.3601 278.42 92.5601 279Z" fill="#263238"/>
<path d="M92.9193 277.41C92.9193 277.41 91.5993 276.09 90.7393 277.2" stroke="#263238" stroke-linecap="round" stroke-linejoin="round"/>
<path d="M91.2782 285.455C92.1073 285.203 93.0022 285.288 93.7695 285.69" stroke="#263238" stroke-linecap="round" stroke-linejoin="round"/>
<path d="M90.3795 271.64L86.1395 272.34C86.1395 272.34 87.8095 274.06 87.1395 275.15L86.4695 276.24L85.5895 280.9L84.1795 281.13C84.1795 281.13 80.8395 277.53 79.3295 279.9C77.8195 282.27 80.7695 284.82 80.7695 284.82C80.7695 284.82 78.7695 287.57 77.3395 287.98C75.9095 288.39 77.0995 286.39 74.7395 285.24C72.3795 284.09 68.6195 278.72 69.0495 276.24C69.4795 273.76 71.9395 268.3 76.6695 266.7C81.3995 265.1 84.4295 265.15 86.7695 265.76C89.1095 266.37 91.7695 266.28 92.1895 268.04C92.6095 269.8 90.3795 271.64 90.3795 271.64Z" fill="#263238" stroke="#263238" stroke-linecap="round" stroke-linejoin="round"/>
<path d="M92.8992 326.46L102.279 334.62L98.5092 342.59L92.1992 340.35L92.8992 326.46Z" fill="#4993FF" stroke="#263238" stroke-linecap="round" stroke-linejoin="round"/>
<path d="M100.6 332.38L96.21 342.68L98.76 344.36L106.4 335.35L100.6 332.38Z" fill="#E9F2FF" stroke="#263238" stroke-linecap="round" stroke-linejoin="round"/>
<path d="M104.999 336.47L119.409 341.23C119.409 341.23 124.409 342.63 124.999 343.14C125.589 343.65 127.249 346.25 126.749 347.14C126.558 347.431 126.3 347.673 125.998 347.847C125.696 348.02 125.357 348.121 125.009 348.14C124.004 348.179 123.002 348.28 122.009 348.44C121.009 348.65 118.609 347.68 117.009 347.39C115.409 347.1 112.449 344.55 112.449 344.55L100.449 342L104.999 336.47Z" fill="#FFD9CE" stroke="#263238" stroke-linecap="round" stroke-linejoin="round"/>
<path d="M122.17 343.77C122.17 343.77 121.17 345.77 122.32 346.77C123.47 347.77 125.91 348.09 126.67 346.2C127.43 344.31 123.91 342.31 122.17 343.77Z" fill="#0052CC" stroke="#263238" stroke-linecap="round" stroke-linejoin="round"/>
<path d="M115.92 341.7C115.92 341.7 119.18 340.84 119.86 340.7C120.54 340.56 123.25 341.98 124.07 341.98C124.89 341.98 126.97 340.93 126.56 342.07C126.15 343.21 125.94 343.17 124.83 343.84C123.72 344.51 120.83 343.78 120.83 343.78C120.434 344.206 119.954 344.546 119.421 344.778C118.887 345.011 118.312 345.13 117.73 345.13C115.96 344.98 116.23 343.84 116.23 343.84" fill="#FFD9CE"/>
<path d="M115.92 341.7C115.92 341.7 119.18 340.84 119.86 340.7C120.54 340.56 123.25 341.98 124.07 341.98C124.89 341.98 126.97 340.93 126.56 342.07C126.15 343.21 125.94 343.17 124.83 343.84C123.72 344.51 120.83 343.78 120.83 343.78C120.434 344.206 119.954 344.546 119.421 344.778C118.887 345.011 118.312 345.13 117.73 345.13C115.96 344.98 116.23 343.84 116.23 343.84" stroke="#263238" stroke-linecap="round" stroke-linejoin="round"/>
<path d="M55.4896 438.62C55.4896 438.62 58.7896 442.23 60.1996 442.97C61.6096 443.71 66.7596 444.48 66.9896 445.46C67.2196 446.44 66.4696 447.25 63.9896 447.94C61.1014 448.772 58.0442 448.824 55.1296 448.09C50.9596 447.27 46.6096 446.85 44.8196 446.33C43.0296 445.81 42.4796 446.82 41.9996 444.87C41.5196 442.92 43.5696 439.49 43.5696 439.49C43.5696 439.49 54.2796 437.69 55.4896 438.62Z" fill="#E9F2FF" stroke="#263238" stroke-linecap="round" stroke-linejoin="round"/>
<path d="M66.1792 360C66.1792 360 61.5292 387 60.2492 389.58C58.9692 392.16 50.2492 410.06 49.2492 415.03C48.2492 420 43.4092 436.73 43.4092 436.73L43.5192 439.48C44.6027 439.867 45.7392 440.087 46.8892 440.13C48.2692 440.08 55.4892 438.61 55.4892 438.61C56.0624 437.513 56.289 436.268 56.1392 435.04C55.8692 433.04 53.7892 430.41 54.3492 429.6C54.9092 428.79 65.9992 405.51 66.5692 404.9C67.1392 404.29 71.8992 400.16 73.1292 396.56C74.3592 392.96 83.4992 374.88 83.4992 374.88C83.4992 374.88 75.1192 367.14 71.4992 364.13C67.8792 361.12 66.1792 360 66.1792 360Z" fill="#263238" stroke="#263238" stroke-linecap="round" stroke-linejoin="round"/>
<path d="M121.52 434.83C123.862 435.409 126.252 435.777 128.66 435.93C130.82 435.84 136.44 433.65 136.9 435.21C137.36 436.77 134.74 440.41 132.06 442.29C128.699 444.313 125.132 445.972 121.42 447.24C119.86 447.7 117.42 449.96 114.58 448.5C111.74 447.04 112.58 441.5 112.58 441.5L121.52 434.83Z" fill="#E9F2FF" stroke="#263238" stroke-linecap="round" stroke-linejoin="round"/>
<path d="M93.4599 357.75C93.4599 357.75 103.46 385.52 105.66 392.32C107.86 399.12 109.09 404.4 109.31 404.98C109.53 405.56 121.52 434.83 121.52 434.83C121.52 434.83 117.84 441.28 115.52 442.36C114.344 442.938 113.106 443.381 111.83 443.68C111.83 443.68 97.9599 416.68 96.1799 411.61C94.3999 406.54 92.6999 398.15 90.9999 394.48C89.2999 390.81 63.4199 363 63.4199 363C68.1658 361.497 73.0501 360.472 77.9999 359.94C84.4699 359.48 93.4599 357.75 93.4599 357.75Z" fill="#263238" stroke="#263238" stroke-linecap="round" stroke-linejoin="round"/>
<path d="M87.3301 298.07C87.3301 298.07 91.45 303.41 92.7 307.99C93.95 312.57 94.34 326.94 94.34 326.94C94.34 326.94 94.5201 353.94 94.7601 355.54C95.1526 357.162 95.6915 358.745 96.3701 360.27C92.7788 360.455 89.2231 361.073 85.78 362.11C80.86 363.73 77 364.77 73.78 364.89C70.56 365.01 63.42 363 63.42 363C63.42 363 63.9801 354.63 64.5701 351.58C64.972 349.218 65.2325 346.834 65.35 344.44L64.88 332.56C64.88 332.56 62.2101 318.98 63.9301 312.87C65.6501 306.76 67.1701 300.65 69.7501 298.42C71.386 296.975 72.8704 295.367 74.1801 293.62L87.3301 298.07Z" fill="#4993FF" stroke="#263238" stroke-linecap="round" stroke-linejoin="round"/>
<path d="M75.3997 288.41L74.1797 293.61L86.9297 301.28L88.3097 295.72L75.3997 288.41Z" fill="#E9F2FF" stroke="#263238" stroke-linecap="round" stroke-linejoin="round"/>
<path d="M55.3895 339.67L57.9995 356.1C57.0865 357.899 56.3272 359.773 55.7295 361.7C55.4424 363.095 55.0819 364.473 54.6495 365.83C54.4995 366.37 54.0295 372.43 55.0995 372.57C56.1695 372.71 59.9695 374.51 60.6495 373.77C61.8968 371.881 62.8353 369.805 63.4295 367.62C63.5595 366.37 64.4295 357.09 64.1695 354.79C63.9095 352.49 64.9595 338.79 64.9595 338.79C64.9595 338.79 58.2695 336.18 55.3895 339.67Z" fill="#FFD9CE" stroke="#263238" stroke-linecap="round" stroke-linejoin="round"/>
<path d="M74.9996 296.24C74.9996 296.24 69.6296 295.39 67.2496 297.97C64.8696 300.55 55.9996 324 55.9296 326.5C55.8596 329 55.5996 336.11 55.5996 336.11L65.2096 336.44L68.3896 326.9L79.9996 310.44" fill="#4993FF"/>
<path d="M74.9996 296.24C74.9996 296.24 69.6296 295.39 67.2496 297.97C64.8696 300.55 55.9996 324 55.9296 326.5C55.8596 329 55.5996 336.11 55.5996 336.11L65.2096 336.44L68.3896 326.9L79.9996 310.44" stroke="#263238" stroke-linecap="round" stroke-linejoin="round"/>
<path d="M54.2793 334.21L55.3893 339.67C56.6072 339.128 57.9398 338.895 59.2693 338.99C61.243 339.241 63.145 339.89 64.8593 340.9C65.6023 339.001 66.1192 337.02 66.3993 335C66.4893 332.84 61.9093 329.29 54.2793 334.21Z" fill="#E9F2FF" stroke="#263238" stroke-linecap="round" stroke-linejoin="round"/>
<path d="M72.5195 321.15L82.3395 315.45" stroke="#263238" stroke-linecap="round" stroke-linejoin="round"/>
<path d="M305.56 43.6299H185.93V448.93H305.56V43.6299Z" fill="#FAFAFA" stroke="#263238" stroke-linecap="round" stroke-linejoin="round"/>
<path d="M305.56 292.63H185.93V448.93H305.56V292.63Z" fill="#4993FF" stroke="#263238" stroke-linecap="round" stroke-linejoin="round"/>
<path d="M252.84 395.56L188.8 331.52V351.92L252.84 415.96V395.56Z" fill="#263238"/>
<path d="M303.329 446.06L287.359 430.08V446.06H303.329Z" fill="#263238"/>
<path d="M252.84 446.06V434.58L188.8 370.54V390.94L243.92 446.06H252.84Z" fill="#263238"/>
<path d="M252.84 356.54L191.76 295.46H188.8V312.9L252.84 376.94V356.54Z" fill="#263238"/>
<path d="M287.359 391.06V411.46L305.559 429.66V409.26L287.359 391.06Z" fill="#263238"/>
<path d="M225.3 446.06L188.8 409.56V429.95L204.9 446.06H225.3Z" fill="#263238"/>
<path d="M252.84 317.52L230.78 295.46H210.38L252.84 337.92V317.52Z" fill="#263238"/>
<path d="M287.359 352.04V372.44L305.559 390.64V370.24L287.359 352.04Z" fill="#263238"/>
<path d="M305.55 43.6299H257.06V448.93H305.55V43.6299Z" fill="#E9F2FF" stroke="#263238" stroke-linecap="round" stroke-linejoin="round"/>
<path d="M305.55 292.63H257.06V448.93H305.55V292.63Z" fill="#4993FF" stroke="#263238" stroke-linecap="round" stroke-linejoin="round"/>
<path d="M260.34 363.23V383.63L303.87 340.1V319.7L260.34 363.23Z" fill="#263238"/>
<path d="M260.34 441.26V448.93H273.08L303.87 418.14V397.74L260.34 441.26Z" fill="#263238"/>
<path d="M289.59 294.96L260.34 324.21V344.61L303.87 301.08V294.96H289.59Z" fill="#263238"/>
<path d="M260.34 402.25V422.64L303.87 379.12V358.72L260.34 402.25Z" fill="#263238"/>
<path d="M303.869 436.75L291.699 448.93H303.869V436.75Z" fill="#263238"/>
<path d="M122.57 78.1599V43.6299" stroke="#263238" stroke-linecap="round" stroke-linejoin="round"/>
<path d="M98.1104 78.1599V43.6299" stroke="black" stroke-miterlimit="10"/>
<path d="M73.6396 78.1599V43.6299" stroke="black" stroke-miterlimit="10"/>
<path d="M209.63 78.1599V43.6299" stroke="#263238" stroke-linecap="round" stroke-linejoin="round"/>
<path d="M185.17 78.1599V43.6299" stroke="black" stroke-miterlimit="10"/>
<path d="M160.7 78.1599V43.6299" stroke="black" stroke-miterlimit="10"/>
<path d="M227.13 78.96H154.75V91.9H227.13V78.96Z" fill="#263238" stroke="#263238" stroke-linecap="round" stroke-linejoin="round"/>
<path d="M227.13 83.3999H154.75V91.8999H227.13V83.3999Z" fill="#E9F2FF" stroke="#263238" stroke-linecap="round" stroke-linejoin="round"/>
<path d="M227.13 83.3999H177.12V91.8999H227.13V83.3999Z" fill="#E9F2FF" stroke="#263238" stroke-linecap="round" stroke-linejoin="round"/>
<path d="M136.85 78.96H64.4697V91.9H136.85V78.96Z" fill="#263238" stroke="#263238" stroke-linecap="round" stroke-linejoin="round"/>
<path d="M136.85 83.3999H64.4697V91.8999H136.85V83.3999Z" fill="#E9F2FF" stroke="#263238" stroke-linecap="round" stroke-linejoin="round"/>
<path d="M136.85 83.3999H86.8398V91.8999H136.85V83.3999Z" fill="#E9F2FF" stroke="#263238" stroke-linecap="round" stroke-linejoin="round"/>
<path d="M226.18 64.49H32.25V70.25H226.18V64.49Z" fill="#263238" stroke="#263238" stroke-linecap="round" stroke-linejoin="round"/>
<path d="M283 250.82C279.88 250.82 277.49 250.25 275.83 249.11C274.172 247.958 272.972 246.258 272.44 244.31C271.794 241.956 271.487 239.521 271.53 237.08H279.75C279.731 238.446 279.831 239.811 280.05 241.16C280.167 242.079 280.549 242.945 281.15 243.65C281.472 243.942 281.853 244.162 282.267 244.294C282.681 244.427 283.119 244.47 283.55 244.42C284.009 244.436 284.463 244.333 284.87 244.121C285.277 243.909 285.621 243.595 285.87 243.21C286.417 242.19 286.718 241.057 286.75 239.9C286.86 238.46 286.92 236.77 286.92 234.82C286.935 233.418 286.841 232.017 286.64 230.63C286.528 229.599 286.16 228.613 285.57 227.76C285.269 227.41 284.889 227.137 284.461 226.963C284.033 226.789 283.57 226.719 283.11 226.76C282.654 226.741 282.199 226.82 281.776 226.993C281.354 227.166 280.973 227.427 280.66 227.76C279.936 228.619 279.45 229.654 279.25 230.76H272L272.61 205.39H293.13V212.72H279.62L279.13 222.6C279.735 221.933 280.504 221.437 281.36 221.16C282.448 220.752 283.591 220.509 284.75 220.44C286.772 220.152 288.829 220.626 290.52 221.77C292.133 223.002 293.319 224.709 293.91 226.65C294.7 229.193 295.071 231.848 295.01 234.51C295.02 236.698 294.873 238.883 294.57 241.05C294.336 242.87 293.756 244.628 292.86 246.23C292.005 247.692 290.739 248.87 289.22 249.62C287.271 250.505 285.139 250.917 283 250.82Z" fill="#263238"/>
<path d="M298.54 146.04H263.06C261.193 146.04 259.68 147.553 259.68 149.42V184.9C259.68 186.767 261.193 188.28 263.06 188.28H298.54C300.406 188.28 301.92 186.767 301.92 184.9V149.42C301.92 147.553 300.406 146.04 298.54 146.04Z" fill="#263238" stroke="#263238" stroke-linecap="round" stroke-linejoin="round"/>
<path d="M272 184.74V148.94H283.36C285.191 148.865 287.009 149.286 288.62 150.16C289.97 150.979 291.021 152.209 291.62 153.67C292.333 155.438 292.673 157.334 292.62 159.24C292.728 161.321 292.275 163.393 291.31 165.24C290.505 166.633 289.255 167.715 287.76 168.31C286.111 168.944 284.356 169.253 282.59 169.22H279.27V184.73L272 184.74ZM279.29 164.1H281.85C282.7 164.148 283.549 163.972 284.31 163.59C284.602 163.412 284.856 163.179 285.056 162.902C285.257 162.626 285.401 162.312 285.48 161.98C285.705 161.054 285.81 160.103 285.79 159.15C285.806 158.231 285.725 157.312 285.55 156.41C285.411 155.722 285.023 155.11 284.46 154.69C283.661 154.216 282.736 153.999 281.81 154.07H279.29V164.1Z" fill="#FAFAFA"/>
<path d="M23.3301 448.93H738.37" stroke="#263238" stroke-linecap="round" stroke-linejoin="round"/>
</svg>
