<svg width="992" height="553" viewBox="0 0 992 553" fill="none" xmlns="http://www.w3.org/2000/svg">
<rect width="992" height="553" fill="white"/>
<rect x="728" y="330" width="146" height="161" fill="#D9D9D9"/>
<path d="M769.751 410.114C769.139 410.054 768.635 409.838 768.239 409.466C767.855 409.094 767.663 408.596 767.663 407.972C767.663 407.636 767.723 407.336 767.843 407.072C767.963 406.808 768.131 406.586 768.347 406.406C768.563 406.214 768.815 406.07 769.103 405.974C769.391 405.866 769.703 405.812 770.039 405.812C770.723 405.812 771.287 406.016 771.731 406.424C772.187 406.82 772.415 407.372 772.415 408.08V408.584H772.505C772.793 407.768 773.243 407.102 773.855 406.586C774.479 406.07 775.253 405.812 776.177 405.812C777.137 405.812 777.827 406.112 778.247 406.712C778.679 407.3 778.895 408.194 778.895 409.394V416H776.249V409.7C776.249 409.124 776.129 408.734 775.889 408.53C775.661 408.326 775.397 408.224 775.097 408.224C774.821 408.224 774.527 408.29 774.215 408.422C773.903 408.542 773.609 408.728 773.333 408.98C773.069 409.22 772.847 409.514 772.667 409.862C772.499 410.21 772.415 410.606 772.415 411.05V416H769.751V410.114ZM769.967 408.854C770.207 408.854 770.405 408.776 770.561 408.62C770.717 408.464 770.795 408.248 770.795 407.972C770.795 407.696 770.717 407.48 770.561 407.324C770.405 407.168 770.207 407.09 769.967 407.09C769.727 407.09 769.529 407.168 769.373 407.324C769.217 407.48 769.139 407.696 769.139 407.972C769.139 408.248 769.217 408.464 769.373 408.62C769.529 408.776 769.727 408.854 769.967 408.854ZM785.568 416V409.34C785.568 408.884 785.442 408.524 785.19 408.26C784.95 407.984 784.56 407.846 784.02 407.846C783.504 407.846 783.09 407.96 782.778 408.188C782.466 408.416 782.208 408.68 782.004 408.98L780.42 407.612C780.804 407.048 781.284 406.61 781.86 406.298C782.448 405.974 783.234 405.812 784.218 405.812C785.538 405.812 786.534 406.106 787.206 406.694C787.89 407.282 788.232 408.14 788.232 409.268V416H785.568ZM793.137 416L789.987 408.872H792.579L794.901 414.146H795.855V410.114C795.243 410.054 794.739 409.838 794.343 409.466C793.959 409.094 793.767 408.596 793.767 407.972C793.767 407.3 793.989 406.772 794.433 406.388C794.889 406.004 795.459 405.812 796.143 405.812C796.827 405.812 797.391 406.016 797.835 406.424C798.291 406.82 798.519 407.372 798.519 408.08V416H793.137ZM796.071 408.854C796.311 408.854 796.509 408.776 796.665 408.62C796.821 408.464 796.899 408.248 796.899 407.972C796.899 407.696 796.821 407.48 796.665 407.324C796.509 407.168 796.311 407.09 796.071 407.09C795.831 407.09 795.633 407.168 795.477 407.324C795.321 407.48 795.243 407.696 795.243 407.972C795.243 408.248 795.321 408.464 795.477 408.62C795.633 408.776 795.831 408.854 796.071 408.854ZM806.044 416.216C804.628 416.216 803.542 415.952 802.786 415.424C802.042 414.896 801.67 414.086 801.67 412.994V411.68C801.67 410.912 801.892 410.294 802.336 409.826C802.78 409.346 803.38 409.106 804.136 409.106C804.808 409.106 805.36 409.298 805.792 409.682C806.236 410.066 806.458 410.594 806.458 411.266C806.458 411.902 806.26 412.412 805.864 412.796C805.468 413.168 804.964 413.378 804.352 413.426C804.448 413.93 804.826 414.182 805.486 414.182H806.602C806.986 414.182 807.274 414.092 807.466 413.912C807.658 413.732 807.754 413.486 807.754 413.174V410.078C807.754 409.382 807.532 408.836 807.088 408.44C806.644 408.044 806.038 407.846 805.27 407.846C804.862 407.846 804.502 407.888 804.19 407.972C803.89 408.056 803.62 408.17 803.38 408.314C803.152 408.446 802.954 408.596 802.786 408.764C802.618 408.932 802.468 409.1 802.336 409.268L800.752 407.81C800.944 407.546 801.184 407.294 801.472 407.054C801.76 406.802 802.102 406.586 802.498 406.406C802.894 406.226 803.35 406.082 803.866 405.974C804.382 405.866 804.964 405.812 805.612 405.812C807.184 405.812 808.378 406.178 809.194 406.91C810.01 407.642 810.418 408.674 810.418 410.006V412.994C810.418 414.086 810.04 414.896 809.284 415.424C808.54 415.952 807.46 416.216 806.044 416.216ZM804.172 412.148C804.412 412.148 804.61 412.07 804.766 411.914C804.934 411.758 805.018 411.542 805.018 411.266C805.018 410.99 804.934 410.774 804.766 410.618C804.61 410.462 804.412 410.384 804.172 410.384C803.932 410.384 803.728 410.462 803.56 410.618C803.404 410.774 803.326 410.99 803.326 411.266C803.326 411.542 803.404 411.758 803.56 411.914C803.728 412.07 803.932 412.148 804.172 412.148ZM817.558 416.216C816.142 416.216 815.056 415.952 814.3 415.424C813.556 414.896 813.184 414.086 813.184 412.994V411.68C813.184 410.912 813.406 410.294 813.85 409.826C814.294 409.346 814.894 409.106 815.65 409.106C816.322 409.106 816.874 409.298 817.306 409.682C817.75 410.066 817.972 410.594 817.972 411.266C817.972 411.902 817.774 412.412 817.378 412.796C816.982 413.168 816.478 413.378 815.866 413.426C815.962 413.93 816.34 414.182 817 414.182H818.116C818.5 414.182 818.788 414.092 818.98 413.912C819.172 413.732 819.268 413.486 819.268 413.174V410.078C819.268 409.382 819.046 408.836 818.602 408.44C818.158 408.044 817.552 407.846 816.784 407.846C816.376 407.846 816.016 407.888 815.704 407.972C815.404 408.056 815.134 408.17 814.894 408.314C814.666 408.446 814.468 408.596 814.3 408.764C814.132 408.932 813.982 409.1 813.85 409.268L812.266 407.81C812.458 407.546 812.698 407.294 812.986 407.054C813.274 406.802 813.616 406.586 814.012 406.406C814.408 406.226 814.864 406.082 815.38 405.974C815.896 405.866 816.478 405.812 817.126 405.812C818.698 405.812 819.892 406.178 820.708 406.91C821.524 407.642 821.932 408.674 821.932 410.006V412.994C821.932 414.086 821.554 414.896 820.798 415.424C820.054 415.952 818.974 416.216 817.558 416.216ZM815.686 412.148C815.926 412.148 816.124 412.07 816.28 411.914C816.448 411.758 816.532 411.542 816.532 411.266C816.532 410.99 816.448 410.774 816.28 410.618C816.124 410.462 815.926 410.384 815.686 410.384C815.446 410.384 815.242 410.462 815.074 410.618C814.918 410.774 814.84 410.99 814.84 411.266C814.84 411.542 814.918 411.758 815.074 411.914C815.242 412.07 815.446 412.148 815.686 412.148ZM825.611 410.762L824.027 410.114C824.087 409.454 824.255 408.86 824.531 408.332C824.819 407.804 825.191 407.354 825.647 406.982C826.115 406.61 826.661 406.322 827.285 406.118C827.909 405.914 828.593 405.812 829.337 405.812C830.105 405.812 830.795 405.914 831.407 406.118C832.031 406.31 832.559 406.592 832.991 406.964C833.423 407.324 833.753 407.768 833.981 408.296C834.209 408.812 834.323 409.388 834.323 410.024V416H831.659V410.366C831.659 409.994 831.605 409.652 831.497 409.34C831.401 409.016 831.245 408.734 831.029 408.494C830.825 408.254 830.561 408.068 830.237 407.936C829.925 407.792 829.553 407.72 829.121 407.72C828.509 407.72 827.969 407.858 827.501 408.134C827.033 408.41 826.697 408.752 826.493 409.16L827.159 409.412C827.591 409.58 827.885 409.772 828.041 409.988C828.197 410.204 828.275 410.528 828.275 410.96V416H825.611V410.762Z" fill="black"/>
<path d="M652 488V329" stroke="#7D7D7D" stroke-width="5"/>
<path d="M195 488V329" stroke="black" stroke-width="10"/>
<rect x="190.5" y="329.5" width="9" height="12" fill="white" stroke="black"/>
<rect x="190.5" y="475.5" width="9" height="12" fill="white" stroke="black"/>
<path d="M273 488V329" stroke="#7D7D7D" stroke-width="5"/>
<path d="M351 488V329" stroke="black" stroke-width="10"/>
<rect x="346.5" y="475.5" width="9" height="12" fill="white" stroke="black"/>
<rect x="346.5" y="329.5" width="9" height="12" fill="white" stroke="black"/>
<path d="M496 488V329" stroke="#7D7D7D" stroke-width="5"/>
<path d="M426 488V329" stroke="#7D7D7D" stroke-width="5"/>
<path d="M574 488V329" stroke="black" stroke-width="10"/>
<rect x="569.5" y="475.5" width="9" height="12" fill="white" stroke="black"/>
<rect x="569.5" y="329.5" width="9" height="12" fill="white" stroke="black"/>
<path d="M730 488V329" stroke="black" stroke-width="10"/>
<rect x="725.5" y="331.5" width="9" height="12" fill="white" stroke="black"/>
<rect x="725.5" y="475.5" width="9" height="12" fill="white" stroke="black"/>
<path d="M195 230V71" stroke="black" stroke-width="10"/>
<rect x="190.5" y="72.5" width="9" height="12" fill="white" stroke="black"/>
<rect x="190.5" y="217.5" width="9" height="12" fill="white" stroke="black"/>
<path d="M730 230V71" stroke="black" stroke-width="10"/>
<rect x="725.5" y="73.5" width="9" height="12" fill="white" stroke="black"/>
<rect x="725.5" y="217.5" width="9" height="12" fill="white" stroke="black"/>
<path d="M190 487L735 488.009" stroke="black" stroke-width="5"/>
<rect x="44" y="327" width="146" height="161" fill="#D9D9D9"/>
<path d="M88.6098 391.114C87.9978 391.054 87.4938 390.838 87.0978 390.466C86.7138 390.094 86.5218 389.596 86.5218 388.972C86.5218 388.636 86.5818 388.336 86.7018 388.072C86.8218 387.808 86.9898 387.586 87.2058 387.406C87.4218 387.214 87.6738 387.07 87.9618 386.974C88.2498 386.866 88.5618 386.812 88.8978 386.812C89.5818 386.812 90.1458 387.016 90.5898 387.424C91.0458 387.82 91.2738 388.372 91.2738 389.08V389.584H91.3638C91.6518 388.768 92.1018 388.102 92.7138 387.586C93.3378 387.07 94.1118 386.812 95.0358 386.812C95.9958 386.812 96.6858 387.112 97.1058 387.712C97.5378 388.3 97.7538 389.194 97.7538 390.394V397H95.1078V390.7C95.1078 390.124 94.9878 389.734 94.7478 389.53C94.5198 389.326 94.2558 389.224 93.9558 389.224C93.6798 389.224 93.3858 389.29 93.0738 389.422C92.7618 389.542 92.4678 389.728 92.1918 389.98C91.9278 390.22 91.7058 390.514 91.5258 390.862C91.3578 391.21 91.2738 391.606 91.2738 392.05V397H88.6098V391.114ZM88.8258 389.854C89.0658 389.854 89.2638 389.776 89.4198 389.62C89.5758 389.464 89.6538 389.248 89.6538 388.972C89.6538 388.696 89.5758 388.48 89.4198 388.324C89.2638 388.168 89.0658 388.09 88.8258 388.09C88.5858 388.09 88.3878 388.168 88.2318 388.324C88.0758 388.48 87.9978 388.696 87.9978 388.972C87.9978 389.248 88.0758 389.464 88.2318 389.62C88.3878 389.776 88.5858 389.854 88.8258 389.854ZM104.427 397V390.34C104.427 389.884 104.301 389.524 104.049 389.26C103.809 388.984 103.419 388.846 102.879 388.846C102.363 388.846 101.949 388.96 101.637 389.188C101.325 389.416 101.067 389.68 100.863 389.98L99.2785 388.612C99.6625 388.048 100.143 387.61 100.719 387.298C101.307 386.974 102.093 386.812 103.077 386.812C104.397 386.812 105.393 387.106 106.065 387.694C106.749 388.282 107.091 389.14 107.091 390.268V397H104.427ZM111.995 397L108.845 389.872H111.437L113.759 395.146H114.713V391.114C114.101 391.054 113.597 390.838 113.201 390.466C112.817 390.094 112.625 389.596 112.625 388.972C112.625 388.3 112.847 387.772 113.291 387.388C113.747 387.004 114.317 386.812 115.001 386.812C115.685 386.812 116.249 387.016 116.693 387.424C117.149 387.82 117.377 388.372 117.377 389.08V397H111.995ZM114.929 389.854C115.169 389.854 115.367 389.776 115.523 389.62C115.679 389.464 115.757 389.248 115.757 388.972C115.757 388.696 115.679 388.48 115.523 388.324C115.367 388.168 115.169 388.09 114.929 388.09C114.689 388.09 114.491 388.168 114.335 388.324C114.179 388.48 114.101 388.696 114.101 388.972C114.101 389.248 114.179 389.464 114.335 389.62C114.491 389.776 114.689 389.854 114.929 389.854ZM122.707 397.216C122.023 397.216 121.453 397.018 120.997 396.622C120.553 396.214 120.331 395.656 120.331 394.948V387.028H122.995V392.914C123.607 392.974 124.105 393.196 124.489 393.58C124.885 393.952 125.083 394.444 125.083 395.056C125.083 395.728 124.855 396.256 124.399 396.64C123.955 397.024 123.391 397.216 122.707 397.216ZM122.779 395.938C123.019 395.938 123.217 395.86 123.373 395.704C123.529 395.548 123.607 395.332 123.607 395.056C123.607 394.78 123.529 394.564 123.373 394.408C123.217 394.252 123.019 394.174 122.779 394.174C122.539 394.174 122.341 394.252 122.185 394.408C122.029 394.564 121.951 394.78 121.951 395.056C121.951 395.332 122.029 395.548 122.185 395.704C122.341 395.86 122.539 395.938 122.779 395.938ZM131.623 397.216C130.339 397.216 129.325 396.958 128.581 396.442C127.837 395.914 127.465 395.206 127.465 394.318C127.465 394.066 127.489 393.832 127.537 393.616C127.597 393.388 127.687 393.166 127.807 392.95C127.927 392.734 128.077 392.512 128.257 392.284C128.449 392.056 128.677 391.816 128.941 391.564C129.133 391.372 129.301 391.198 129.445 391.042C129.589 390.886 129.703 390.736 129.787 390.592C129.883 390.436 129.955 390.28 130.003 390.124C130.051 389.968 130.075 389.788 130.075 389.584C130.075 389.2 129.937 388.858 129.661 388.558C129.397 388.258 128.965 388.108 128.365 388.108C128.149 388.108 127.963 388.126 127.807 388.162L127.825 388.252H128.005C128.401 388.252 128.731 388.372 128.995 388.612C129.271 388.852 129.409 389.2 129.409 389.656C129.409 390.16 129.235 390.574 128.887 390.898C128.551 391.222 128.113 391.384 127.573 391.384C127.033 391.384 126.583 391.21 126.223 390.862C125.863 390.514 125.683 390.034 125.683 389.422C125.683 388.642 125.965 388.012 126.529 387.532C127.105 387.052 127.885 386.812 128.869 386.812C129.889 386.812 130.699 387.046 131.299 387.514C131.899 387.982 132.199 388.648 132.199 389.512C132.199 389.932 132.127 390.346 131.983 390.754C131.839 391.162 131.563 391.594 131.155 392.05C130.747 392.506 130.471 392.86 130.327 393.112C130.195 393.364 130.129 393.592 130.129 393.796V393.958C130.129 394.306 130.249 394.6 130.489 394.84C130.741 395.068 131.119 395.182 131.623 395.182C132.127 395.182 132.529 395.032 132.829 394.732C133.141 394.42 133.297 394.036 133.297 393.58V387.028H135.961V393.562C135.961 394.138 135.853 394.654 135.637 395.11C135.433 395.554 135.139 395.938 134.755 396.262C134.371 396.574 133.909 396.814 133.369 396.982C132.841 397.138 132.259 397.216 131.623 397.216ZM127.573 390.286C127.789 390.286 127.963 390.22 128.095 390.088C128.239 389.956 128.311 389.77 128.311 389.53C128.311 389.29 128.239 389.104 128.095 388.972C127.963 388.84 127.789 388.774 127.573 388.774C127.357 388.774 127.177 388.84 127.033 388.972C126.901 389.104 126.835 389.29 126.835 389.53C126.835 389.77 126.901 389.956 127.033 390.088C127.177 390.22 127.357 390.286 127.573 390.286ZM131.131 384.49L132.211 383.86V383.842C131.803 383.734 131.485 383.548 131.257 383.284C131.029 383.008 130.915 382.666 130.915 382.258C130.915 381.682 131.113 381.226 131.509 380.89C131.893 380.542 132.427 380.368 133.111 380.368C133.795 380.368 134.335 380.542 134.731 380.89C135.115 381.226 135.307 381.682 135.307 382.258C135.307 382.606 135.217 382.912 135.037 383.176C134.845 383.428 134.563 383.62 134.191 383.752V383.896H136.369L137.161 381.52H139.339L138.385 383.644C138.229 383.98 138.079 384.256 137.935 384.472C137.791 384.688 137.629 384.862 137.449 384.994C137.269 385.114 137.065 385.198 136.837 385.246C136.597 385.294 136.315 385.318 135.991 385.318H131.131V384.49ZM133.111 383.068C133.351 383.068 133.537 382.996 133.669 382.852C133.789 382.708 133.849 382.516 133.849 382.276C133.849 382.036 133.789 381.844 133.669 381.7C133.537 381.556 133.351 381.484 133.111 381.484C132.871 381.484 132.691 381.556 132.571 381.7C132.439 381.844 132.373 382.036 132.373 382.276C132.373 382.516 132.439 382.708 132.571 382.852C132.691 382.996 132.871 383.068 133.111 383.068ZM142.8 397V390.34C142.8 389.884 142.674 389.524 142.422 389.26C142.182 388.984 141.792 388.846 141.252 388.846C140.736 388.846 140.322 388.96 140.01 389.188C139.698 389.416 139.44 389.68 139.236 389.98L137.652 388.612C138.036 388.048 138.516 387.61 139.092 387.298C139.68 386.974 140.466 386.812 141.45 386.812C142.77 386.812 143.766 387.106 144.438 387.694C145.122 388.282 145.464 389.14 145.464 390.268V397H142.8Z" fill="black"/>
<path d="M229.796 414V411.822H233.18V403.398H233.018L230.462 406.746L228.734 405.396L231.74 401.436H235.88V411.822H238.544V414H229.796Z" fill="black"/>
<path d="M314.022 414H305.13V411.534L309 408.222C309.348 407.922 309.642 407.652 309.882 407.412C310.122 407.16 310.314 406.92 310.458 406.692C310.614 406.452 310.722 406.218 310.782 405.99C310.854 405.762 310.89 405.516 310.89 405.252V405C310.89 404.76 310.842 404.55 310.746 404.37C310.65 404.19 310.524 404.04 310.368 403.92C310.212 403.8 310.032 403.71 309.828 403.65C309.636 403.59 309.438 403.56 309.234 403.56C308.934 403.56 308.67 403.608 308.442 403.704C308.226 403.8 308.034 403.932 307.866 404.1C307.71 404.256 307.578 404.442 307.47 404.658C307.362 404.862 307.278 405.084 307.218 405.324L304.86 404.424C305.004 403.992 305.202 403.584 305.454 403.2C305.706 402.804 306.018 402.462 306.39 402.174C306.774 401.874 307.224 401.64 307.74 401.472C308.256 401.304 308.838 401.22 309.486 401.22C310.17 401.22 310.776 401.316 311.304 401.508C311.832 401.7 312.276 401.964 312.636 402.3C313.008 402.636 313.29 403.038 313.482 403.506C313.674 403.962 313.77 404.46 313.77 405C313.77 405.54 313.68 406.032 313.5 406.476C313.32 406.92 313.074 407.34 312.762 407.736C312.462 408.12 312.108 408.486 311.7 408.834C311.292 409.182 310.866 409.536 310.422 409.896L308.082 411.732H314.022V414Z" fill="black"/>
<path d="M609.796 414V411.822H613.18V403.398H613.018L610.462 406.746L608.734 405.396L611.74 401.436H615.88V411.822H618.544V414H609.796Z" fill="black"/>
<path d="M694.022 414H685.13V411.534L689 408.222C689.348 407.922 689.642 407.652 689.882 407.412C690.122 407.16 690.314 406.92 690.458 406.692C690.614 406.452 690.722 406.218 690.782 405.99C690.854 405.762 690.89 405.516 690.89 405.252V405C690.89 404.76 690.842 404.55 690.746 404.37C690.65 404.19 690.524 404.04 690.368 403.92C690.212 403.8 690.032 403.71 689.828 403.65C689.636 403.59 689.438 403.56 689.234 403.56C688.934 403.56 688.67 403.608 688.442 403.704C688.226 403.8 688.034 403.932 687.866 404.1C687.71 404.256 687.578 404.442 687.47 404.658C687.362 404.862 687.278 405.084 687.218 405.324L684.86 404.424C685.004 403.992 685.202 403.584 685.454 403.2C685.706 402.804 686.018 402.462 686.39 402.174C686.774 401.874 687.224 401.64 687.74 401.472C688.256 401.304 688.838 401.22 689.486 401.22C690.17 401.22 690.776 401.316 691.304 401.508C691.832 401.7 692.276 401.964 692.636 402.3C693.008 402.636 693.29 403.038 693.482 403.506C693.674 403.962 693.77 404.46 693.77 405C693.77 405.54 693.68 406.032 693.5 406.476C693.32 406.92 693.074 407.34 692.762 407.736C692.462 408.12 692.108 408.486 691.7 408.834C691.292 409.182 690.866 409.536 690.422 409.896L688.082 411.732H694.022V414Z" fill="black"/>
<path d="M730 488V329" stroke="black" stroke-width="10"/>
<rect x="725.5" y="475.5" width="9" height="12" fill="white" stroke="black"/>
<rect x="725.5" y="329.5" width="9" height="12" fill="white" stroke="black"/>
<path d="M908.796 414V411.822H912.18V403.398H912.018L909.462 406.746L907.734 405.396L910.74 401.436H914.88V411.822H917.544V414H908.796Z" fill="black"/>
<path d="M384.796 414V411.822H388.18V403.398H388.018L385.462 406.746L383.734 405.396L386.74 401.436H390.88V411.822H393.544V414H384.796Z" fill="black"/>
<path d="M466.022 414H457.13V411.534L461 408.222C461.348 407.922 461.642 407.652 461.882 407.412C462.122 407.16 462.314 406.92 462.458 406.692C462.614 406.452 462.722 406.218 462.782 405.99C462.854 405.762 462.89 405.516 462.89 405.252V405C462.89 404.76 462.842 404.55 462.746 404.37C462.65 404.19 462.524 404.04 462.368 403.92C462.212 403.8 462.032 403.71 461.828 403.65C461.636 403.59 461.438 403.56 461.234 403.56C460.934 403.56 460.67 403.608 460.442 403.704C460.226 403.8 460.034 403.932 459.866 404.1C459.71 404.256 459.578 404.442 459.47 404.658C459.362 404.862 459.278 405.084 459.218 405.324L456.86 404.424C457.004 403.992 457.202 403.584 457.454 403.2C457.706 402.804 458.018 402.462 458.39 402.174C458.774 401.874 459.224 401.64 459.74 401.472C460.256 401.304 460.838 401.22 461.486 401.22C462.17 401.22 462.776 401.316 463.304 401.508C463.832 401.7 464.276 401.964 464.636 402.3C465.008 402.636 465.29 403.038 465.482 403.506C465.674 403.962 465.77 404.46 465.77 405C465.77 405.54 465.68 406.032 465.5 406.476C465.32 406.92 465.074 407.34 464.762 407.736C464.462 408.12 464.108 408.486 463.7 408.834C463.292 409.182 462.866 409.536 462.422 409.896L460.082 411.732H466.022V414Z" fill="black"/>
<path d="M533.82 406.404C534.492 406.404 534.978 406.278 535.278 406.026C535.59 405.762 535.746 405.438 535.746 405.054V404.928C535.746 404.472 535.596 404.106 535.296 403.83C535.008 403.554 534.594 403.416 534.054 403.416C533.55 403.416 533.076 403.548 532.632 403.812C532.188 404.064 531.81 404.43 531.498 404.91L529.806 403.326C530.046 403.014 530.304 402.732 530.58 402.48C530.856 402.216 531.168 401.994 531.516 401.814C531.864 401.622 532.254 401.478 532.686 401.382C533.118 401.274 533.604 401.22 534.144 401.22C534.816 401.22 535.422 401.298 535.962 401.454C536.514 401.61 536.982 401.838 537.366 402.138C537.762 402.426 538.062 402.774 538.266 403.182C538.482 403.59 538.59 404.046 538.59 404.55C538.59 404.946 538.524 405.306 538.392 405.63C538.272 405.954 538.098 406.236 537.87 406.476C537.654 406.716 537.402 406.914 537.114 407.07C536.826 407.214 536.52 407.316 536.196 407.376V407.484C536.568 407.556 536.91 407.676 537.222 407.844C537.546 408 537.822 408.204 538.05 408.456C538.29 408.708 538.476 409.008 538.608 409.356C538.74 409.692 538.806 410.076 538.806 410.508C538.806 411.072 538.692 411.582 538.464 412.038C538.236 412.494 537.912 412.884 537.492 413.208C537.072 413.532 536.568 413.784 535.98 413.964C535.392 414.132 534.744 414.216 534.036 414.216C533.4 414.216 532.836 414.15 532.344 414.018C531.852 413.886 531.42 413.712 531.048 413.496C530.688 413.268 530.37 413.01 530.094 412.722C529.83 412.434 529.596 412.128 529.392 411.804L531.39 410.256C531.666 410.772 532.002 411.198 532.398 411.534C532.806 411.858 533.352 412.02 534.036 412.02C534.648 412.02 535.122 411.87 535.458 411.57C535.806 411.258 535.98 410.838 535.98 410.31V410.202C535.98 409.686 535.782 409.302 535.386 409.05C535.002 408.786 534.468 408.654 533.784 408.654H532.65V406.404H533.82Z" fill="black"/>
<path d="M345.883 305.436H351.985C353.029 305.436 353.839 305.73 354.415 306.318C355.003 306.906 355.297 307.686 355.297 308.658C355.297 309.138 355.231 309.546 355.099 309.882C354.979 310.218 354.811 310.494 354.595 310.71C354.391 310.926 354.145 311.088 353.857 311.196C353.581 311.292 353.281 311.346 352.957 311.358V311.466C353.257 311.466 353.569 311.52 353.893 311.628C354.229 311.736 354.535 311.91 354.811 312.15C355.087 312.378 355.315 312.678 355.495 313.05C355.687 313.422 355.783 313.878 355.783 314.418C355.783 314.91 355.699 315.378 355.531 315.822C355.375 316.254 355.153 316.632 354.865 316.956C354.577 317.28 354.235 317.538 353.839 317.73C353.443 317.91 353.011 318 352.543 318H345.883V305.436ZM348.619 315.696H351.769C352.129 315.696 352.411 315.6 352.615 315.408C352.831 315.204 352.939 314.922 352.939 314.562V313.95C352.939 313.59 352.831 313.314 352.615 313.122C352.411 312.918 352.129 312.816 351.769 312.816H348.619V315.696ZM348.619 310.584H351.337C351.697 310.584 351.979 310.482 352.183 310.278C352.387 310.074 352.489 309.792 352.489 309.432V308.892C352.489 308.532 352.387 308.25 352.183 308.046C351.979 307.842 351.697 307.74 351.337 307.74H348.619V310.584Z" fill="black"/>
<path d="M573.6 318.216C572.748 318.216 571.98 318.084 571.296 317.82C570.612 317.544 570.03 317.142 569.55 316.614C569.07 316.074 568.698 315.408 568.434 314.616C568.17 313.812 568.038 312.876 568.038 311.808C568.038 310.752 568.17 309.816 568.434 309C568.698 308.172 569.07 307.482 569.55 306.93C570.03 306.366 570.612 305.94 571.296 305.652C571.98 305.364 572.748 305.22 573.6 305.22C574.764 305.22 575.724 305.46 576.48 305.94C577.236 306.408 577.842 307.152 578.298 308.172L575.94 309.396C575.772 308.868 575.508 308.448 575.148 308.136C574.8 307.812 574.284 307.65 573.6 307.65C572.796 307.65 572.148 307.914 571.656 308.442C571.176 308.958 570.936 309.714 570.936 310.71V312.726C570.936 313.722 571.176 314.484 571.656 315.012C572.148 315.528 572.796 315.786 573.6 315.786C574.272 315.786 574.806 315.606 575.202 315.246C575.61 314.874 575.91 314.43 576.102 313.914L578.334 315.21C577.866 316.17 577.248 316.914 576.48 317.442C575.724 317.958 574.764 318.216 573.6 318.216Z" fill="black"/>
<path d="M868.419 318V305.436H876.969V307.866H871.155V310.44H876.141V312.852H871.155V315.57H876.969V318H868.419Z" fill="black"/>
<path d="M197.465 318L196.565 315.012H192.371L191.471 318H188.699L192.839 305.436H196.223L200.309 318H197.465ZM194.495 307.92H194.405L193.019 312.69H195.899L194.495 307.92Z" fill="black"/>
<path d="M652 230V71" stroke="#7D7D7D" stroke-width="5"/>
<path d="M273 230V71" stroke="#7D7D7D" stroke-width="5"/>
<path d="M351 230V71" stroke="black" stroke-width="10"/>
<rect x="346.5" y="217.5" width="9" height="12" fill="white" stroke="black"/>
<rect x="346.5" y="73.5" width="9" height="12" fill="white" stroke="black"/>
<path d="M496 230V71" stroke="#7D7D7D" stroke-width="5"/>
<path d="M426 230V71" stroke="#7D7D7D" stroke-width="5"/>
<path d="M574 230V71" stroke="black" stroke-width="10"/>
<rect x="569.5" y="217.5" width="9" height="12" fill="white" stroke="black"/>
<rect x="569.5" y="73.5" width="9" height="12" fill="white" stroke="black"/>
<path d="M117 230V71" stroke="#7D7D7D" stroke-width="5"/>
<path d="M195 230V71" stroke="black" stroke-width="10"/>
<rect x="190.5" y="217.5" width="9" height="12" fill="white" stroke="black"/>
<rect x="190.5" y="73.5" width="9" height="12" fill="white" stroke="black"/>
<path d="M878 230V71" stroke="#7D7D7D" stroke-width="5"/>
<path d="M808 230V71" stroke="#7D7D7D" stroke-width="5"/>
<path d="M76.7955 156V153.822H80.1795V145.398H80.0175L77.4615 148.746L75.7335 147.396L78.7395 143.436H82.8795V153.822H85.5435V156H76.7955Z" fill="black"/>
<path d="M157.022 156H148.13V153.534L152 150.222C152.348 149.922 152.642 149.652 152.882 149.412C153.122 149.16 153.314 148.92 153.458 148.692C153.614 148.452 153.722 148.218 153.782 147.99C153.854 147.762 153.89 147.516 153.89 147.252V147C153.89 146.76 153.842 146.55 153.746 146.37C153.65 146.19 153.524 146.04 153.368 145.92C153.212 145.8 153.032 145.71 152.828 145.65C152.636 145.59 152.438 145.56 152.234 145.56C151.934 145.56 151.67 145.608 151.442 145.704C151.226 145.8 151.034 145.932 150.866 146.1C150.71 146.256 150.578 146.442 150.47 146.658C150.362 146.862 150.278 147.084 150.218 147.324L147.86 146.424C148.004 145.992 148.202 145.584 148.454 145.2C148.706 144.804 149.018 144.462 149.39 144.174C149.774 143.874 150.224 143.64 150.74 143.472C151.256 143.304 151.838 143.22 152.486 143.22C153.17 143.22 153.776 143.316 154.304 143.508C154.832 143.7 155.276 143.964 155.636 144.3C156.008 144.636 156.29 145.038 156.482 145.506C156.674 145.962 156.77 146.46 156.77 147C156.77 147.54 156.68 148.032 156.5 148.476C156.32 148.92 156.074 149.34 155.762 149.736C155.462 150.12 155.108 150.486 154.7 150.834C154.292 151.182 153.866 151.536 153.422 151.896L151.082 153.732H157.022V156Z" fill="black"/>
<path d="M229.796 156V153.822H233.18V145.398H233.018L230.462 148.746L228.734 147.396L231.74 143.436H235.88V153.822H238.544V156H229.796Z" fill="black"/>
<path d="M314.022 156H305.13V153.534L309 150.222C309.348 149.922 309.642 149.652 309.882 149.412C310.122 149.16 310.314 148.92 310.458 148.692C310.614 148.452 310.722 148.218 310.782 147.99C310.854 147.762 310.89 147.516 310.89 147.252V147C310.89 146.76 310.842 146.55 310.746 146.37C310.65 146.19 310.524 146.04 310.368 145.92C310.212 145.8 310.032 145.71 309.828 145.65C309.636 145.59 309.438 145.56 309.234 145.56C308.934 145.56 308.67 145.608 308.442 145.704C308.226 145.8 308.034 145.932 307.866 146.1C307.71 146.256 307.578 146.442 307.47 146.658C307.362 146.862 307.278 147.084 307.218 147.324L304.86 146.424C305.004 145.992 305.202 145.584 305.454 145.2C305.706 144.804 306.018 144.462 306.39 144.174C306.774 143.874 307.224 143.64 307.74 143.472C308.256 143.304 308.838 143.22 309.486 143.22C310.17 143.22 310.776 143.316 311.304 143.508C311.832 143.7 312.276 143.964 312.636 144.3C313.008 144.636 313.29 145.038 313.482 145.506C313.674 145.962 313.77 146.46 313.77 147C313.77 147.54 313.68 148.032 313.5 148.476C313.32 148.92 313.074 149.34 312.762 149.736C312.462 150.12 312.108 150.486 311.7 150.834C311.292 151.182 310.866 151.536 310.422 151.896L308.082 153.732H314.022V156Z" fill="black"/>
<path d="M384.796 156V153.822H388.18V145.398H388.018L385.462 148.746L383.734 147.396L386.74 143.436H390.88V153.822H393.544V156H384.796Z" fill="black"/>
<path d="M466.022 156H457.13V153.534L461 150.222C461.348 149.922 461.642 149.652 461.882 149.412C462.122 149.16 462.314 148.92 462.458 148.692C462.614 148.452 462.722 148.218 462.782 147.99C462.854 147.762 462.89 147.516 462.89 147.252V147C462.89 146.76 462.842 146.55 462.746 146.37C462.65 146.19 462.524 146.04 462.368 145.92C462.212 145.8 462.032 145.71 461.828 145.65C461.636 145.59 461.438 145.56 461.234 145.56C460.934 145.56 460.67 145.608 460.442 145.704C460.226 145.8 460.034 145.932 459.866 146.1C459.71 146.256 459.578 146.442 459.47 146.658C459.362 146.862 459.278 147.084 459.218 147.324L456.86 146.424C457.004 145.992 457.202 145.584 457.454 145.2C457.706 144.804 458.018 144.462 458.39 144.174C458.774 143.874 459.224 143.64 459.74 143.472C460.256 143.304 460.838 143.22 461.486 143.22C462.17 143.22 462.776 143.316 463.304 143.508C463.832 143.7 464.276 143.964 464.636 144.3C465.008 144.636 465.29 145.038 465.482 145.506C465.674 145.962 465.77 146.46 465.77 147C465.77 147.54 465.68 148.032 465.5 148.476C465.32 148.92 465.074 149.34 464.762 149.736C464.462 150.12 464.108 150.486 463.7 150.834C463.292 151.182 462.866 151.536 462.422 151.896L460.082 153.732H466.022V156Z" fill="black"/>
<path d="M533.82 148.404C534.492 148.404 534.978 148.278 535.278 148.026C535.59 147.762 535.746 147.438 535.746 147.054V146.928C535.746 146.472 535.596 146.106 535.296 145.83C535.008 145.554 534.594 145.416 534.054 145.416C533.55 145.416 533.076 145.548 532.632 145.812C532.188 146.064 531.81 146.43 531.498 146.91L529.806 145.326C530.046 145.014 530.304 144.732 530.58 144.48C530.856 144.216 531.168 143.994 531.516 143.814C531.864 143.622 532.254 143.478 532.686 143.382C533.118 143.274 533.604 143.22 534.144 143.22C534.816 143.22 535.422 143.298 535.962 143.454C536.514 143.61 536.982 143.838 537.366 144.138C537.762 144.426 538.062 144.774 538.266 145.182C538.482 145.59 538.59 146.046 538.59 146.55C538.59 146.946 538.524 147.306 538.392 147.63C538.272 147.954 538.098 148.236 537.87 148.476C537.654 148.716 537.402 148.914 537.114 149.07C536.826 149.214 536.52 149.316 536.196 149.376V149.484C536.568 149.556 536.91 149.676 537.222 149.844C537.546 150 537.822 150.204 538.05 150.456C538.29 150.708 538.476 151.008 538.608 151.356C538.74 151.692 538.806 152.076 538.806 152.508C538.806 153.072 538.692 153.582 538.464 154.038C538.236 154.494 537.912 154.884 537.492 155.208C537.072 155.532 536.568 155.784 535.98 155.964C535.392 156.132 534.744 156.216 534.036 156.216C533.4 156.216 532.836 156.15 532.344 156.018C531.852 155.886 531.42 155.712 531.048 155.496C530.688 155.268 530.37 155.01 530.094 154.722C529.83 154.434 529.596 154.128 529.392 153.804L531.39 152.256C531.666 152.772 532.002 153.198 532.398 153.534C532.806 153.858 533.352 154.02 534.036 154.02C534.648 154.02 535.122 153.87 535.458 153.57C535.806 153.258 535.98 152.838 535.98 152.31V152.202C535.98 151.686 535.782 151.302 535.386 151.05C535.002 150.786 534.468 150.654 533.784 150.654H532.65V148.404H533.82Z" fill="black"/>
<path d="M609.796 156V153.822H613.18V145.398H613.018L610.462 148.746L608.734 147.396L611.74 143.436H615.88V153.822H618.544V156H609.796Z" fill="black"/>
<path d="M694.022 156H685.13V153.534L689 150.222C689.348 149.922 689.642 149.652 689.882 149.412C690.122 149.16 690.314 148.92 690.458 148.692C690.614 148.452 690.722 148.218 690.782 147.99C690.854 147.762 690.89 147.516 690.89 147.252V147C690.89 146.76 690.842 146.55 690.746 146.37C690.65 146.19 690.524 146.04 690.368 145.92C690.212 145.8 690.032 145.71 689.828 145.65C689.636 145.59 689.438 145.56 689.234 145.56C688.934 145.56 688.67 145.608 688.442 145.704C688.226 145.8 688.034 145.932 687.866 146.1C687.71 146.256 687.578 146.442 687.47 146.658C687.362 146.862 687.278 147.084 687.218 147.324L684.86 146.424C685.004 145.992 685.202 145.584 685.454 145.2C685.706 144.804 686.018 144.462 686.39 144.174C686.774 143.874 687.224 143.64 687.74 143.472C688.256 143.304 688.838 143.22 689.486 143.22C690.17 143.22 690.776 143.316 691.304 143.508C691.832 143.7 692.276 143.964 692.636 144.3C693.008 144.636 693.29 145.038 693.482 145.506C693.674 145.962 693.77 146.46 693.77 147C693.77 147.54 693.68 148.032 693.5 148.476C693.32 148.92 693.074 149.34 692.762 149.736C692.462 150.12 692.108 150.486 691.7 150.834C691.292 151.182 690.866 151.536 690.422 151.896L688.082 153.732H694.022V156Z" fill="black"/>
<path d="M767.796 156V153.822H771.18V145.398H771.018L768.462 148.746L766.734 147.396L769.74 143.436H773.88V153.822H776.544V156H767.796Z" fill="black"/>
<path d="M847.022 156H838.13V153.534L842 150.222C842.348 149.922 842.642 149.652 842.882 149.412C843.122 149.16 843.314 148.92 843.458 148.692C843.614 148.452 843.722 148.218 843.782 147.99C843.854 147.762 843.89 147.516 843.89 147.252V147C843.89 146.76 843.842 146.55 843.746 146.37C843.65 146.19 843.524 146.04 843.368 145.92C843.212 145.8 843.032 145.71 842.828 145.65C842.636 145.59 842.438 145.56 842.234 145.56C841.934 145.56 841.67 145.608 841.442 145.704C841.226 145.8 841.034 145.932 840.866 146.1C840.71 146.256 840.578 146.442 840.47 146.658C840.362 146.862 840.278 147.084 840.218 147.324L837.86 146.424C838.004 145.992 838.202 145.584 838.454 145.2C838.706 144.804 839.018 144.462 839.39 144.174C839.774 143.874 840.224 143.64 840.74 143.472C841.256 143.304 841.838 143.22 842.486 143.22C843.17 143.22 843.776 143.316 844.304 143.508C844.832 143.7 845.276 143.964 845.636 144.3C846.008 144.636 846.29 145.038 846.482 145.506C846.674 145.962 846.77 146.46 846.77 147C846.77 147.54 846.68 148.032 846.5 148.476C846.32 148.92 846.074 149.34 845.762 149.736C845.462 150.12 845.108 150.486 844.7 150.834C844.292 151.182 843.866 151.536 843.422 151.896L841.082 153.732H847.022V156Z" fill="black"/>
<path d="M911.82 148.404C912.492 148.404 912.978 148.278 913.278 148.026C913.59 147.762 913.746 147.438 913.746 147.054V146.928C913.746 146.472 913.596 146.106 913.296 145.83C913.008 145.554 912.594 145.416 912.054 145.416C911.55 145.416 911.076 145.548 910.632 145.812C910.188 146.064 909.81 146.43 909.498 146.91L907.806 145.326C908.046 145.014 908.304 144.732 908.58 144.48C908.856 144.216 909.168 143.994 909.516 143.814C909.864 143.622 910.254 143.478 910.686 143.382C911.118 143.274 911.604 143.22 912.144 143.22C912.816 143.22 913.422 143.298 913.962 143.454C914.514 143.61 914.982 143.838 915.366 144.138C915.762 144.426 916.062 144.774 916.266 145.182C916.482 145.59 916.59 146.046 916.59 146.55C916.59 146.946 916.524 147.306 916.392 147.63C916.272 147.954 916.098 148.236 915.87 148.476C915.654 148.716 915.402 148.914 915.114 149.07C914.826 149.214 914.52 149.316 914.196 149.376V149.484C914.568 149.556 914.91 149.676 915.222 149.844C915.546 150 915.822 150.204 916.05 150.456C916.29 150.708 916.476 151.008 916.608 151.356C916.74 151.692 916.806 152.076 916.806 152.508C916.806 153.072 916.692 153.582 916.464 154.038C916.236 154.494 915.912 154.884 915.492 155.208C915.072 155.532 914.568 155.784 913.98 155.964C913.392 156.132 912.744 156.216 912.036 156.216C911.4 156.216 910.836 156.15 910.344 156.018C909.852 155.886 909.42 155.712 909.048 155.496C908.688 155.268 908.37 155.01 908.094 154.722C907.83 154.434 907.596 154.128 907.392 153.804L909.39 152.256C909.666 152.772 910.002 153.198 910.398 153.534C910.806 153.858 911.352 154.02 912.036 154.02C912.648 154.02 913.122 153.87 913.458 153.57C913.806 153.258 913.98 152.838 913.98 152.31V152.202C913.98 151.686 913.782 151.302 913.386 151.05C913.002 150.786 912.468 150.654 911.784 150.654H910.65V148.404H911.82Z" fill="black"/>
<path d="M724.611 305.436H729.345C730.173 305.436 730.929 305.568 731.613 305.832C732.297 306.096 732.879 306.492 733.359 307.02C733.839 307.536 734.211 308.19 734.475 308.982C734.739 309.762 734.871 310.674 734.871 311.718C734.871 312.762 734.739 313.68 734.475 314.472C734.211 315.252 733.839 315.906 733.359 316.434C732.879 316.95 732.297 317.34 731.613 317.604C730.929 317.868 730.173 318 729.345 318H724.611V305.436ZM729.345 315.57C730.161 315.57 730.803 315.342 731.271 314.886C731.739 314.43 731.973 313.698 731.973 312.69V310.746C731.973 309.738 731.739 309.006 731.271 308.55C730.803 308.094 730.161 307.866 729.345 307.866H727.347V315.57H729.345Z" fill="black"/>
<path d="M354.397 244.852H349.609V250H346.873V237.436H349.609V242.44H354.397V237.436H357.133V250H354.397V244.852Z" fill="black"/>
<path d="M572.015 250V247.822H573.635V239.614H572.015V237.436H577.991V239.614H576.371V247.822H577.991V250H572.015Z" fill="black"/>
<path d="M39.6214 250V237.436H47.9554V239.866H42.3574V242.44H47.1274V244.852H42.3574V250H39.6214Z" fill="black"/>
<path d="M199.391 248.002H199.301C199.205 248.638 198.881 249.166 198.329 249.586C197.777 250.006 197.027 250.216 196.079 250.216C195.359 250.216 194.687 250.078 194.063 249.802C193.439 249.526 192.893 249.118 192.425 248.578C191.957 248.038 191.591 247.366 191.327 246.562C191.063 245.758 190.931 244.828 190.931 243.772C190.931 242.716 191.069 241.78 191.345 240.964C191.621 240.148 192.005 239.464 192.497 238.912C193.001 238.36 193.601 237.94 194.297 237.652C194.993 237.364 195.767 237.22 196.619 237.22C197.747 237.22 198.719 237.466 199.535 237.958C200.351 238.438 200.993 239.164 201.461 240.136L199.229 241.414C199.037 240.922 198.737 240.508 198.329 240.172C197.921 239.824 197.351 239.65 196.619 239.65C195.767 239.65 195.089 239.896 194.585 240.388C194.081 240.88 193.829 241.654 193.829 242.71V244.726C193.829 245.77 194.081 246.544 194.585 247.048C195.089 247.54 195.767 247.786 196.619 247.786C196.955 247.786 197.273 247.75 197.573 247.678C197.873 247.594 198.137 247.474 198.365 247.318C198.593 247.15 198.767 246.952 198.887 246.724C199.019 246.496 199.085 246.226 199.085 245.914V245.284H196.745V242.998H201.695V250H199.391V248.002Z" fill="black"/>
<path d="M735.221 237.436V246.364C735.221 246.94 735.125 247.468 734.933 247.948C734.753 248.416 734.483 248.818 734.123 249.154C733.763 249.478 733.325 249.736 732.809 249.928C732.305 250.108 731.729 250.198 731.081 250.198C730.457 250.198 729.905 250.114 729.425 249.946C728.957 249.778 728.549 249.538 728.201 249.226C727.865 248.914 727.589 248.542 727.373 248.11C727.157 247.678 727.007 247.198 726.923 246.67L729.479 246.166C729.683 247.258 730.205 247.804 731.045 247.804C731.441 247.804 731.777 247.678 732.053 247.426C732.341 247.174 732.485 246.778 732.485 246.238V239.632H728.669V237.436H735.221Z" fill="black"/>
<path d="M34 488.498L34 72.0001L958 72.0001L958 488.5L868 488.5" stroke="black" stroke-width="5"/>
<path d="M873 489V330" stroke="black" stroke-width="10"/>
<rect x="868.5" y="330.5" width="9" height="12" fill="white" stroke="black"/>
<rect x="868.5" y="476.5" width="9" height="12" fill="white" stroke="black"/>
<path d="M953 489V330" stroke="black" stroke-width="10"/>
<rect x="948.5" y="476.5" width="9" height="12" fill="white" stroke="black"/>
<rect x="948.5" y="330.5" width="9" height="12" fill="white" stroke="black"/>
<path d="M953 230V71" stroke="black" stroke-width="10"/>
<rect x="948.5" y="217.5" width="9" height="12" fill="white" stroke="black"/>
<rect x="948.5" y="73.5" width="9" height="12" fill="white" stroke="black"/>
<path d="M39 488V329" stroke="black" stroke-width="10"/>
<rect x="34.5" y="329.5" width="9" height="12" fill="white" stroke="black"/>
<rect x="34.5" y="475.5" width="9" height="12" fill="white" stroke="black"/>
<path d="M39 232V73" stroke="black" stroke-width="10"/>
<rect x="34.5" y="74.5" width="9" height="12" fill="white" stroke="black"/>
<rect x="34.5" y="219.5" width="9" height="12" fill="white" stroke="black"/>
<path d="M77.1705 430.216C76.3425 430.216 75.6825 429.97 75.1905 429.478C74.7105 428.986 74.4705 428.266 74.4705 427.318C74.4705 426.214 74.7825 425.392 75.4065 424.852C76.0425 424.312 76.8705 424.042 77.8905 424.042H80.8065V423.844C80.8065 423.208 80.6325 422.716 80.2845 422.368C79.9365 422.02 79.3665 421.846 78.5745 421.846C78.1905 421.846 77.8485 421.894 77.5485 421.99C77.2485 422.086 76.9785 422.212 76.7385 422.368C76.5105 422.524 76.3065 422.698 76.1265 422.89C75.9585 423.07 75.8085 423.256 75.6765 423.448L73.9665 421.972C74.1945 421.636 74.4585 421.336 74.7585 421.072C75.0585 420.808 75.4005 420.586 75.7845 420.406C76.1805 420.214 76.6245 420.07 77.1165 419.974C77.6205 419.866 78.1905 419.812 78.8265 419.812C80.3505 419.812 81.5025 420.148 82.2825 420.82C83.0745 421.492 83.4705 422.47 83.4705 423.754V430H80.8065V425.554H78.2865C77.7705 425.554 77.3745 425.65 77.0985 425.842C76.8225 426.022 76.6605 426.262 76.6125 426.562C76.8645 426.466 77.1285 426.418 77.4045 426.418C77.9205 426.418 78.3585 426.586 78.7185 426.922C79.0905 427.246 79.2765 427.696 79.2765 428.272C79.2765 428.872 79.0845 429.346 78.7005 429.694C78.3165 430.042 77.8065 430.216 77.1705 430.216ZM77.2245 429.118C77.4405 429.118 77.6205 429.046 77.7645 428.902C77.9085 428.746 77.9805 428.548 77.9805 428.308C77.9805 428.068 77.9085 427.876 77.7645 427.732C77.6205 427.576 77.4405 427.498 77.2245 427.498C77.0085 427.498 76.8285 427.576 76.6845 427.732C76.5405 427.876 76.4685 428.068 76.4685 428.308C76.4685 428.548 76.5405 428.746 76.6845 428.902C76.8285 429.046 77.0085 429.118 77.2245 429.118ZM90.0915 430V423.34C90.0915 422.884 89.9655 422.524 89.7135 422.26C89.4735 421.984 89.0835 421.846 88.5435 421.846C88.0275 421.846 87.6135 421.96 87.3015 422.188C86.9895 422.416 86.7315 422.68 86.5275 422.98L84.9435 421.612C85.3275 421.048 85.8075 420.61 86.3835 420.298C86.9715 419.974 87.7575 419.812 88.7415 419.812C90.0615 419.812 91.0575 420.106 91.7295 420.694C92.4135 421.282 92.7555 422.14 92.7555 423.268V430H90.0915ZM104.228 430.216C103.652 430.216 103.16 430.084 102.752 429.82C102.356 429.544 102.086 429.166 101.942 428.686L99.2781 430H96.7221V424.114C96.1101 424.054 95.6061 423.838 95.2101 423.466C94.8261 423.094 94.6341 422.596 94.6341 421.972C94.6341 421.3 94.8561 420.772 95.3001 420.388C95.7561 420.004 96.3261 419.812 97.0101 419.812C97.6941 419.812 98.2581 420.016 98.7021 420.424C99.1581 420.82 99.3861 421.372 99.3861 422.08V427.93H99.4941L102.392 426.508V420.028H105.056V425.05C105.056 425.17 105.044 425.296 105.02 425.428C105.008 425.56 104.96 425.692 104.876 425.824C105.392 425.944 105.806 426.196 106.118 426.58C106.442 426.952 106.604 427.42 106.604 427.984C106.604 428.668 106.382 429.214 105.938 429.622C105.494 430.018 104.924 430.216 104.228 430.216ZM104.228 428.938C104.516 428.938 104.738 428.86 104.894 428.704C105.05 428.548 105.128 428.356 105.128 428.128V427.84C105.128 427.612 105.05 427.42 104.894 427.264C104.738 427.108 104.516 427.03 104.228 427.03C103.94 427.03 103.718 427.108 103.562 427.264C103.406 427.42 103.328 427.612 103.328 427.84V428.128C103.328 428.356 103.406 428.548 103.562 428.704C103.718 428.86 103.94 428.938 104.228 428.938ZM96.9381 422.854C97.1781 422.854 97.3761 422.776 97.5321 422.62C97.6881 422.464 97.7661 422.248 97.7661 421.972C97.7661 421.696 97.6881 421.48 97.5321 421.324C97.3761 421.168 97.1781 421.09 96.9381 421.09C96.6981 421.09 96.5001 421.168 96.3441 421.324C96.1881 421.48 96.1101 421.696 96.1101 421.972C96.1101 422.248 96.1881 422.464 96.3441 422.62C96.5001 422.776 96.6981 422.854 96.9381 422.854ZM113.683 430.216C113.215 430.216 112.783 430.156 112.387 430.036C111.991 429.928 111.655 429.766 111.379 429.55C111.103 429.334 110.887 429.076 110.731 428.776C110.575 428.476 110.497 428.134 110.497 427.75V427.462C109.837 427.438 109.291 427.234 108.859 426.85C108.439 426.466 108.229 425.95 108.229 425.302C108.229 424.642 108.457 424.12 108.913 423.736C109.369 423.34 109.939 423.142 110.623 423.142C111.343 423.142 111.919 423.346 112.351 423.754C112.795 424.15 113.017 424.702 113.017 425.41V427.678C113.017 427.894 113.071 428.056 113.179 428.164C113.299 428.26 113.443 428.308 113.611 428.308C113.779 428.308 113.917 428.26 114.025 428.164C114.145 428.056 114.205 427.894 114.205 427.678V423.952C114.205 423.268 113.983 422.746 113.539 422.386C113.107 422.026 112.513 421.846 111.757 421.846C111.085 421.846 110.509 421.972 110.029 422.224C109.561 422.476 109.171 422.806 108.859 423.214L107.221 421.756C107.713 421.168 108.343 420.7 109.111 420.352C109.879 419.992 110.863 419.812 112.063 419.812C113.671 419.812 114.871 420.16 115.663 420.856C116.467 421.54 116.869 422.47 116.869 423.646V427.75C116.869 428.134 116.791 428.476 116.635 428.776C116.479 429.076 116.263 429.334 115.987 429.55C115.711 429.766 115.375 429.928 114.979 430.036C114.583 430.156 114.151 430.216 113.683 430.216ZM110.551 426.184C110.791 426.184 110.989 426.106 111.145 425.95C111.313 425.794 111.397 425.578 111.397 425.302C111.397 425.026 111.313 424.81 111.145 424.654C110.989 424.498 110.791 424.42 110.551 424.42C110.311 424.42 110.107 424.498 109.939 424.654C109.783 424.81 109.705 425.026 109.705 425.302C109.705 425.578 109.783 425.794 109.939 425.95C110.107 426.106 110.311 426.184 110.551 426.184ZM124.138 430.216C122.722 430.216 121.636 429.952 120.88 429.424C120.136 428.896 119.764 428.086 119.764 426.994V425.68C119.764 424.912 119.986 424.294 120.43 423.826C120.874 423.346 121.474 423.106 122.23 423.106C122.902 423.106 123.454 423.298 123.886 423.682C124.33 424.066 124.552 424.594 124.552 425.266C124.552 425.902 124.354 426.412 123.958 426.796C123.562 427.168 123.058 427.378 122.446 427.426C122.542 427.93 122.92 428.182 123.58 428.182H124.696C125.08 428.182 125.368 428.092 125.56 427.912C125.752 427.732 125.848 427.486 125.848 427.174V424.078C125.848 423.382 125.626 422.836 125.182 422.44C124.738 422.044 124.132 421.846 123.364 421.846C122.956 421.846 122.596 421.888 122.284 421.972C121.984 422.056 121.714 422.17 121.474 422.314C121.246 422.446 121.048 422.596 120.88 422.764C120.712 422.932 120.562 423.1 120.43 423.268L118.846 421.81C119.038 421.546 119.278 421.294 119.566 421.054C119.854 420.802 120.196 420.586 120.592 420.406C120.988 420.226 121.444 420.082 121.96 419.974C122.476 419.866 123.058 419.812 123.706 419.812C125.278 419.812 126.472 420.178 127.288 420.91C128.104 421.642 128.512 422.674 128.512 424.006V426.994C128.512 428.086 128.134 428.896 127.378 429.424C126.634 429.952 125.554 430.216 124.138 430.216ZM122.266 426.148C122.506 426.148 122.704 426.07 122.86 425.914C123.028 425.758 123.112 425.542 123.112 425.266C123.112 424.99 123.028 424.774 122.86 424.618C122.704 424.462 122.506 424.384 122.266 424.384C122.026 424.384 121.822 424.462 121.654 424.618C121.498 424.774 121.42 424.99 121.42 425.266C121.42 425.542 121.498 425.758 121.654 425.914C121.822 426.07 122.026 426.148 122.266 426.148ZM131.255 424.114C131.255 423.466 131.375 422.878 131.615 422.35C131.855 421.822 132.197 421.372 132.641 421C133.097 420.616 133.643 420.322 134.279 420.118C134.927 419.914 135.647 419.812 136.439 419.812C137.231 419.812 137.945 419.914 138.581 420.118C139.229 420.322 139.775 420.616 140.219 421C140.675 421.372 141.023 421.822 141.263 422.35C141.503 422.878 141.623 423.466 141.623 424.114V430H138.959V424.294C138.959 423.514 138.737 422.914 138.293 422.494C137.849 422.062 137.231 421.846 136.439 421.846C135.647 421.846 135.029 422.062 134.585 422.494C134.141 422.914 133.919 423.514 133.919 424.294V428.38H134.441L135.035 427.696L135.557 427.246C135.197 427.102 134.909 426.88 134.693 426.58C134.477 426.268 134.369 425.902 134.369 425.482C134.369 424.906 134.561 424.444 134.945 424.096C135.341 423.736 135.839 423.556 136.439 423.556C137.039 423.556 137.531 423.736 137.915 424.096C138.311 424.444 138.509 424.906 138.509 425.482C138.509 425.758 138.455 426.058 138.347 426.382C138.239 426.694 138.047 427.006 137.771 427.318L135.431 430H131.255V424.114ZM136.439 426.274C136.679 426.274 136.859 426.202 136.979 426.058C137.111 425.914 137.177 425.722 137.177 425.482C137.177 425.242 137.111 425.05 136.979 424.906C136.859 424.762 136.679 424.69 136.439 424.69C136.199 424.69 136.013 424.762 135.881 424.906C135.761 425.05 135.701 425.242 135.701 425.482C135.701 425.722 135.761 425.914 135.881 426.058C136.013 426.202 136.199 426.274 136.439 426.274ZM156.449 430L155.549 427.012H151.355L150.455 430H147.683L151.823 417.436H155.207L159.293 430H156.449ZM153.479 419.92H153.389L152.003 424.69H154.883L153.479 419.92Z" fill="black"/>
</svg>
